 <svg  version="1.0" xmlns="http://www.w3.org/2000/svg"  width="300.000000pt" height="249.000000pt" viewBox="0 0 300.000000 249.000000"  preserveAspectRatio="xMidYMid meet">  <g transform="translate(0.000000,249.000000) scale(0.100000,-0.100000)" fill="#ffffff" stroke="none"> <path d="M1778 2434 c-2 -2 -49 -6 -103 -9 -202 -11 -435 -49 -531 -86 -86 -33 -195 -41 -389 -26 -67 4 -294 -6 -325 -15 -8 -3 -33 -8 -55 -12 -22 -4 -54 -14 -72 -22 -17 -8 -38 -14 -46 -14 -9 0 -18 -4 -21 -9 -3 -4 -18 -11 -33 -14 -38 -8 -153 -93 -153 -113 0 -20 56 -73 90 -86 35 -13 197 -47 300 -62 51 -8 140 -11 225 -9 296 10 447 6 545 -12 65 -12 143 -18 250 -18 142 0 166 3 285 33 72 18 141 37 155 42 42 17 250 46 256 36 3 -5 13 -7 22 -4 10 3 67 8 127 11 102 6 167 17 305 49 140 34 194 51 262 85 59 29 74 41 76 62 8 72 -107 123 -323 145 -77 7 -153 16 -170 18 -16 3 -79 6 -140 7 -60 0 -144 5 -185 10 -80 9 -346 19 -352 13z"/> <path d="M2798 2105 c-10 -10 -179 -54 -303 -80 -92 -19 -152 -25 -255 -25 -155 0 -266 -16 -412 -59 -227 -67 -389 -76 -646 -36 -80 12 -173 15 -420 14 -306 -2 -322 -1 -453 24 -75 15 -145 30 -155 33 -15 6 -14 1 7 -22 82 -92 220 -337 234 -415 11 -61 18 -65 67 -37 68 39 227 95 293 104 11 1 49 7 85 13 128 21 246 10 326 -32 43 -22 96 -80 111 -120 27 -74 4 -246 -52 -386 -14 -36 -25 -65 -25 -66 0 -1 30 4 68 11 37 7 105 14 152 16 70 2 85 0 85 -12 0 -12 -29 -19 -130 -32 -71 -9 -154 -20 -184 -24 -61 -8 -60 -12 -16 96 33 81 53 156 63 240 15 121 -12 188 -93 235 -40 24 -147 47 -182 40 -10 -3 -58 -6 -108 -9 -49 -2 -97 -6 -105 -9 -8 -3 -58 -19 -110 -37 -52 -17 -122 -45 -155 -63 -68 -36 -63 -17 -51 -192 4 -49 8 -148 10 -220 4 -210 40 -338 133 -477 88 -132 173 -209 295 -267 57 -27 119 -51 138 -54 19 -3 60 -13 90 -21 30 -9 80 -19 110 -23 83 -9 343 -4 354 7 6 6 19 10 31 10 48 0 271 61 332 92 21 10 43 5 43 -11 0 -11 -116 -66 -180 -85 -302 -87 -571 -85 -850 7 -41 14 -76 24 -77 24 -1 -1 4 -19 10 -39 10 -32 21 -42 72 -67 157 -78 231 -95 410 -94 106 1 162 6 230 22 124 30 270 78 330 109 154 79 162 85 176 115 8 18 13 40 11 50 -3 15 -5 16 -25 2 -24 -17 -67 -20 -67 -5 0 5 11 17 25 27 25 18 45 33 95 77 14 11 46 48 70 81 24 33 47 62 52 63 4 2 8 8 8 13 0 5 13 27 29 50 17 22 37 64 47 92 9 29 22 66 29 82 22 51 82 250 90 299 2 16 9 52 14 80 6 28 18 98 26 156 19 125 33 198 45 225 5 11 12 38 16 60 4 22 9 47 10 56 3 16 50 117 81 174 9 17 22 34 30 38 7 4 13 15 13 22 0 8 4 15 8 15 5 0 14 11 20 24 13 29 37 60 76 98 15 15 24 28 19 28 -5 0 -12 -2 -15 -5z m-478 -394 c66 -19 140 -59 140 -76 0 -21 -13 -19 -71 11 -96 48 -246 60 -404 33 -54 -10 -193 -69 -237 -101 -21 -15 -44 2 -35 25 6 17 143 84 212 104 105 31 293 32 395 4z m-3 -248 c6 -16 -60 -58 -132 -84 -45 -16 -91 -23 -185 -26 -111 -4 -131 -3 -184 17 -62 24 -109 61 -87 68 7 2 39 -8 72 -23 74 -33 141 -40 240 -26 93 13 161 35 209 67 36 25 60 28 67 7z m-1167 -83 c13 -8 13 -11 0 -24 -8 -8 -44 -27 -80 -43 -62 -26 -73 -28 -210 -28 -139 0 -148 1 -207 29 -67 31 -91 50 -74 61 6 3 36 -6 68 -21 87 -40 183 -50 285 -32 46 9 106 27 133 41 58 29 65 30 85 17z m192 -536 c36 -19 58 -18 120 6 68 26 84 25 162 -4 36 -14 86 -28 113 -32 49 -7 73 -19 73 -37 0 -14 -90 0 -178 29 -88 28 -101 29 -150 8 -50 -21 -113 -21 -161 1 -39 17 -41 17 -138 -8 -54 -14 -118 -28 -142 -31 -43 -7 -111 8 -111 23 0 5 35 11 78 14 42 3 111 17 152 31 80 26 130 26 182 0z m-119 -119 c12 -8 51 -22 87 -31 77 -20 160 -14 227 16 52 23 97 27 91 8 -2 -7 -26 -24 -53 -38 -45 -22 -62 -25 -165 -25 -104 0 -121 3 -172 27 -34 16 -58 33 -58 42 0 20 14 20 43 1z"/> </g> </svg> 