<?xml version="1.0" standalone="no"?>
<!DOCTYPE svg PUBLIC "-//W3C//DTD SVG 20010904//EN"
 "http://www.w3.org/TR/2001/REC-SVG-20010904/DTD/svg10.dtd">
<svg version="1.0" xmlns="http://www.w3.org/2000/svg"
 width="1350.000000pt" height="1350.000000pt" viewBox="0 0 1350.000000 1350.000000"
 preserveAspectRatio="xMidYMid meet">
<metadata>
Created by potrace 1.10, written by Peter Selinger 2001-2011
</metadata>
<g transform="translate(0.000000,1350.000000) scale(0.100000,-0.100000)"
fill="#ffffff" stroke="none">
<path d="M8084 12035 c-4 -9 -19 -15 -39 -15 -18 0 -38 -7 -45 -15 -7 -8 -29
-15 -49 -15 -21 0 -46 -7 -57 -15 -22 -16 -70 -20 -79 -6 -3 6 4 15 15 21 11
6 20 15 20 20 0 17 -40 11 -70 -11 -26 -20 -34 -21 -92 -12 -68 11 -78 7 -78
-35 0 -27 -63 -60 -83 -43 -7 5 -46 12 -87 15 -41 3 -84 6 -95 7 -11 2 -47 -4
-80 -11 -67 -14 -115 -8 -115 15 0 8 -7 15 -16 15 -13 0 -14 -3 -4 -15 18 -21
2 -37 -30 -30 -16 3 -31 2 -35 -4 -3 -6 -17 -11 -30 -11 -13 0 -27 -4 -30 -10
-11 -17 -42 -11 -57 12 -10 15 -19 19 -29 12 -8 -4 -21 -7 -30 -6 -9 2 -22 -4
-29 -12 -9 -12 -17 -13 -31 -6 -12 7 -25 7 -39 0 -11 -5 -29 -14 -40 -20 -11
-5 -27 -10 -35 -10 -23 0 -18 38 6 51 36 19 7 33 -48 23 -38 -7 -48 -13 -48
-29 0 -14 8 -21 28 -23 34 -4 35 -15 1 -31 -23 -10 -28 -8 -57 24 -30 34 -60
45 -71 26 -4 -5 7 -21 24 -34 16 -14 30 -30 30 -36 0 -17 -40 -13 -46 4 -8 19
-92 20 -119 1 -11 -7 -58 -21 -105 -30 -47 -9 -96 -24 -109 -33 -31 -20 -88
-19 -111 2 -21 19 -101 17 -107 -2 -3 -7 10 -16 29 -22 l33 -9 -34 -1 c-19 -1
-38 5 -45 14 -9 13 -17 13 -46 3 -66 -22 -101 -40 -107 -54 -3 -8 -17 -13 -32
-13 -14 1 -30 0 -36 -1 -5 -2 -19 1 -29 5 -11 5 -31 3 -50 -4 -28 -12 -69 -23
-191 -52 -22 -5 -75 -16 -118 -24 -43 -8 -90 -23 -105 -33 -15 -11 -42 -23
-59 -27 -18 -3 -36 -11 -39 -17 -14 -22 -91 -48 -145 -48 -37 0 -61 -5 -69
-15 -9 -10 -32 -14 -85 -13 -56 1 -83 -3 -109 -17 -36 -19 -60 -15 -38 7 7 7
12 19 12 29 0 12 -7 15 -27 11 -16 -2 -35 -10 -43 -16 -27 -20 -60 -36 -74
-36 -7 0 -19 -7 -26 -15 -15 -18 -30 -11 -30 16 0 14 -7 19 -25 19 -22 0 -25
-4 -23 -27 l3 -28 -103 -3 c-82 -3 -107 -1 -120 11 -25 23 -68 30 -102 18 -22
-7 -38 -7 -54 0 -17 8 -32 7 -59 -5 -22 -9 -50 -13 -72 -9 -28 4 -35 2 -35
-10 0 -22 -18 -31 -35 -17 -8 7 -24 10 -35 7 -41 -10 -89 12 -104 47 -15 36
-56 54 -96 41 -30 -9 -24 -25 9 -25 17 0 33 -5 36 -10 10 -16 -24 -24 -51 -12
-18 9 -31 9 -50 0 -22 -10 -28 -10 -39 5 -9 12 -27 17 -63 17 -28 0 -72 7 -97
16 -55 18 -89 11 -80 -17 5 -15 1 -19 -15 -19 -16 0 -20 4 -15 19 3 10 -1 24
-10 31 -13 10 -19 10 -33 -4 -25 -22 -55 -20 -77 4 -19 21 -69 27 -80 10 -3
-5 3 -10 14 -10 12 0 21 -4 21 -9 0 -11 -75 -21 -146 -20 -28 1 -61 -4 -74
-11 -36 -19 -255 -22 -299 -4 -39 16 -94 12 -139 -12 -17 -8 -41 -11 -64 -7
-26 4 -45 1 -63 -11 -23 -15 -28 -15 -55 -1 -17 9 -36 24 -43 35 -6 11 -15 20
-19 20 -15 0 -94 -59 -106 -80 -7 -11 -17 -18 -22 -15 -14 9 -12 62 3 69 6 3
3 5 -8 3 -11 -1 -24 -12 -30 -25 -9 -19 -17 -22 -71 -22 -43 0 -65 -5 -74 -15
-7 -8 -21 -15 -31 -15 -30 0 -32 -19 -4 -32 24 -11 25 -13 8 -19 -27 -11 -73
-10 -73 1 0 6 -10 10 -21 10 -18 0 -19 -3 -9 -15 6 -8 9 -19 5 -25 -9 -15 -61
-12 -75 5 -7 8 -22 15 -35 15 -23 0 -164 -67 -193 -92 -48 -41 -189 -61 -230
-32 -12 8 -27 12 -32 9 -15 -9 -12 -32 6 -39 25 -9 6 -26 -30 -26 -19 0 -39
-7 -46 -15 -7 -8 -27 -17 -46 -21 -19 -3 -37 -10 -40 -15 -3 -5 -14 -9 -25 -9
-32 0 -256 -132 -287 -169 -10 -12 -15 -13 -18 -3 -9 21 -54 13 -110 -19 -30
-17 -54 -32 -54 -35 0 -2 12 -9 27 -15 l28 -10 -22 -17 c-12 -9 -74 -64 -137
-122 -106 -96 -134 -130 -106 -130 17 0 11 -32 -7 -46 -17 -12 -16 -15 15 -46
17 -19 32 -42 32 -51 0 -10 11 -22 24 -27 14 -5 26 -19 28 -32 2 -17 11 -24
31 -26 15 -2 27 -7 27 -11 0 -4 20 -22 45 -40 25 -18 45 -37 45 -42 0 -24 43
-51 116 -73 43 -13 110 -38 148 -55 38 -17 81 -31 97 -31 15 0 31 -4 34 -10 3
-5 25 -10 48 -10 23 0 60 -5 82 -11 22 -6 51 -13 65 -16 14 -2 49 -14 77 -26
48 -19 51 -22 38 -37 -8 -9 -12 -20 -8 -23 12 -13 23 -7 23 12 0 26 17 36 36
20 13 -11 39 -14 184 -23 25 -1 77 -10 115 -20 39 -9 81 -20 95 -23 13 -3 33
-14 44 -25 24 -22 30 -22 62 -2 23 16 26 16 49 -6 17 -16 31 -21 48 -16 18 4
27 1 31 -10 5 -13 14 -15 44 -9 20 4 44 13 53 21 14 12 21 13 45 2 16 -7 33
-19 37 -26 12 -19 49 -31 67 -22 10 5 29 2 48 -7 29 -14 34 -14 45 0 10 12 24
13 82 6 39 -5 80 -11 92 -14 12 -3 24 -1 27 3 3 4 57 8 121 8 125 -1 123 0
161 -62 11 -18 13 -17 22 7 8 21 19 27 54 32 29 4 50 1 65 -9 29 -18 48 -18
79 2 17 12 38 15 72 11 27 -3 60 0 77 7 33 13 182 15 203 3 6 -5 16 -5 22 -2
11 7 116 35 131 35 5 0 7 -12 4 -27 l-6 -28 28 31 c26 29 35 32 118 39 50 4
102 7 118 7 32 -2 82 -3 100 -3 6 1 50 -4 96 -9 73 -8 87 -8 102 6 23 21 57
10 65 -22 7 -25 47 -49 65 -38 14 8 0 24 -22 24 -10 0 -19 7 -19 15 0 11 11
15 38 15 21 0 42 -3 46 -7 4 -4 31 -9 59 -10 39 -1 57 3 72 17 21 19 86 23
113 6 7 -4 26 -5 43 -1 18 4 36 2 45 -6 11 -9 18 -9 26 -1 18 18 43 14 63 -8
17 -19 18 -19 35 2 l17 21 21 -21 c24 -24 37 -27 47 -13 11 19 195 -5 213 -27
11 -15 15 -15 45 1 35 19 122 18 187 -2 19 -6 55 -11 80 -11 31 0 63 -10 103
-31 56 -29 60 -30 83 -14 18 12 29 13 38 6 7 -6 45 -14 84 -17 69 -7 90 -18
57 -30 -16 -7 -21 -44 -6 -44 23 0 43 15 52 37 7 19 13 23 27 17 9 -5 47 -8
83 -7 59 2 67 0 72 -17 6 -24 34 -26 73 -5 34 17 90 20 100 4 4 -7 25 -9 60
-4 34 4 61 2 75 -6 24 -12 348 -19 355 -7 3 4 43 5 90 3 60 -2 91 -8 103 -19
20 -18 66 -21 76 -6 3 6 -5 14 -19 20 -43 16 -30 21 57 19 115 -2 229 7 272
21 21 7 72 12 114 12 71 0 110 7 170 30 32 12 121 -28 121 -54 0 -23 -51 -49
-104 -53 -22 -2 -57 -9 -76 -15 -19 -6 -73 -16 -120 -21 -134 -17 -143 -18
-176 -25 -19 -3 -34 -1 -38 5 -11 18 -135 14 -142 -4 -4 -8 -17 -15 -29 -15
-13 0 -30 7 -39 15 -20 20 -26 19 -26 -5 0 -18 -7 -20 -60 -20 -47 0 -60 3
-60 15 0 16 -16 20 -24 6 -7 -10 -68 -21 -149 -26 -44 -2 -59 0 -63 11 -2 8
-6 21 -9 29 -4 13 -9 14 -25 5 -11 -6 -20 -17 -20 -25 0 -12 -14 -15 -57 -15
-32 0 -68 -3 -80 -6 -14 -4 -28 1 -42 15 -25 25 -37 26 -45 6 -6 -16 -51 -21
-60 -7 -3 5 -64 12 -136 15 -92 5 -137 11 -152 22 -16 10 -36 13 -73 9 -34 -4
-98 3 -200 22 -82 15 -172 30 -200 33 -48 6 -50 7 -53 39 -2 17 -6 32 -10 32
-16 -1 -42 -28 -42 -44 0 -18 -26 -21 -63 -7 -14 5 -71 12 -128 16 -57 3 -142
10 -189 15 -47 6 -116 10 -154 10 -51 0 -77 5 -101 20 -32 20 -34 20 -63 3
-27 -15 -35 -16 -66 -5 -20 8 -44 11 -54 8 -17 -5 -193 -19 -222 -17 -118 8
-124 9 -132 31 l-8 22 -47 -26 c-41 -23 -61 -27 -181 -33 -133 -6 -135 -6
-152 17 l-17 23 -38 -23 c-32 -20 -41 -21 -73 -12 -29 9 -51 8 -99 -3 -34 -8
-69 -12 -78 -9 -8 4 -23 0 -32 -7 -13 -11 -91 -14 -391 -16 -368 -2 -375 -1
-403 20 -28 20 -29 20 -43 2 -12 -16 -22 -17 -102 -10 -49 4 -125 10 -169 14
-73 5 -80 8 -83 29 -4 27 -13 28 -30 2 -16 -26 -48 -26 -62 0 -9 17 -14 18
-31 9 -16 -8 -26 -7 -46 6 -23 15 -26 15 -42 1 -17 -15 -19 -15 -33 5 -12 19
-17 20 -36 10 -21 -11 -69 -7 -207 19 -27 5 -90 17 -140 25 -49 9 -100 19
-112 21 -13 3 -23 12 -23 22 0 9 -10 28 -21 42 l-20 25 6 -32 c7 -33 6 -33
-33 -33 -22 0 -59 7 -82 15 -23 8 -55 15 -70 15 -15 0 -44 7 -63 15 -20 8 -48
15 -61 15 -14 0 -47 7 -73 15 -26 8 -73 22 -103 31 -30 8 -68 20 -85 26 -50
17 -74 21 -92 14 -13 -5 -7 -15 33 -54 27 -26 74 -78 104 -116 30 -38 72 -89
93 -114 22 -25 50 -64 65 -86 14 -23 31 -45 38 -51 7 -5 27 -37 44 -70 18 -33
37 -67 44 -75 17 -23 44 -81 50 -112 5 -21 12 -28 31 -28 13 0 31 -10 39 -22
18 -26 21 -89 5 -105 -6 -6 -8 -16 -5 -22 10 -16 36 -13 42 4 9 23 18 18 46
-25 22 -33 24 -41 12 -51 -8 -6 -14 -20 -14 -31 0 -15 3 -17 19 -8 25 13 51 3
51 -21 0 -10 20 -37 45 -60 43 -40 56 -71 35 -84 -17 -11 -11 -25 16 -35 20
-8 24 -14 18 -33 -13 -41 -10 -52 16 -55 18 -2 32 -16 52 -52 16 -28 28 -59
28 -70 0 -11 5 -20 10 -20 16 0 50 -38 50 -56 0 -11 -6 -14 -20 -9 -11 3 -24
4 -29 0 -13 -8 -2 -35 14 -35 7 0 16 -7 19 -16 4 -10 12 -14 22 -10 9 4 23 1
30 -5 18 -15 1 -39 -27 -39 -12 0 -19 -7 -19 -20 0 -23 21 -26 50 -8 26 17 30
10 35 -58 2 -33 4 -63 4 -67 1 -5 9 -6 20 -2 23 7 33 -14 24 -55 -4 -24 -2
-30 11 -30 25 0 31 -28 10 -51 -19 -21 -19 -22 14 -48 44 -38 42 -65 -6 -77
l-37 -10 43 -22 c48 -25 54 -47 16 -56 -37 -10 -13 -37 26 -30 35 8 44 -6 26
-42 -18 -34 -6 -61 29 -70 32 -8 31 -21 0 -54 l-25 -26 30 -23 31 -22 37 29
c69 55 433 255 500 275 9 3 78 30 152 61 74 31 140 56 147 56 7 0 27 6 45 14
57 23 102 38 143 46 41 8 86 23 143 46 18 8 43 14 57 14 13 0 36 6 52 14 15 8
74 24 130 36 80 17 106 19 123 10 31 -17 21 -44 -18 -48 -17 -2 -32 -7 -32
-13 0 -5 -9 -9 -21 -9 -15 0 -19 -5 -15 -15 5 -15 -18 -45 -34 -45 -5 0 -17
14 -25 31 -14 27 -20 30 -43 24 -15 -4 -42 -8 -59 -9 -45 -2 -62 -21 -41 -42
14 -15 18 -15 38 -1 24 17 60 12 60 -9 0 -9 -12 -14 -37 -14 -21 0 -57 -7 -80
-16 -41 -16 -44 -16 -63 1 -18 16 -20 16 -26 1 -3 -9 -13 -16 -20 -16 -8 0
-33 -17 -57 -38 -30 -27 -64 -45 -119 -62 -73 -22 -79 -22 -96 -7 -19 18 -40
21 -66 11 -23 -9 -20 -20 6 -29 20 -6 17 -8 -17 -14 -22 -4 -52 -14 -65 -24
-13 -9 -31 -17 -39 -17 -8 0 -45 -18 -83 -40 -79 -45 -93 -48 -85 -20 3 11 1
23 -5 26 -15 9 -32 -13 -34 -44 -1 -22 -10 -31 -50 -50 -27 -13 -56 -28 -64
-33 -8 -5 -21 -11 -27 -14 -33 -13 -40 -16 -68 -35 -16 -10 -55 -31 -85 -47
-61 -31 -175 -137 -165 -153 3 -5 15 -10 26 -10 23 0 24 -15 4 -53 -14 -27
-13 -29 5 -34 22 -6 24 -11 10 -33 -5 -8 -5 -19 -1 -25 14 -17 22 -83 12 -90
-6 -3 -8 -19 -4 -35 4 -23 2 -30 -11 -30 -24 0 -20 -28 10 -63 18 -21 24 -37
20 -54 -21 -81 -21 -76 7 -69 14 3 28 2 32 -4 3 -5 -6 -12 -20 -16 -30 -7 -32
-23 -5 -57 26 -33 25 -65 -1 -94 l-22 -22 22 -18 c21 -17 22 -21 9 -67 -13
-48 -13 -48 17 -72 17 -13 25 -24 19 -24 -5 0 -18 -6 -27 -13 -16 -11 -16 -15
-3 -42 11 -23 13 -40 6 -72 -7 -31 -6 -48 5 -70 19 -35 19 -43 1 -43 -19 0
-28 -28 -16 -50 13 -25 13 -63 -1 -77 -18 -18 -1 -55 22 -48 15 5 19 2 19 -14
0 -13 -6 -21 -16 -21 -14 0 -15 -7 -10 -45 6 -37 4 -45 -8 -45 -10 0 -16 -9
-16 -25 0 -20 5 -25 25 -25 20 0 25 -5 25 -25 0 -21 -5 -25 -30 -25 -39 0 -50
-25 -22 -50 29 -28 36 -57 18 -76 -21 -20 -20 -30 5 -55 17 -17 18 -23 8 -35
-10 -13 -10 -17 2 -25 12 -8 11 -11 -3 -20 -20 -11 -24 -44 -8 -54 15 -9 12
-54 -5 -71 -14 -15 -11 -44 6 -44 5 0 16 -16 24 -37 14 -33 14 -38 -1 -55 -10
-10 -23 -18 -31 -18 -17 0 -17 -27 1 -37 8 -5 16 -27 18 -53 2 -35 8 -47 25
-55 27 -12 28 -18 7 -51 -15 -22 -15 -28 -3 -50 12 -23 11 -27 -10 -43 l-24
-18 24 -32 c12 -17 26 -31 30 -31 11 0 22 -102 17 -149 -2 -18 5 -28 34 -43
32 -17 36 -22 26 -38 -9 -14 -9 -31 -1 -66 9 -39 8 -54 -3 -76 -8 -16 -12 -33
-9 -38 3 -5 1 -18 -4 -29 -16 -29 18 -39 39 -11 19 26 30 17 30 -26 0 -18 7
-39 15 -48 19 -19 19 -36 0 -36 -20 0 -19 -19 2 -27 26 -10 63 -45 57 -55 -3
-4 -13 -8 -22 -8 -16 0 -52 -32 -52 -46 0 -4 20 -3 45 0 39 6 45 5 45 -10 0
-10 7 -26 16 -36 14 -14 14 -20 4 -33 -7 -9 -8 -15 -2 -15 5 0 15 -13 20 -29
8 -22 7 -32 -5 -44 -9 -9 -13 -23 -8 -36 8 -27 25 -27 32 -1 11 42 36 14 49
-54 4 -26 21 -54 46 -80 70 -73 78 -83 78 -99 0 -9 9 -21 21 -27 16 -9 18 -14
8 -26 -12 -15 4 -42 43 -72 9 -7 18 -27 20 -45 3 -28 7 -32 33 -32 23 -1 30
-5 30 -20 0 -16 -6 -19 -33 -17 -35 4 -41 -8 -16 -29 18 -15 23 -16 74 -25 19
-3 40 -12 45 -18 6 -7 18 -15 29 -19 11 -5 16 -13 12 -23 -3 -9 3 -28 14 -44
26 -36 25 -48 -2 -52 -12 -2 -23 -9 -26 -15 -5 -18 28 -16 49 3 22 20 39 11
39 -21 0 -15 7 -26 21 -30 13 -4 18 -12 15 -22 -7 -17 12 -46 24 -38 15 9 35
-28 35 -64 0 -34 2 -36 29 -33 17 2 36 -4 48 -15 19 -17 19 -18 1 -31 -17 -13
-17 -15 9 -37 15 -13 45 -26 67 -30 39 -6 58 -25 26 -25 -8 0 -15 -6 -15 -14
0 -19 39 -46 66 -46 12 0 27 -7 34 -15 7 -8 17 -15 23 -15 6 0 23 -11 37 -25
43 -43 107 -95 117 -95 5 0 25 -16 44 -36 18 -19 48 -41 64 -48 17 -8 40 -25
53 -38 22 -24 22 -27 6 -42 -24 -24 -14 -27 46 -16 41 8 58 7 79 -5 66 -36
169 -85 179 -85 6 0 28 -9 49 -19 21 -11 65 -31 98 -46 228 -103 285 -137 285
-169 0 -13 10 -30 23 -39 20 -14 21 -17 6 -31 -14 -15 -20 -15 -75 4 -32 12
-75 26 -94 31 -19 6 -39 15 -45 20 -5 5 -17 9 -27 9 -9 0 -34 9 -55 19 -66 35
-207 91 -225 91 -17 0 -17 -2 -3 -30 9 -17 22 -30 30 -30 23 0 30 -48 11 -69
-17 -18 -21 -41 -8 -41 4 0 18 -9 32 -19 23 -18 24 -20 8 -38 -10 -10 -19 -34
-20 -53 -3 -33 -1 -35 26 -32 27 3 28 2 22 -30 -7 -36 14 -78 38 -78 8 0 16
-9 19 -20 5 -20 11 -24 59 -34 18 -4 28 -14 30 -29 2 -16 11 -23 33 -25 17 -2
44 -14 60 -27 30 -23 30 -24 10 -39 -20 -15 -20 -15 2 -16 12 0 23 4 25 10 2
5 14 11 28 12 23 3 25 0 22 -35 -3 -41 10 -48 40 -20 14 13 21 14 30 5 7 -7
24 -12 39 -12 15 0 31 -5 34 -10 10 -16 82 -50 104 -50 11 0 35 -9 53 -20 18
-11 42 -20 53 -20 11 0 37 -11 57 -25 20 -14 41 -25 47 -25 27 0 121 -45 121
-57 0 -10 6 -13 15 -9 8 3 21 9 29 12 8 3 23 -4 34 -16 17 -18 34 -23 99 -25
54 -3 91 -10 122 -26 35 -16 49 -19 62 -10 13 8 27 7 53 -4 19 -8 48 -15 63
-15 15 0 37 -7 47 -15 11 -8 32 -15 48 -15 15 0 28 -4 28 -9 0 -5 16 -19 36
-32 32 -20 37 -20 51 -6 15 14 19 14 48 -8 l31 -24 40 19 c34 17 46 18 72 9
18 -6 57 -8 89 -5 32 3 88 8 124 10 37 2 72 7 78 10 6 4 20 4 32 1 14 -5 18
-12 13 -27 -5 -16 -2 -19 13 -14 17 5 79 19 151 32 21 4 32 3 32 -5 0 -16 32
-14 56 4 24 16 62 19 151 10 37 -3 64 -2 68 4 4 7 12 7 24 -1 15 -9 22 -7 40
11 17 17 34 21 89 22 122 2 208 14 232 33 15 12 211 49 325 61 33 4 75 16 94
28 32 19 36 20 76 5 40 -15 46 -15 111 7 58 19 69 26 67 43 -2 19 1 21 47 15
45 -5 50 -4 58 17 13 35 169 92 250 92 50 0 68 4 83 19 11 11 25 19 32 18 32
-4 47 2 47 20 0 23 37 38 53 22 9 -9 8 -14 -2 -20 -23 -15 -2 -31 40 -31 36 0
39 2 39 28 0 52 42 76 158 90 43 6 56 12 71 36 25 38 75 60 91 41 31 -37 117
-24 105 16 -9 26 18 56 55 64 18 4 36 19 49 40 25 44 54 60 71 40 10 -13 15
-13 32 -1 11 8 26 25 32 38 6 12 31 36 55 52 42 28 44 28 71 12 41 -23 60 -21
60 9 0 19 8 28 35 39 19 8 35 22 35 30 0 17 30 36 56 36 21 0 74 48 74 67 0 7
9 17 20 23 11 6 20 20 20 30 0 11 5 20 10 20 6 0 10 -4 10 -10 0 -5 7 -10 15
-10 21 0 18 11 -10 39 -14 13 -25 29 -25 37 0 8 22 30 50 50 43 31 50 41 50
70 0 29 -4 34 -32 42 -42 11 -49 32 -9 32 37 0 48 15 21 30 -22 12 -26 40 -9
57 11 11 2 83 -11 83 -4 0 -20 -10 -36 -22 -59 -47 -246 -168 -259 -168 -8 0
-17 4 -20 10 -3 5 -19 7 -35 3 -42 -8 -41 24 0 39 17 5 37 23 46 39 8 16 17
29 20 29 3 0 2 -5 -1 -10 -10 -16 23 -24 40 -10 19 16 19 30 -1 30 -35 0 -6
33 46 51 30 11 57 24 58 29 2 6 26 20 52 31 27 11 51 27 54 35 3 8 15 14 27
14 12 0 23 8 26 19 3 12 15 21 32 23 22 2 26 8 26 33 0 41 12 56 38 50 26 -6
36 0 65 41 15 22 18 34 10 42 -17 17 -1 29 46 36 45 7 108 45 75 46 -8 0 -24
6 -34 14 -18 13 -17 14 12 30 19 9 33 25 35 38 2 17 10 23 28 23 21 0 26 6 30
35 4 27 17 46 50 75 25 22 46 40 48 41 2 1 -1 11 -7 22 -9 17 -4 29 37 79 26
32 56 75 66 96 11 21 37 52 57 68 20 16 40 41 44 56 3 16 26 54 51 86 24 31
44 64 44 73 0 27 68 157 115 219 62 82 81 120 104 210 12 43 29 88 40 99 28
31 51 82 51 113 0 49 55 177 89 207 11 11 21 29 21 41 0 12 3 25 7 29 4 4 9
29 10 54 0 26 12 76 25 112 14 36 30 92 37 125 6 33 25 103 42 155 16 52 29
103 29 112 0 9 4 19 9 23 6 3 13 27 16 53 4 26 10 56 15 67 5 11 19 54 30 95
26 94 40 131 56 150 6 8 15 35 19 60 4 25 13 55 21 67 8 13 12 33 9 46 -4 15
1 32 14 49 22 27 28 68 11 68 -19 0 -10 28 11 33 16 4 20 12 17 43 -2 32 0 39
17 42 35 7 39 20 12 33 -35 16 -34 35 3 48 35 12 38 26 10 41 -28 15 -25 45 6
59 14 6 24 17 21 24 -3 6 -8 20 -12 29 -5 13 0 20 18 27 14 5 28 15 32 21 10
17 -15 41 -36 35 -11 -4 -19 -2 -19 4 0 6 5 11 10 11 19 0 29 44 14 61 -17 19
-9 29 23 29 29 0 31 25 3 40 -26 14 -27 44 -1 35 32 -10 37 26 7 48 -36 26
-35 57 2 57 39 0 44 8 25 40 -10 18 -13 34 -8 46 4 11 7 29 6 41 -1 11 3 24 8
28 15 9 14 52 -1 59 -9 3 -8 9 6 20 10 8 24 17 30 19 6 2 11 34 11 79 0 60 4
80 19 97 17 19 18 22 2 45 -21 34 -20 53 4 59 27 7 25 21 -6 35 -29 14 -24 32
9 32 12 0 29 4 37 10 11 7 9 11 -13 19 -33 13 -34 19 -2 31 28 11 31 27 11 74
-10 24 -11 38 -3 52 6 10 10 51 9 90 -1 53 3 75 13 84 9 8 15 30 15 59 0 37 5
53 23 69 13 12 28 22 34 22 23 0 21 31 -3 60 -15 17 -24 36 -21 44 3 8 26 22
51 31 40 15 46 22 46 46 0 15 -5 31 -11 35 -8 5 -6 10 5 16 23 13 20 27 -9 34
-30 8 -33 30 -4 39 19 6 20 8 5 23 -14 15 -13 17 16 27 38 12 47 31 19 40 -26
8 -27 25 -2 25 23 0 38 19 24 29 -6 3 -15 16 -22 28 -14 27 4 60 48 92 l26 20
-32 11 c-38 14 -35 26 7 35 35 8 41 40 10 50 -11 3 -20 12 -20 19 0 17 33 46
53 46 23 0 31 18 16 37 -11 13 -9 19 14 39 16 13 30 34 32 46 3 12 9 26 14 31
5 5 5 23 -1 44 -12 44 -5 65 19 56 16 -6 16 -5 4 10 -11 14 -11 23 -3 42 7 14
18 25 25 25 14 0 87 68 87 81 0 16 -20 20 -26 5 -3 -9 -13 -16 -21 -16 -18 0
-16 4 27 62 19 26 43 49 53 52 14 3 17 10 12 25 -5 17 0 22 34 31 23 6 41 15
41 20 0 5 -13 19 -30 32 -36 26 -38 38 -7 38 12 0 32 3 45 6 21 6 22 8 7 24
-13 14 -13 19 -2 29 8 6 12 22 9 36 -4 22 -1 25 25 25 33 0 72 44 113 129 19
37 31 50 47 51 26 0 35 11 24 29 -15 24 20 71 52 71 18 0 26 4 21 11 -3 6 -17
8 -30 5 -17 -5 -24 -2 -24 9 0 8 8 15 18 15 10 0 28 14 41 31 18 25 20 33 10
45 -11 14 -8 15 24 9 33 -7 38 -5 47 20 6 15 19 29 30 32 26 7 25 19 -1 26
-24 6 -23 42 1 43 25 1 50 15 50 29 0 8 9 16 19 20 30 9 44 32 45 73 l1 37 49
3 c34 2 54 9 63 21 7 10 26 24 43 31 37 15 38 27 3 41 l-26 10 54 35 c30 19
72 43 94 54 57 28 100 65 91 78 -10 16 -55 15 -86 -1 -14 -8 -39 -18 -55 -25
-17 -6 -55 -20 -85 -31 -30 -12 -67 -21 -82 -21 -16 0 -37 -9 -48 -20 -11 -11
-29 -20 -40 -20 -10 0 -34 -6 -52 -14 -18 -8 -60 -22 -93 -31 -33 -9 -80 -23
-105 -31 -53 -16 -96 -18 -105 -4 -10 17 -25 11 -25 -9 0 -20 -18 -31 -52 -31
-12 0 -66 -14 -121 -31 -71 -22 -102 -28 -110 -20 -8 8 -17 5 -32 -9 -23 -22
-102 -47 -175 -57 -25 -3 -49 -9 -55 -13 -5 -5 -35 -13 -65 -19 -30 -6 -95
-20 -145 -31 -107 -25 -228 -48 -310 -59 -33 -5 -72 -12 -86 -16 -16 -4 -30
-2 -33 4 -5 7 -17 6 -39 -3 -47 -20 -122 -36 -167 -36 -33 0 -40 3 -40 20 0
23 -34 28 -47 7 -17 -29 -46 -36 -77 -20 -22 12 -34 13 -47 5 -13 -9 -25 -8
-46 3 -25 13 -29 13 -39 -1 -16 -20 -74 -25 -404 -29 -266 -3 -276 -3 -291 17
-15 20 -15 20 -58 -3 -33 -17 -48 -20 -60 -12 -12 8 -22 7 -36 -3 -10 -8 -32
-13 -49 -13 -75 2 -193 -9 -211 -18 -11 -6 -56 -14 -100 -18 -44 -4 -89 -14
-100 -21 -11 -8 -45 -14 -77 -14 -31 0 -60 -4 -63 -10 -10 -16 -75 -12 -75 4
0 28 -22 28 -46 2 -14 -14 -31 -26 -38 -26 -8 0 -27 -7 -42 -15 -16 -8 -41
-15 -55 -15 -15 0 -40 -7 -55 -15 -16 -8 -39 -15 -52 -15 -12 0 -30 -4 -40 -9
-9 -4 -51 -18 -92 -30 -41 -12 -88 -27 -105 -33 -16 -5 -46 -13 -65 -18 -77
-17 -137 -34 -167 -46 -17 -8 -42 -14 -55 -14 -12 0 -32 -7 -42 -15 -11 -8
-37 -15 -57 -15 -21 0 -40 -4 -43 -9 -4 -5 -38 -15 -77 -21 -92 -16 -119 -6
-119 45 0 40 13 44 50 15 29 -22 50 -11 50 26 0 20 5 24 33 24 17 0 41 7 51
15 29 22 56 19 56 -5 0 -13 7 -20 20 -20 13 0 20 7 20 20 0 26 38 50 85 53 22
1 47 10 58 20 10 10 28 17 40 15 18 -2 21 -9 19 -30 -2 -16 -1 -28 3 -28 16 0
65 46 65 61 0 30 58 40 80 14 17 -21 42 -19 63 5 9 11 26 20 36 20 11 0 24 6
28 13 12 19 82 37 146 37 47 0 57 3 62 20 9 30 40 43 66 29 19 -9 25 -7 43 16
20 25 23 26 35 11 13 -15 16 -15 40 1 40 26 100 34 141 17 33 -14 35 -14 53
11 21 28 37 33 37 11 0 -24 20 -29 40 -11 14 13 41 19 94 21 48 2 84 9 100 19
19 13 37 15 81 10 50 -7 59 -5 80 15 20 19 32 22 66 17 24 -3 49 -1 60 6 14 8
27 8 52 -1 18 -7 45 -12 58 -12 14 0 29 -4 34 -9 6 -4 25 -11 42 -14 26 -5 35
-2 44 14 9 18 17 20 57 14 26 -4 51 -11 57 -16 15 -15 41 -10 60 11 13 14 22
17 29 10 5 -5 40 -10 77 -10 37 0 71 -4 74 -10 11 -18 42 -10 53 14 9 21 18
25 52 24 22 0 43 -4 46 -9 9 -15 54 -10 60 6 4 8 17 15 29 15 13 0 36 5 50 10
15 6 32 7 38 3 13 -9 33 -11 166 -18 67 -3 103 0 127 10 20 8 36 10 39 4 10
-15 53 -10 63 8 7 12 17 14 41 10 23 -5 35 -2 48 12 24 24 71 35 89 20 11 -9
21 -9 37 -1 49 23 105 40 152 47 28 4 65 13 82 21 21 10 46 13 68 8 23 -4 35
-2 35 5 0 8 20 11 60 9 36 -1 65 3 72 10 7 7 29 12 50 12 25 0 41 5 44 15 8
20 43 19 65 -1 17 -16 19 -15 28 9 12 31 39 40 117 39 54 -1 63 1 67 19 4 15
11 19 25 15 14 -5 29 1 48 19 24 22 29 24 43 11 15 -14 18 -13 30 5 11 19 14
20 30 5 26 -24 59 -20 63 7 4 31 62 37 80 8 17 -28 38 -26 38 3 0 13 6 28 13
33 26 19 127 54 137 48 6 -4 21 2 33 13 12 11 47 25 77 33 30 7 64 21 76 31
11 10 35 18 54 18 19 0 53 13 82 30 33 20 57 29 70 25 11 -4 34 -1 51 6 42 16
42 16 29 32 -9 10 -3 17 26 31 20 10 44 22 52 27 128 73 168 109 198 180 14
32 17 51 10 62 -10 18 -4 23 37 29 14 2 20 11 20 28 0 23 -3 25 -41 23 -39 -1
-42 1 -48 28 -9 47 -145 219 -172 219 -7 0 -19 8 -26 18 -7 11 -44 29 -83 41
-38 12 -104 37 -145 55 -41 19 -88 39 -103 45 -15 6 -26 15 -23 19 2 4 1 14
-4 22 -7 12 -10 12 -16 -3 -8 -21 -43 -22 -70 -2 -10 8 -33 15 -49 15 -17 0
-39 6 -50 14 -11 7 -36 16 -55 19 -19 3 -57 11 -85 17 -27 6 -85 11 -127 11
-61 1 -78 4 -78 15 0 9 11 14 34 14 48 0 55 17 11 26 -29 5 -40 2 -55 -14 -16
-17 -29 -19 -112 -16 -68 2 -99 -1 -115 -12 -47 -30 -131 -14 -145 28 -3 9
-42 15 -129 20 -68 3 -159 12 -202 18 -66 11 -80 16 -97 40 -27 38 -65 43
-120 15 -29 -15 -52 -20 -65 -15 -11 4 -62 5 -113 3 -111 -6 -140 0 -152 30
l-9 22 -6 -22 c-9 -28 -31 -36 -58 -22 -12 7 -84 14 -162 16 -197 5 -205 7
-205 43 0 16 -4 31 -9 35 -11 6 -82 -33 -94 -52 -14 -23 -27 -4 -16 24 6 17 6
30 0 36 -16 16 -39 0 -46 -32 -7 -34 -19 -40 -29 -15 -4 9 -13 13 -24 10 -10
-4 -40 5 -68 19 -33 17 -65 25 -100 25 -59 0 -67 -5 -51 -31 9 -14 9 -21 -1
-31 -17 -17 -46 1 -50 31 -5 29 -48 29 -55 0 -5 -20 -10 -21 -59 -14 -29 4
-93 9 -141 11 -49 1 -104 8 -122 14 -27 9 -43 8 -70 -1 -27 -10 -38 -10 -47
-1 -9 9 -9 15 0 24 35 35 -8 52 -54 21 -22 -14 -31 -15 -59 -4 -24 8 -45 9
-76 2 -56 -13 -82 -14 -74 -1 3 6 15 10 26 10 24 0 26 29 2 31 -87 7 -106 5
-111 -13 -5 -21 -13 -23 -30 -6 -10 10 -20 8 -46 -6 -27 -14 -43 -16 -71 -10
-40 10 -48 26 -15 34 12 3 21 10 21 15 -1 17 -47 17 -61 1 -16 -20 -49 -20
-70 -1 -23 21 -53 9 -44 -18 5 -16 3 -19 -11 -14 -9 4 -21 7 -26 7 -5 0 -9 6
-9 14 0 16 -21 26 -57 26 -20 0 -24 -4 -18 -17 3 -10 7 -22 8 -27 3 -11 -88
-35 -134 -36 -22 0 -47 8 -61 20 -21 16 -31 18 -59 10 -60 -18 -79 -12 -126
35 -45 47 -88 59 -99 30z m66 -39 c0 -34 -14 -39 -41 -16 -21 17 -22 21 -9 30
28 18 50 12 50 -14z m-3480 -581 c0 -8 -4 -15 -10 -15 -5 0 -10 7 -10 15 0 8
5 15 10 15 6 0 10 -7 10 -15z m-3940 -545 c0 -5 -7 -10 -15 -10 -8 0 -15 5
-15 10 0 6 7 10 15 10 8 0 15 -4 15 -10z m8911 -2047 c41 -13 50 -13 81 0 22
9 41 11 49 6 8 -5 37 -9 65 -9 36 0 59 -6 77 -20 28 -23 48 -25 64 -9 7 7 27
9 50 6 143 -21 179 -28 207 -36 17 -5 63 -17 101 -26 77 -18 274 -94 345 -133
125 -68 179 -104 185 -121 3 -10 15 -21 25 -24 14 -3 20 -14 20 -31 0 -31 -4
-32 -58 -6 -23 11 -52 25 -65 30 -12 6 -29 14 -37 19 -18 11 -191 93 -240 113
-103 44 -213 78 -251 78 -13 0 -55 6 -94 14 -38 8 -132 24 -208 34 -76 11
-141 23 -144 26 -4 3 2 12 12 20 14 10 15 15 5 21 -8 5 -17 2 -24 -6 -20 -25
-73 -38 -113 -27 -20 5 -52 7 -72 4 -20 -3 -76 -8 -126 -11 -49 -2 -131 -7
-181 -11 -60 -4 -98 -3 -112 5 -14 7 -23 8 -27 1 -7 -12 -72 -13 -79 -2 -3 5
0 26 7 48 l12 40 40 -9 c85 -18 115 -19 132 -6 42 36 268 50 354 22z m-591
-28 c0 -9 7 -18 15 -22 14 -5 14 -7 0 -23 -15 -17 -15 -19 2 -28 27 -16 10
-24 -64 -31 -38 -4 -79 -13 -92 -20 -13 -7 -37 -11 -55 -8 -17 3 -58 -3 -91
-13 -122 -38 -168 -50 -185 -50 -10 0 -45 -13 -78 -30 -34 -16 -70 -30 -81
-30 -11 0 -23 -4 -26 -10 -3 -5 -18 -10 -32 -10 -13 0 -36 -9 -50 -20 -14 -11
-31 -20 -39 -20 -7 0 -25 -7 -41 -14 -15 -8 -35 -18 -43 -21 -8 -3 -28 -14
-45 -25 -16 -11 -34 -22 -40 -24 -5 -2 -17 -7 -25 -10 -8 -3 -28 -15 -45 -26
-16 -10 -50 -29 -75 -42 -41 -21 -91 -56 -131 -93 -21 -20 -74 -19 -104 1 -32
21 -31 32 1 45 26 9 26 10 8 30 -17 19 -17 20 3 25 12 3 24 12 27 20 6 16 46
19 46 4 0 -5 -11 -12 -25 -16 -16 -4 -25 -13 -25 -25 0 -26 26 -24 53 5 12 13
37 32 56 42 57 32 65 38 103 73 21 19 40 42 43 52 4 11 15 19 28 19 21 -1 21
-1 3 -15 -19 -14 -14 -35 9 -35 7 0 32 11 56 25 34 19 40 25 26 31 -25 9 -21
20 13 34 28 11 33 10 55 -10 27 -25 32 -21 37 35 3 27 7 31 50 38 36 7 54 5
79 -7 39 -19 43 -17 29 19 -6 15 -9 28 -8 29 66 34 103 46 143 46 27 0 56 6
64 14 16 14 107 42 277 85 56 15 54 16 54 -24 0 -19 4 -35 10 -35 14 0 32 39
24 51 -9 16 15 29 54 29 22 0 32 -5 32 -15z m-4656 -417 c28 0 57 -5 63 -10 8
-6 26 -7 45 -3 45 11 209 9 288 -2 106 -16 324 -81 364 -109 11 -8 29 -14 39
-14 10 0 31 -6 45 -14 15 -7 47 -24 72 -36 66 -33 110 -69 120 -96 6 -14 18
-24 30 -24 26 0 110 -81 110 -107 0 -30 -27 -48 -74 -49 -63 -3 -77 4 -70 31
4 18 0 26 -18 36 -12 7 -29 20 -36 30 -7 10 -27 19 -45 21 -42 4 -42 22 0 26
29 3 63 35 51 48 -6 5 -37 7 -87 6 -35 -2 -42 -5 -37 -18 5 -12 2 -15 -10 -10
-9 3 -27 9 -40 12 -19 5 -22 9 -14 25 9 16 6 20 -17 25 -16 4 -39 12 -53 19
-45 22 -127 45 -159 45 -32 0 -41 16 -19 38 9 9 8 12 -6 12 -9 0 -24 -7 -32
-15 -21 -21 -51 -19 -64 5 -11 21 -39 26 -56 11 -5 -5 -22 -10 -39 -11 -67 -4
-96 1 -112 20 -19 22 -62 27 -80 9 -6 -6 -33 -12 -59 -14 -27 -1 -76 -6 -109
-10 -46 -5 -67 -3 -90 9 -26 13 -31 14 -45 1 -10 -9 -37 -15 -69 -15 -45 0
-52 3 -49 18 2 10 12 17 26 16 19 0 22 5 22 35 0 27 -3 32 -12 23 -7 -7 -25
-12 -40 -12 -29 0 -33 -9 -29 -56 1 -18 -5 -23 -36 -26 -42 -5 -79 7 -107 35
-17 17 -20 17 -34 3 -14 -14 -18 -14 -32 -1 -15 14 -20 13 -43 -6 -22 -17 -25
-24 -17 -40 15 -26 -12 -36 -43 -17 -12 8 -39 18 -59 21 -32 5 -38 3 -38 -13
0 -11 -10 -20 -25 -24 -28 -7 -65 8 -65 27 0 7 -3 22 -6 34 -4 15 0 24 15 32
28 15 234 42 269 35 19 -4 32 -1 41 10 11 13 36 16 127 16 69 0 114 4 114 10
0 14 53 13 67 -1 8 -8 17 -7 35 5 15 11 33 14 52 10 16 -3 52 -6 80 -6z m-924
-209 c0 -5 -7 -9 -15 -9 -15 0 -20 12 -9 23 8 8 24 -1 24 -14z m2188 -296 c30
-47 66 -123 92 -193 18 -51 41 -181 37 -209 -3 -13 2 -35 9 -50 16 -31 18 -77
4 -86 -7 -4 -8 -11 -2 -18 11 -13 9 -202 -1 -227 -8 -18 -29 -171 -31 -217 -2
-42 -33 -78 -55 -60 -8 6 -4 -3 9 -22 l24 -34 -22 -15 c-17 -11 -19 -18 -12
-32 7 -13 6 -28 -2 -47 -6 -15 -14 -50 -18 -78 -7 -49 -15 -85 -47 -210 -20
-77 -52 -127 -75 -119 -10 3 -18 1 -18 -5 0 -6 6 -11 14 -11 21 0 28 -16 17
-37 -6 -10 -19 -45 -30 -78 -11 -33 -30 -85 -41 -115 -12 -30 -25 -67 -30 -82
-5 -15 -27 -65 -49 -111 -36 -74 -61 -147 -50 -147 3 0 29 9 59 20 79 30 324
76 455 86 39 3 85 12 103 21 19 8 42 13 52 10 11 -3 52 -1 92 3 40 5 78 5 83
0 13 -11 91 -5 107 7 20 16 109 25 123 13 7 -6 11 -19 8 -29 -6 -23 14 -64 28
-56 5 4 9 24 9 46 0 41 8 46 41 29 20 -11 26 -54 10 -78 -10 -17 -267 -27
-276 -12 -9 14 -42 13 -47 -2 -2 -6 -20 -12 -40 -12 -20 -1 -42 -7 -50 -14 -8
-6 -32 -11 -54 -10 -21 1 -61 -4 -89 -10 -41 -8 -51 -8 -58 4 -12 21 -50 17
-65 -6 -10 -17 -19 -19 -57 -13 -33 4 -50 2 -63 -10 -9 -8 -46 -18 -82 -22
-36 -4 -76 -12 -89 -16 -34 -14 -147 -32 -216 -35 -33 -2 -79 -6 -101 -10 -24
-3 -44 -2 -48 4 -3 5 4 28 17 51 15 28 29 41 44 41 12 0 29 8 39 18 17 16 17
17 -9 20 -32 4 -33 12 -10 55 9 18 16 42 14 54 -1 11 3 24 8 28 6 3 11 15 11
26 0 10 4 27 9 37 6 9 26 51 45 93 24 52 42 78 57 82 17 5 19 9 10 25 -13 25
6 90 32 104 15 8 18 16 12 45 -3 19 -2 40 3 46 5 7 13 38 16 69 4 31 14 62 22
69 8 6 14 26 14 43 0 31 20 100 33 112 4 4 13 1 22 -6 12 -10 15 -10 15 3 0 9
-8 20 -17 26 -28 15 -5 61 42 88 l40 22 -33 12 c-25 8 -30 14 -22 24 6 7 8 29
4 53 -4 25 -2 42 5 46 6 4 11 25 11 46 0 31 6 43 31 63 27 21 30 27 20 46 -7
11 -16 21 -21 21 -21 0 -9 29 13 32 16 2 23 11 25 31 3 23 0 27 -23 27 -34 0
-31 33 3 38 18 3 21 8 17 23 -5 15 -1 22 15 26 30 8 21 36 -17 48 -18 6 -35
14 -40 18 -10 11 16 27 44 27 28 0 34 11 27 50 -6 26 -11 31 -28 26 -31 -8
-42 4 -49 49 -5 28 -2 44 9 56 12 14 13 18 0 28 -8 6 -12 20 -9 31 3 13 -5 28
-23 45 -29 25 -29 25 -9 41 11 9 36 23 55 32 28 13 31 16 16 20 -11 2 -37 -2
-58 -9 -44 -14 -58 -7 -40 22 11 18 10 23 -13 40 -37 30 -55 49 -55 60 0 13
14 11 28 -3 9 -9 15 -9 24 0 20 20 -18 50 -66 54 -45 3 -52 21 -10 26 14 2 40
12 57 22 18 10 37 19 43 19 7 1 26 -20 42 -46z m4609 -164 c24 -11 43 -25 43
-29 0 -12 -97 -96 -129 -110 -14 -7 -37 -18 -51 -25 -32 -17 -60 -3 -60 28 0
13 -6 29 -12 35 -9 9 -9 15 -2 20 5 4 27 20 47 36 31 24 40 26 52 16 22 -18
44 2 26 24 -9 11 -9 15 1 19 24 10 42 7 85 -14z m-2432 -160 c17 -10 41 -24
55 -29 39 -17 193 -90 214 -102 11 -6 31 -14 45 -18 14 -5 56 -20 92 -33 36
-14 94 -28 130 -32 35 -4 73 -11 85 -15 46 -18 432 -12 636 9 83 8 124 9 137
1 25 -13 88 -13 96 0 3 6 13 10 21 10 8 0 27 9 42 20 39 28 82 37 82 16 0 -25
26 -19 63 14 31 27 38 29 85 23 47 -5 50 -4 46 14 -8 29 31 37 69 15 27 -16
29 -16 42 1 7 10 29 21 49 24 20 3 39 10 42 14 3 5 15 9 26 9 11 0 27 8 34 17
10 15 17 16 43 7 27 -11 30 -10 33 10 2 13 10 21 23 21 15 0 20 -7 20 -29 0
-25 -7 -33 -55 -58 -30 -15 -62 -28 -72 -28 -9 0 -32 -9 -50 -20 -77 -45 -425
-142 -578 -161 -217 -27 -246 -29 -267 -20 -15 7 -24 6 -32 -3 -17 -21 -508
-9 -534 13 -7 5 -29 8 -48 5 -19 -3 -59 2 -89 11 -30 9 -71 20 -90 24 -44 11
-87 29 -230 98 -143 70 -230 136 -230 175 0 23 26 22 65 -3z m-2687 -227 c2
-8 -8 -12 -27 -12 -21 0 -31 -5 -31 -15 0 -19 40 -20 66 0 29 22 64 19 64 -5
0 -64 -291 -206 -655 -320 -105 -33 -508 -71 -550 -52 -11 5 -29 6 -40 1 -41
-16 -375 -2 -485 20 -186 39 -261 61 -383 114 -86 38 -106 47 -197 92 -188 93
-237 170 -76 119 57 -19 50 -16 172 -77 127 -64 151 -74 224 -96 141 -42 244
-63 286 -58 27 3 54 -1 71 -10 21 -11 78 -14 258 -14 126 0 241 4 255 9 14 5
68 13 120 17 52 4 163 21 245 37 145 29 186 37 288 56 26 5 53 14 59 20 7 7
22 12 34 12 29 0 39 16 24 35 -10 13 -8 15 12 15 13 0 29 -5 36 -12 9 -9 12
-8 12 5 0 9 -5 17 -12 17 -25 0 8 19 45 25 24 5 37 4 37 -4 0 -15 30 -14 32 2
1 6 2 23 2 36 1 18 11 27 46 42 48 19 62 19 68 1z m1614 -1498 c15 -9 8 -30
-16 -53 -19 -18 -37 -23 -86 -25 -56 -2 -63 1 -70 20 -14 37 -1 62 34 67 34 5
125 -1 138 -9z m-996 -774 c15 -6 22 -15 18 -25 -4 -10 0 -15 10 -15 9 0 16 5
16 10 0 30 127 -3 252 -67 14 -7 32 -13 39 -13 7 0 20 -6 28 -14 14 -12 113
-28 256 -41 52 -5 137 17 166 41 8 8 20 14 25 14 5 0 21 6 36 14 15 8 40 17
57 21 16 3 35 13 42 21 8 10 22 13 40 9 27 -6 48 8 29 20 -19 12 -10 35 13 35
42 0 67 -12 67 -32 0 -13 6 -18 18 -16 9 2 17 10 17 18 0 33 139 37 166 4 8
-10 21 -13 41 -9 16 4 34 2 41 -3 7 -6 39 -20 72 -32 63 -22 126 -47 160 -61
74 -32 187 -62 285 -77 37 -6 45 -11 45 -29 0 -33 12 -38 42 -17 55 36 241 6
308 -50 49 -41 40 -56 -33 -56 -92 0 -132 10 -132 31 0 22 -12 24 -39 7 -15
-9 -35 -8 -92 5 -41 9 -93 19 -116 22 -24 4 -45 11 -49 16 -3 5 -17 9 -32 9
-15 0 -47 7 -72 15 -136 44 -170 56 -220 76 -69 27 -278 89 -302 89 -9 0 -20
5 -24 11 -4 8 -9 8 -17 0 -6 -6 -22 -11 -37 -11 -14 0 -69 -15 -123 -34 -54
-19 -107 -31 -118 -29 -13 4 -29 -3 -45 -18 -15 -14 -35 -23 -49 -21 -16 2
-25 -3 -30 -17 -7 -23 -44 -28 -63 -9 -9 9 -16 8 -29 -4 -25 -22 -82 -27 -198
-16 -68 6 -104 13 -111 23 -6 8 -16 15 -23 15 -6 0 -11 9 -11 19 0 28 -18 36
-40 16 -17 -16 -21 -15 -57 3 -55 29 -103 42 -185 51 -75 8 -197 -3 -231 -20
-14 -8 -104 -38 -114 -39 -2 0 -3 9 -3 20 0 32 -29 23 -51 -15 -12 -19 -24
-36 -27 -36 -27 -6 -104 -3 -108 3 -9 14 -21 8 -32 -17 -8 -17 -20 -25 -37
-25 -14 0 -38 -6 -53 -13 -15 -8 -52 -19 -82 -25 -30 -6 -91 -19 -135 -28
-146 -31 -483 -40 -526 -13 -11 7 -10 11 6 23 18 14 18 15 3 16 -10 0 -18 -5
-18 -11 0 -17 -62 -6 -74 14 -16 26 9 39 69 33 63 -7 56 -7 146 0 46 4 84 2
96 -5 11 -5 24 -6 29 -2 5 5 29 11 54 14 65 7 205 33 275 51 53 14 61 14 71 1
17 -22 37 -19 29 5 -5 17 -2 20 22 19 15 0 37 -4 48 -8 24 -10 55 -3 55 13 0
6 16 11 35 12 19 0 43 8 53 17 10 9 30 17 45 17 14 0 29 5 32 10 3 6 37 10 75
10 55 0 71 3 79 18 9 16 11 16 41 -1 17 -10 38 -16 47 -13 14 6 12 11 -13 37
-23 24 -26 32 -14 39 19 11 135 11 166 0z m-280 -580 c38 -23 76 -45 84 -50
29 -19 86 -42 150 -62 36 -11 81 -26 100 -34 19 -7 44 -14 54 -16 30 -5 30
-25 -1 -37 -26 -10 -25 -10 12 -5 119 16 133 16 159 -2 20 -13 32 -14 49 -7
14 7 85 8 192 4 94 -4 190 -5 215 -3 25 2 74 4 110 5 36 2 70 6 75 9 6 3 29
11 53 18 33 8 47 8 58 -1 17 -14 67 -3 61 14 -2 7 -20 12 -40 11 -20 -1 -34 3
-31 7 7 13 71 11 96 -2 16 -9 24 -7 42 10 12 12 27 21 33 21 7 0 14 8 18 18 7
22 163 112 194 112 20 0 22 -3 13 -12 -7 -7 -12 -18 -12 -25 0 -18 37 -16 44
2 7 20 55 19 63 -2 4 -11 -5 -25 -29 -44 -44 -36 -145 -89 -168 -89 -10 0 -38
-11 -62 -25 -63 -35 -262 -95 -315 -95 -13 0 -45 -7 -71 -15 -39 -13 -86 -15
-257 -11 -116 2 -221 4 -235 4 -14 0 -34 0 -45 0 -50 1 -244 51 -269 71 -6 4
-22 11 -36 14 -14 3 -50 15 -80 27 -30 12 -66 24 -80 27 -14 3 -34 12 -45 19
-11 8 -26 14 -33 14 -8 0 -33 15 -55 33 -23 17 -50 37 -61 42 -47 24 -72 95
-33 95 7 0 44 -18 83 -40z m3539 -1640 c-3 -5 -13 -10 -21 -10 -8 0 -12 5 -9
10 3 6 13 10 21 10 8 0 12 -4 9 -10z m-272 -134 l29 -23 -39 -22 c-21 -13 -45
-26 -53 -31 -52 -31 -280 -140 -292 -140 -8 0 -18 -4 -23 -9 -15 -13 -162 -74
-230 -95 -33 -10 -75 -25 -93 -32 -18 -8 -39 -14 -47 -14 -8 0 -29 -6 -47 -14
-55 -23 -130 -44 -177 -49 -37 -5 -44 -3 -48 14 -3 11 -9 19 -12 17 -4 -2 -45
-22 -91 -45 -47 -23 -113 -49 -147 -59 -59 -16 -64 -16 -81 0 -18 15 -20 15
-37 -4 -10 -11 -31 -20 -47 -20 -15 0 -36 -4 -46 -9 -30 -16 -128 -41 -158
-41 -16 0 -45 -4 -64 -9 -19 -5 -71 -12 -115 -16 -44 -3 -106 -8 -137 -11 -67
-5 -77 10 -28 38 17 10 38 31 48 47 16 28 21 30 92 34 92 6 129 14 155 37 27
24 50 30 120 31 32 1 73 7 90 13 37 15 80 13 99 -3 18 -15 36 -6 36 18 0 14
10 20 38 24 20 3 45 8 55 12 12 5 17 2 17 -9 0 -21 46 -21 54 0 5 14 15 15 56
10 43 -6 50 -4 60 14 9 17 17 20 47 14 29 -5 39 -3 50 12 20 27 83 28 104 1
11 -14 22 -18 35 -13 18 7 18 8 -1 22 -26 20 -10 45 36 56 19 5 43 13 54 18
22 11 102 37 152 50 24 6 36 4 44 -6 15 -18 29 -18 29 1 0 22 24 29 50 15 29
-15 49 2 30 25 -11 13 -8 15 21 15 19 0 42 8 54 20 29 27 85 38 85 17 0 -9 -4
-19 -10 -22 -13 -8 -13 -25 0 -25 6 0 22 8 36 17 25 16 25 17 8 30 -16 12 -17
15 -4 24 8 5 34 7 57 4 36 -5 43 -3 54 17 7 13 12 24 11 26 -8 11 2 22 22 22
13 0 26 7 30 15 8 22 37 18 69 -9z m-4233 -307 c0 -36 2 -40 15 -29 8 7 15 23
15 36 0 28 8 30 36 9 11 -9 42 -14 77 -15 52 0 58 -2 67 -25 6 -17 17 -25 32
-25 40 1 119 -17 130 -28 7 -7 24 -12 38 -12 15 0 55 -9 90 -21 37 -12 76 -18
92 -15 34 7 58 -1 58 -19 0 -21 17 -27 39 -14 15 10 24 9 45 -5 18 -11 37 -15
59 -11 19 4 50 0 77 -10 43 -15 45 -15 60 5 l16 22 36 -21 c19 -12 50 -21 69
-20 19 1 59 -2 89 -6 30 -3 134 -9 230 -11 207 -5 278 -9 307 -18 16 -5 25 -2
32 12 9 17 18 19 78 14 38 -2 71 -9 74 -15 4 -5 19 -7 35 -3 16 4 63 9 104 10
41 2 108 8 149 15 41 6 76 9 79 6 11 -11 -29 -41 -72 -54 -51 -15 -60 -35 -20
-45 14 -4 24 -12 21 -19 -8 -24 -282 -29 -777 -12 -161 6 -323 16 -331 21 -5
3 -49 7 -97 9 -49 2 -109 8 -133 14 -24 5 -89 17 -144 26 -55 9 -120 21 -145
27 -25 6 -67 14 -95 18 -61 9 -137 30 -229 64 -38 14 -77 26 -87 26 -10 0 -30
5 -45 10 -26 10 -26 11 -8 26 18 14 15 15 -32 10 -55 -7 -120 13 -131 39 -8
21 22 63 49 68 47 9 48 8 48 -34z"/>
<path d="M10106 8743 c-11 -11 -6 -23 9 -23 8 0 15 4 15 9 0 13 -16 22 -24 14z"/>
<path d="M10162 8739 c2 -6 8 -10 13 -10 5 0 11 4 13 10 2 6 -4 11 -13 11 -9
0 -15 -5 -13 -11z"/>
<path d="M8485 8650 c-8 -13 9 -20 24 -11 10 6 9 10 -3 14 -8 3 -18 2 -21 -3z"/>
<path d="M7965 8370 c3 -5 13 -10 21 -10 8 0 14 5 14 10 0 6 -9 10 -21 10 -11
0 -17 -4 -14 -10z"/>
<path d="M4710 8310 c-6 -11 -18 -20 -28 -21 -14 0 -13 -2 4 -11 17 -8 28 -6
48 7 14 10 26 24 26 31 0 21 -38 17 -50 -6z"/>
<path d="M5700 7460 c-23 -15 3 -34 35 -26 22 6 25 9 15 21 -14 17 -29 19 -50
5z"/>
<path d="M5568 6493 c-5 -36 7 -58 24 -47 9 6 11 46 2 68 -10 27 -22 18 -26
-21z"/>
<path d="M5510 6166 c0 -9 7 -16 16 -16 9 0 14 5 12 12 -6 18 -28 21 -28 4z"/>
<path d="M5424 6029 c-3 -6 -2 -15 4 -21 7 -7 14 -3 21 11 10 17 9 21 -3 21
-8 0 -18 -5 -22 -11z"/>
<path d="M3470 7000 c0 -5 7 -10 15 -10 8 0 15 5 15 10 0 6 -7 10 -15 10 -8 0
-15 -4 -15 -10z"/>
<path d="M7095 4400 c-18 -19 -18 -20 3 -20 25 0 34 11 23 28 -5 9 -12 7 -26
-8z"/>
<path d="M7745 2321 c-3 -6 2 -14 12 -20 20 -11 57 4 48 20 -8 12 -52 12 -60
0z"/>
<path d="M7237 2233 c-14 -14 -6 -23 21 -23 39 0 73 11 66 21 -6 10 -77 12
-87 2z"/>
<path d="M7150 2200 c-12 -8 -9 -10 13 -10 16 0 26 4 22 10 -8 12 -16 12 -35
0z"/>
<path d="M6292 2143 c-20 -8 -3 -23 28 -23 33 0 48 15 24 24 -18 7 -33 7 -52
-1z"/>
<path d="M8297 12044 c-8 -8 1 -24 14 -24 5 0 9 7 9 15 0 15 -12 20 -23 9z"/>
<path d="M8245 12019 c-4 -6 -5 -13 -2 -16 7 -7 27 6 27 18 0 12 -17 12 -25
-2z"/>
<path d="M7387 11989 c-22 -13 -13 -29 18 -29 29 0 43 19 24 31 -17 11 -20 11
-42 -2z"/>
<path d="M9227 11983 c-12 -11 -8 -23 8 -23 8 0 15 7 15 15 0 16 -12 20 -23 8z"/>
<path d="M7200 11954 c0 -19 5 -24 25 -24 32 0 32 22 0 37 -23 10 -25 9 -25
-13z"/>
<path d="M6954 11958 c-12 -18 16 -32 59 -29 28 2 19 15 -18 27 -22 7 -38 8
-41 2z"/>
<path d="M9624 11949 c-3 -6 -2 -15 2 -19 12 -12 38 5 30 19 -9 14 -23 14 -32
0z"/>
<path d="M6890 11940 c0 -5 7 -10 15 -10 8 0 15 5 15 10 0 6 -7 10 -15 10 -8
0 -15 -4 -15 -10z"/>
<path d="M10437 11924 c-15 -15 -6 -24 24 -24 20 0 29 4 27 13 -5 14 -40 21
-51 11z"/>
<path d="M10792 11883 c-22 -4 -22 -6 12 -24 49 -26 96 -26 96 1 0 11 -6 20
-14 20 -7 0 -26 2 -42 4 -16 2 -40 2 -52 -1z"/>
<path d="M6307 11873 c-13 -12 -7 -23 13 -23 11 0 20 7 20 15 0 15 -21 21 -33
8z"/>
<path d="M11487 11864 c-12 -13 -8 -52 7 -57 27 -11 35 17 13 47 -7 9 -16 14
-20 10z"/>
<path d="M12407 11684 c-20 -20 39 -33 78 -18 13 5 14 8 3 15 -15 10 -72 12
-81 3z"/>
<path d="M5216 11622 c-3 -6 -1 -14 5 -17 15 -10 25 3 12 16 -7 7 -13 7 -17 1z"/>
<path d="M973 11113 c-18 -6 -16 -23 1 -23 17 0 30 16 19 23 -5 2 -14 2 -20 0z"/>
<path d="M12875 10710 c3 -5 12 -10 20 -10 8 0 17 5 20 10 4 6 -5 10 -20 10
-15 0 -24 -4 -20 -10z"/>
<path d="M12698 10648 c9 -9 15 -9 24 0 9 9 7 12 -12 12 -19 0 -21 -3 -12 -12z"/>
<path d="M12826 10612 c-3 -6 -1 -14 5 -17 15 -10 25 3 12 16 -7 7 -13 7 -17
1z"/>
<path d="M12400 10555 c0 -9 6 -12 15 -9 8 4 15 10 15 15 0 5 -7 9 -15 9 -8 0
-15 -7 -15 -15z"/>
<path d="M12127 10484 c-14 -14 -7 -25 13 -22 12 2 21 8 21 13 0 12 -24 18
-34 9z"/>
<path d="M1010 9960 c0 -5 7 -10 15 -10 8 0 15 5 15 10 0 6 -7 10 -15 10 -8 0
-15 -4 -15 -10z"/>
<path d="M1557 9883 c-3 -5 -2 -15 2 -22 7 -10 10 -10 16 -1 4 6 3 16 -3 22
-5 5 -12 6 -15 1z"/>
<path d="M2540 9755 c0 -9 5 -15 11 -13 6 2 11 8 11 13 0 5 -5 11 -11 13 -6 2
-11 -4 -11 -13z"/>
<path d="M3852 9758 c5 -15 28 -18 29 -3 0 6 -7 12 -17 13 -10 3 -15 -1 -12
-10z"/>
<path d="M5182 9758 c6 -18 28 -21 28 -4 0 9 -7 16 -16 16 -9 0 -14 -5 -12
-12z"/>
<path d="M7435 9669 c-10 -15 1 -23 20 -15 9 3 13 10 10 16 -8 13 -22 13 -30
-1z"/>
<path d="M925 9660 c-7 -12 2 -30 16 -30 12 0 12 27 0 35 -5 3 -12 1 -16 -5z"/>
<path d="M971 9601 c-13 -23 -1 -34 24 -25 18 7 17 35 -2 41 -6 2 -16 -5 -22
-16z"/>
<path d="M6580 9611 c0 -13 26 -32 33 -24 14 13 6 33 -13 33 -11 0 -20 -4 -20
-9z"/>
<path d="M2497 7934 c-16 -16 -5 -25 26 -22 17 2 31 8 30 13 -3 12 -46 19 -56
9z"/>
<path d="M2298 7813 c-15 -2 -36 -15 -47 -29 -10 -13 -28 -24 -39 -24 -11 0
-27 -11 -36 -25 -22 -34 -3 -34 55 0 24 14 49 25 56 25 17 0 64 45 56 53 -3 4
-9 6 -12 6 -3 -1 -18 -4 -33 -6z"/>
<path d="M2155 4750 c-8 -13 20 -24 36 -15 8 6 7 10 -2 16 -18 11 -26 11 -34
-1z"/>
<path d="M2225 4530 c3 -5 13 -10 21 -10 8 0 14 5 14 10 0 6 -9 10 -21 10 -11
0 -17 -4 -14 -10z"/>
<path d="M2426 4073 c-12 -12 -6 -33 9 -33 8 0 15 6 15 14 0 17 -14 28 -24 19z"/>
<path d="M9288 2989 c-18 -10 -25 -39 -10 -39 17 1 34 19 30 33 -2 12 -7 13
-20 6z"/>
<path d="M3980 2558 c0 -7 4 -19 9 -27 12 -19 43 -6 39 16 -4 21 -48 31 -48
11z"/>
</g>
</svg>
