<?xml version="1.0" encoding="utf-8"?>
<svg xmlns="http://www.w3.org/2000/svg" viewBox="0 0 500 500">
  <path style="stroke: rgb(0, 0, 0); stroke-width: 0px; fill: rgba(209, 231, 191, 0.8); transform-box: fill-box; transform-origin: 50% 50%;" d="M -33.859 405.891 C -73.967 383.995 -40.299 99.67 -1.782 62.472 C 36.589 25.415 125.942 52.516 184.223 109.894 C 270.118 194.458 247.127 122.635 359.03 199.924 C 483.237 285.711 363.179 388.636 333.154 407.319 C 240.169 465.18 -36.515 515.147 -8.817 451.807"/>
  <path style="stroke: rgb(0, 0, 0); stroke-width: 0px; fill: rgba(209, 231, 191, 0.8); transform-origin: 391.19px 227.411px;" d="M 162.345 67.676 C -14.679 16.965 190.606 470.505 275.747 437.451 C 429.304 377.836 356.148 281.935 339.764 273.688 C 226.036 216.444 351.555 65.171 431.363 182.529 C 511.351 300.151 596.942 251.378 617.461 139.29 C 647.545 -25.047 290.116 -212.122 266.076 19.877" transform="matrix(-1, 0, 0, -1, 0, 0)"/>
</svg>