 <svg  version="1.0" xmlns="http://www.w3.org/2000/svg"  width="300.000000pt" height="300.000000pt" viewBox="0 0 300.000000 300.000000"  preserveAspectRatio="xMidYMid meet">  <g transform="translate(0.000000,300.000000) scale(0.050000,-0.050000)" fill="#e6fbf1" stroke="none"> <path d="M2110 5961 c-33 -8 -80 -25 -105 -38 -24 -13 -146 -37 -271 -52 -295 -37 -421 -92 -403 -177 50 -225 -12 -482 -164 -680 -108 -141 -161 -241 -180 -334 -19 -98 37 -51 70 58 13 42 65 130 116 195 50 64 117 172 148 238 60 130 124 169 277 169 85 0 194 56 165 85 -15 15 -29 15 -50 -2 -15 -13 -67 -28 -116 -33 -48 -5 -114 -17 -147 -27 l-60 -17 -2 196 -2 197 102 38 c56 21 174 45 262 52 88 8 210 31 270 51 61 20 135 42 166 49 31 7 50 21 44 32 -14 21 -33 21 -120 0z"/> <path d="M4603 5646 c-34 -67 -39 -70 -51 -32 -52 164 -331 -102 -332 -317 0 -167 82 -146 230 60 l110 152 0 -76 c0 -57 14 -90 58 -135 62 -61 79 -65 275 -59 144 5 187 -33 188 -168 0 -71 4 -77 26 -47 95 125 -38 256 -260 256 -253 0 -319 115 -197 345 41 75 45 95 21 95 -17 0 -47 -33 -68 -74z m-88 -82 c-2 -30 -11 -63 -20 -74 -25 -32 -121 -158 -164 -216 -80 -107 -96 1 -24 157 79 169 218 258 208 133z"/> <path d="M3916 5625 c-75 -88 -60 -153 60 -257 86 -75 64 -136 -73 -206 -98 -50 -142 -29 -93 45 29 44 30 53 6 53 -45 0 -89 -95 -63 -136 43 -67 231 -13 294 84 51 78 40 123 -47 192 -58 46 -80 78 -80 118 0 96 74 132 144 69 49 -45 72 -17 26 33 -45 49 -134 52 -174 5z"/> <path d="M3573 5505 c-111 -56 -179 -319 -94 -364 94 -51 221 108 221 278 0 98 -43 128 -127 86z m87 -80 c-1 -76 -68 -217 -116 -243 -99 -53 -93 117 9 237 64 77 107 79 107 6z"/> <path d="M2879 5401 c-100 -95 -92 -91 -105 -41 -17 66 -47 45 -38 -27 4 -38 -6 -95 -24 -129 -59 -115 -26 -148 37 -39 83 142 215 278 243 249 4 -3 -11 -64 -32 -135 -58 -190 -45 -215 39 -79 55 89 195 233 211 217 5 -6 -3 -55 -20 -109 -32 -108 -38 -181 -15 -195 26 -15 250 203 235 228 -10 15 -49 -10 -112 -73 -109 -107 -112 -105 -65 43 57 182 0 222 -132 90 l-80 -80 5 74 c6 104 -42 106 -147 6z"/> <path d="M2185 5427 c-14 -6 -25 -24 -25 -41 0 -29 4 -29 95 8 13 5 35 -14 48 -43 24 -53 23 -68 -37 -326 -20 -87 27 -44 73 66 51 124 156 238 256 280 36 15 65 36 65 48 0 55 -119 1 -218 -99 -78 -79 -82 -81 -82 -34 0 98 -94 173 -175 141z"/> <path d="M1876 5325 c-60 -66 -96 -164 -96 -266 0 -187 207 -151 291 50 79 189 -68 352 -195 216z m141 -3 c75 -47 0 -285 -101 -320 -102 -36 -129 41 -65 193 53 126 105 166 166 127z"/> <path d="M4580 4978 c-63 -26 -160 -117 -160 -152 0 -34 -19 -33 -111 6 -241 100 -429 -98 -311 -328 56 -109 56 -146 5 -230 -32 -50 -43 -91 -35 -124 11 -43 1 -54 -77 -90 -141 -64 -180 -207 -82 -299 27 -25 52 -74 55 -108 6 -66 29 -82 234 -166 158 -65 181 -139 92 -299 -69 -124 -64 -188 30 -343 51 -84 80 -157 80 -199 l0 -67 -105 13 c-58 7 -106 14 -106 16 -128 227 -163 355 -119 432 54 94 38 147 -75 250 -58 52 -134 122 -169 155 -150 138 -191 441 -87 630 36 67 48 105 32 105 -53 0 -139 -203 -139 -330 0 -211 52 -316 257 -514 l180 -175 -27 -65 c-47 -110 -38 -235 22 -326 81 -124 92 -179 33 -163 -26 7 -80 13 -120 13 -76 0 -241 225 -207 280 7 11 -2 20 -19 20 -44 0 -22 -85 52 -198 69 -107 72 -103 -64 -89 -102 11 -112 17 -144 84 -19 40 -58 115 -87 166 -50 90 -51 98 -26 210 31 143 28 230 -14 310 -40 79 -52 65 -26 -32 12 -42 16 -118 8 -169 -30 -207 -23 -291 31 -364 45 -60 99 -164 99 -189 0 -38 -179 -4 -191 36 -8 25 -45 95 -82 157 -96 156 -104 229 -39 365 73 155 69 252 -19 430 -90 182 -99 240 -64 408 29 141 19 174 -24 80 -62 -134 -52 -292 29 -460 96 -197 106 -312 38 -440 -70 -132 -62 -204 42 -396 114 -209 116 -201 -54 -217 -135 -12 -148 -10 -182 32 -126 157 -154 206 -154 270 0 41 -8 63 -20 56 -51 -31 -19 -147 70 -257 50 -61 90 -115 90 -120 0 -8 -179 -53 -209 -53 -4 0 -41 52 -83 114 -105 158 -108 280 -10 416 69 97 111 270 65 270 -13 0 -23 -25 -23 -55 0 -30 -34 -108 -75 -175 -107 -174 -107 -314 1 -468 88 -126 79 -141 -78 -142 -108 0 -150 28 -177 115 -8 25 -22 45 -33 45 -10 0 -5 -33 12 -73 37 -89 41 -86 -74 -73 -128 15 -207 150 -149 252 40 69 24 103 -20 44 -53 -73 -53 -125 0 -219 l50 -91 -53 0 c-30 0 -85 -5 -124 -11 -148 -24 -199 142 -89 287 107 139 59 299 -125 424 -53 36 -79 71 -89 120 -18 90 -76 135 -193 150 -379 47 -495 121 -376 240 42 41 69 50 162 50 131 0 190 25 190 81 0 32 14 39 81 39 300 0 469 399 268 637 -133 159 -426 192 -583 68 -83 -66 -153 -83 -177 -43 -8 12 -49 18 -96 13 -52 -5 -119 5 -179 28 -462 178 -832 -411 -380 -605 105 -45 122 -81 73 -151 -93 -131 -107 -162 -107 -243 0 -214 155 -304 450 -260 31 5 41 -7 46 -49 10 -87 96 -141 204 -127 356 46 432 33 525 -91 72 -95 83 -172 38 -257 -82 -155 -68 -242 56 -346 54 -45 57 -53 24 -63 -20 -6 -61 -37 -91 -69 -65 -68 -64 -71 92 -277 205 -269 275 -493 276 -875 1 -354 197 -756 401 -820 23 -7 40 -40 49 -88 34 -205 580 -289 1002 -154 193 62 387 182 390 241 3 80 15 109 67 165 142 149 262 434 321 758 114 627 164 747 414 988 105 102 119 157 56 220 -25 25 -40 67 -40 111 0 81 -43 175 -113 251 -93 100 -85 177 31 306 170 187 106 348 -199 502 -168 86 -115 211 97 226 l121 9 90 -93 c49 -50 105 -92 125 -92 19 0 76 -19 125 -43 126 -61 235 -26 291 95 27 58 58 89 103 106 80 29 119 113 102 220 -12 74 -10 79 52 101 268 93 385 375 250 604 -136 233 -331 280 -512 125 l-82 -71 -71 54 c-128 98 -309 135 -430 87z m295 -49 c262 -109 310 -403 100 -604 -207 -199 -505 -98 -387 131 87 168 275 180 215 14 -35 -96 -14 -114 29 -24 93 194 -119 255 -251 72 -126 -174 -51 -338 154 -338 267 0 464 260 396 524 -53 205 238 338 407 186 240 -217 175 -552 -130 -669 -74 -29 -96 -47 -92 -74 4 -21 12 -61 17 -90 15 -73 -24 -135 -104 -169 -44 -18 -73 -46 -81 -78 -31 -125 -170 -179 -283 -110 -36 22 -81 40 -98 40 -18 0 -77 42 -131 92 l-99 92 -129 -8 c-210 -13 -301 -172 -152 -265 207 -129 254 -167 290 -236 45 -88 27 -157 -60 -238 -123 -115 -131 -229 -25 -361 79 -98 137 -276 90 -276 -125 0 -211 47 -211 117 0 50 -25 113 -80 203 -94 152 -98 196 -29 313 102 175 56 296 -139 359 -147 47 -192 80 -192 141 0 31 -21 72 -51 100 -90 83 -64 184 61 247 92 46 100 56 102 123 1 41 22 101 48 137 l46 65 -45 102 c-132 297 -8 444 279 335 l101 -39 28 68 c56 134 240 187 406 118z m-3237 -348 c186 -99 231 -372 89 -541 -152 -180 -478 -161 -560 33 -68 163 75 326 182 208 54 -60 26 -109 -54 -94 -61 11 -62 10 -26 -17 112 -86 203 40 102 141 -110 109 -271 25 -271 -141 0 -104 104 -235 214 -271 116 -39 80 -87 -74 -99 -186 -15 -259 -61 -260 -162 0 -99 100 -153 355 -188 199 -28 247 -53 255 -133 3 -26 6 -53 7 -60 2 -7 48 -45 102 -84 186 -134 218 -241 111 -375 -82 -104 -88 -167 -22 -263 l48 -71 -52 -23 c-64 -29 -134 16 -193 123 l-38 71 56 111 c149 296 -182 571 -537 445 -115 -42 -200 1 -215 109 -7 49 -10 50 -190 50 -208 0 -251 22 -289 149 -25 84 2 220 53 262 114 94 96 194 -42 239 -140 46 -231 204 -190 328 65 197 338 303 547 214 61 -26 115 -35 169 -28 48 6 85 2 94 -12 25 -41 115 -22 195 42 116 91 303 107 434 37z m1642 -2107 c0 -58 -18 -154 -40 -214 -49 -134 -53 -183 -13 -139 48 51 93 222 93 353 l0 126 88 0 88 0 13 -95 c13 -94 -21 -238 -71 -298 -12 -14 -18 -37 -13 -51 27 -82 125 155 124 300 l-1 148 106 -8 c58 -5 111 -14 117 -21 20 -19 -29 -167 -73 -223 -47 -59 -38 -93 13 -51 49 41 90 132 93 209 3 76 32 86 172 58 l60 -12 -30 -73 c-17 -40 -61 -111 -98 -157 -76 -93 -63 -135 16 -50 55 59 105 143 135 229 21 57 74 70 176 42 60 -16 57 -55 -15 -194 -34 -65 -49 -113 -35 -108 35 11 134 195 135 251 0 38 9 44 55 36 30 -5 69 -10 85 -11 83 -5 85 -34 8 -143 -42 -60 -78 -111 -80 -114 -17 -27 -264 -69 -491 -84 -167 -11 -330 -35 -420 -61 -219 -64 -432 -79 -669 -47 -112 14 -274 24 -360 21 l-158 -5 6 101 c5 78 -5 122 -44 196 -56 105 -51 110 83 83 70 -14 128 -118 136 -243 2 -41 12 -73 22 -71 32 8 29 81 -8 191 l-37 110 121 11 c81 8 125 3 136 -12 29 -46 58 -182 50 -238 -5 -37 1 -56 18 -56 41 0 34 178 -10 265 l-38 73 110 23 c90 19 113 18 127 -4 23 -36 23 -271 -1 -352 -11 -40 -11 -69 1 -76 36 -23 61 105 55 285 l-7 184 120 17 c151 22 150 23 150 -101z m-1068 -91 c20 -40 39 -125 44 -188 l9 -115 -103 0 c-99 0 -102 2 -102 57 0 85 -39 186 -96 247 -55 60 -47 69 66 80 109 11 146 -5 182 -81z m2428 15 c0 -23 -30 -52 -79 -78 -119 -60 -127 -50 -46 59 75 101 125 108 125 19z m-2657 -104 c22 -44 37 -106 33 -143 l-6 -66 -177 37 c-123 24 -193 50 -227 82 l-49 46 75 65 c92 80 109 81 186 3 56 -55 71 -93 67 -174 0 -14 8 -23 19 -19 10 3 18 13 18 21 -1 7 -2 37 -2 66 0 32 -25 77 -67 119 -64 64 -65 67 -25 85 52 24 100 -14 155 -122z m2478 -99 c-160 -163 -241 -368 -310 -785 -77 -461 -175 -695 -378 -898 -111 -111 -128 -135 -87 -125 122 31 72 -60 -75 -138 -407 -214 -1029 -223 -1164 -17 -45 69 -33 71 103 24 257 -89 712 -68 966 45 116 51 99 68 -28 29 -543 -167 -1008 -100 -1265 181 -191 209 -231 340 -249 825 l-8 206 72 36 c230 114 592 153 705 76 113 -77 121 -211 28 -477 l-48 -141 43 12 c24 7 110 18 190 25 80 7 150 21 156 30 13 22 -160 21 -256 -1 l-74 -17 40 102 c140 363 16 572 -325 547 -203 -15 -307 -40 -441 -107 -113 -56 -116 -57 -116 -12 -1 56 -93 239 -191 380 -50 72 -77 125 -60 118 125 -48 397 -76 611 -64 161 9 311 4 500 -19 302 -36 390 -30 650 43 125 35 262 56 450 67 195 12 314 30 430 66 208 64 205 64 131 -11z"/> <path d="M3625 1839 c-125 -22 -318 -114 -292 -140 10 -10 71 10 143 45 153 76 422 91 538 30 80 -42 120 -45 89 -7 -52 62 -310 101 -478 72z"/> <path d="M3854 1536 c-109 -59 -313 -72 -415 -26 -44 20 -85 30 -92 23 -37 -36 183 -98 307 -86 127 12 289 69 315 111 21 34 -30 24 -115 -22z"/> <path d="M2120 1462 c0 -107 544 -109 610 -2 18 29 -13 25 -102 -12 -47 -20 -134 -32 -219 -32 -92 0 -165 11 -205 32 -71 37 -84 39 -84 14z"/> <path d="M2740 909 c-49 -15 -124 -29 -166 -29 -46 0 -71 -8 -64 -20 18 -29 128 -24 247 11 86 26 117 27 173 6 54 -19 83 -19 145 1 65 22 92 21 179 -8 90 -29 247 -36 166 -6 -99 35 -240 63 -300 58 -142 -10 -191 -9 -240 3 -27 7 -90 0 -140 -16z"/> <path d="M2781 773 c97 -91 424 -88 454 3 11 32 -19 30 -88 -6 -73 -38 -208 -38 -300 0 -89 37 -104 38 -66 3z"/> <path d="M2490 4880 c-54 -29 -138 -48 -256 -59 -173 -15 -268 -53 -289 -117 -13 -37 31 -28 97 20 86 64 353 82 321 22 -11 -22 -26 -88 -33 -148 -21 -184 -29 -201 -159 -336 -131 -137 -184 -216 -160 -239 7 -7 28 10 45 37 17 28 79 97 138 154 123 119 185 240 186 362 1 205 135 321 335 293 76 -11 90 -9 71 11 -44 47 -208 47 -296 0z"/> <path d="M3510 4740 c-13 -41 -50 -56 -50 -20 0 106 -194 -5 -249 -143 -67 -167 24 -233 158 -115 39 34 71 52 71 40 0 -40 79 -102 129 -102 27 0 68 -20 90 -44 22 -23 47 -37 54 -29 21 20 -75 113 -118 113 -125 0 -148 95 -55 230 71 103 72 110 21 110 -21 0 -44 -18 -51 -40z m-73 -78 c11 -81 -138 -238 -194 -204 -59 36 98 278 165 256 12 -4 25 -27 29 -52z"/> <path d="M2840 4694 c-128 -103 -178 -253 -109 -323 37 -36 131 -41 163 -9 12 12 51 28 87 35 52 11 59 18 37 37 -22 17 -47 13 -108 -16 -104 -51 -158 -43 -166 24 -6 49 0 53 94 64 166 20 254 114 178 190 -31 31 -137 30 -176 -2z m160 -44 c0 -34 -67 -80 -144 -98 -78 -18 -85 17 -15 76 68 57 159 70 159 22z"/> <path d="M3394 4122 c-59 -128 -76 -322 -29 -322 17 0 25 34 25 105 0 67 16 139 45 200 48 100 55 135 29 135 -9 0 -40 -53 -70 -118z"/> <path d="M2650 4176 c9 -34 -9 -89 -59 -182 -92 -175 -96 -282 -13 -404 32 -48 64 -105 71 -128 15 -46 51 -57 51 -16 0 14 -28 71 -63 125 -94 149 -96 218 -8 396 73 148 85 232 35 248 -18 6 -22 -5 -14 -39z"/> <path d="M2841 4068 c-85 -204 -85 -258 7 -466 90 -205 93 -288 13 -393 -33 -44 -60 -90 -60 -104 -2 -51 37 -22 99 76 80 123 77 243 -9 428 -78 168 -85 247 -32 392 59 161 44 217 -18 67z"/> <path d="M2370 4100 c-7 -23 -60 -97 -117 -166 -187 -223 -189 -298 -13 -487 161 -173 180 -294 80 -517 -64 -142 -71 -170 -42 -170 10 0 46 67 80 149 104 250 83 382 -96 579 -145 159 -141 220 26 422 93 112 140 203 113 220 -10 6 -24 -8 -31 -30z"/> <path d="M1900 3901 c0 -11 -41 -66 -92 -123 -139 -157 -112 -246 130 -430 184 -140 242 -257 182 -368 -25 -47 6 -70 40 -30 82 98 19 238 -185 411 -237 202 -256 271 -115 409 75 73 106 150 60 150 -11 0 -20 -9 -20 -19z"/> <path d="M3360 3655 c1 -84 76 -212 194 -330 121 -123 143 -178 106 -274 -23 -61 8 -70 39 -12 50 92 26 157 -110 302 -129 138 -189 238 -189 318 0 23 -9 41 -20 41 -11 0 -20 -20 -20 -45z"/> </g> </svg> 