<?xml version="1.0" standalone="no"?>
<!DOCTYPE svg PUBLIC "-//W3C//DTD SVG 20010904//EN"
 "http://www.w3.org/TR/2001/REC-SVG-20010904/DTD/svg10.dtd">
<svg version="1.0" xmlns="http://www.w3.org/2000/svg"
 width="300.000000pt" height="300.000000pt" viewBox="0 0 300.000000 300.000000"
 preserveAspectRatio="xMidYMid meet">
<metadata>
Created by potrace 1.10, written by Peter Selinger 2001-2011
</metadata>
<g transform="translate(0.000000,300.000000) scale(0.100000,-0.100000)"
fill="#695651" stroke="none">
<path d="M1045 2973 c-11 -3 -38 -11 -60 -18 -23 -7 -72 -16 -110 -20 -83 -8
-94 -10 -163 -37 l-52 -21 7 -36 c12 -58 6 -162 -11 -211 -9 -24 -45 -87 -80
-140 -35 -52 -67 -106 -71 -120 -3 -14 -9 -34 -12 -45 -5 -17 -4 -18 11 -6 9
7 16 20 16 28 0 23 29 74 77 136 25 32 53 80 63 105 20 55 45 70 130 82 68 10
107 27 92 42 -7 7 -18 5 -34 -6 -13 -8 -46 -18 -73 -20 -28 -3 -60 -8 -71 -11
-21 -7 -22 -5 -12 38 6 29 6 64 0 97 l-10 52 46 20 c25 11 91 26 147 34 56 7
120 20 141 27 22 8 55 19 74 25 35 10 35 10 5 10 -16 0 -39 -2 -50 -5z"/>
<path d="M2301 2823 c-19 -35 -21 -36 -27 -16 -15 53 -74 30 -121 -49 -37 -62
-48 -98 -39 -133 10 -38 40 -31 82 19 58 70 79 106 61 106 -8 0 -17 -6 -20
-13 -11 -29 -90 -126 -98 -121 -28 17 19 134 70 177 40 34 55 34 49 2 -3 -14
1 -30 8 -36 8 -6 14 -26 14 -45 0 -20 9 -43 24 -61 23 -26 30 -28 114 -31 108
-5 127 -18 123 -83 -1 -26 2 -38 9 -34 5 3 10 24 10 45 0 31 -6 43 -32 65 -25
22 -40 26 -82 25 -90 -3 -106 0 -126 20 -27 27 -27 103 0 148 22 36 25 52 10
52 -5 0 -18 -17 -29 -37z"/>
<path d="M1962 2814 c-34 -24 -30 -78 9 -115 17 -16 35 -29 40 -29 16 0 9 -36
-11 -58 -27 -29 -91 -55 -103 -43 -5 5 -2 19 8 35 14 22 15 26 3 26 -22 0 -40
-47 -28 -70 8 -15 15 -17 50 -9 52 12 84 33 98 65 18 38 16 43 -33 88 -25 24
-45 48 -45 55 0 6 11 23 25 37 24 24 27 25 50 10 34 -22 45 -19 16 4 -28 24
-49 25 -79 4z"/>
<path d="M1782 2750 c-25 -11 -62 -87 -62 -129 0 -15 9 -36 20 -46 18 -17 21
-17 46 0 56 37 86 177 39 182 -11 1 -30 -2 -43 -7z m47 -62 c-17 -73 -65 -123
-89 -93 -18 22 12 97 52 130 38 32 49 20 37 -37z"/>
<path d="M1474 2725 c-17 -7 -42 -28 -55 -46 -23 -33 -23 -33 -29 -9 -3 13
-11 25 -19 28 -10 3 -11 0 -3 -14 12 -24 8 -49 -14 -90 -10 -18 -14 -37 -10
-41 5 -4 11 -2 14 5 9 26 97 135 121 151 24 16 24 15 17 -14 -5 -17 -10 -41
-12 -54 -3 -13 -9 -32 -14 -42 -6 -10 -10 -22 -10 -28 0 -21 16 -10 34 23 20
37 116 136 116 120 0 -6 -7 -33 -15 -60 -18 -59 -19 -94 -4 -94 12 0 111 87
117 102 5 10 -25 10 -30 1 -2 -5 -22 -26 -45 -47 l-42 -39 14 47 c8 26 17 51
21 57 10 16 -5 59 -20 59 -8 0 -36 -24 -62 -52 -26 -29 -44 -44 -40 -33 14 37
18 73 9 78 -4 3 -22 -1 -39 -8z"/>
<path d="M1091 2707 c-15 -19 -2 -28 22 -15 43 23 63 -64 32 -139 -17 -40 -19
-63 -7 -63 5 0 14 17 21 38 21 62 75 127 125 152 25 12 46 26 46 31 0 24 -74
-14 -117 -61 l-38 -40 -1 35 c-1 57 -54 97 -83 62z"/>
<path d="M951 2674 c-50 -36 -79 -155 -45 -188 19 -20 37 -20 74 -1 37 19 63
68 64 122 1 64 -47 99 -93 67z m53 -10 c8 -3 18 -21 22 -40 13 -70 -77 -167
-112 -119 -19 25 4 102 44 148 16 19 22 20 46 11z"/>
<path d="M2293 2489 c-29 -8 -76 -52 -85 -80 -3 -8 -18 -7 -53 5 -61 21 -117
13 -151 -20 -33 -33 -32 -88 3 -158 l27 -55 -28 -41 c-20 -30 -26 -49 -21 -68
5 -24 1 -29 -40 -46 -25 -10 -50 -26 -55 -36 -17 -32 -9 -88 17 -112 13 -12
23 -33 23 -50 0 -32 19 -47 96 -73 104 -36 120 -72 72 -160 -37 -69 -34 -102
16 -175 27 -39 36 -63 36 -92 0 -40 0 -40 -31 -34 -17 3 -44 6 -60 6 -24 0
-29 4 -29 24 0 13 -11 40 -25 61 -36 52 -41 88 -20 135 24 53 14 81 -47 132
-84 70 -106 96 -128 154 -35 95 -27 184 22 257 11 15 15 27 9 27 -6 0 -23 -19
-38 -42 -22 -34 -28 -58 -31 -115 -7 -117 33 -199 131 -272 76 -56 85 -77 61
-146 l-18 -56 39 -74 c22 -40 38 -76 35 -78 -11 -9 -130 6 -130 17 0 6 -12 29
-26 50 -15 21 -30 50 -34 65 l-8 26 -1 -27 c-1 -15 12 -49 29 -74 16 -26 29
-49 27 -50 -1 -2 -28 0 -60 3 -36 4 -57 10 -57 18 0 7 -16 37 -36 66 -40 59
-43 80 -29 200 6 52 4 72 -10 98 -20 40 -29 36 -14 -8 7 -20 9 -55 5 -89 -15
-121 -15 -128 10 -168 12 -22 32 -56 44 -76 l20 -38 -47 0 -48 0 -48 93 c-26
50 -47 105 -47 120 0 15 11 50 25 77 36 71 33 118 -15 215 -42 84 -47 113 -29
195 16 74 5 85 -16 15 -23 -79 -15 -135 30 -221 33 -62 36 -75 33 -127 -3 -36
-10 -62 -19 -68 -8 -5 -11 -9 -6 -9 4 0 0 -11 -9 -25 -22 -34 -12 -94 29 -165
18 -30 37 -67 43 -81 l12 -26 -76 -7 -77 -6 -33 37 c-47 54 -72 106 -65 133 4
16 3 21 -5 16 -15 -9 -15 -51 -1 -79 7 -12 30 -43 51 -69 22 -27 36 -48 31
-49 -27 -3 -66 -11 -86 -18 -20 -8 -27 -1 -65 58 -39 59 -43 71 -39 112 2 30
16 66 40 105 36 57 50 124 27 124 -5 0 -10 -15 -10 -33 0 -20 -13 -51 -35 -84
-59 -88 -57 -145 7 -241 16 -23 26 -47 23 -52 -3 -6 -35 -10 -69 -10 l-64 0
-20 43 c-14 28 -21 35 -22 22 0 -11 8 -31 17 -44 l16 -24 -33 6 c-18 4 -43 7
-55 7 -18 0 -29 11 -45 46 -20 40 -21 49 -9 72 7 15 15 30 17 35 2 4 0 7 -5 7
-5 0 -16 -13 -26 -29 -18 -31 -12 -72 18 -117 15 -23 15 -24 -12 -24 -16 0
-44 -3 -64 -6 -33 -6 -38 -3 -58 29 -28 46 -27 70 7 109 38 44 44 63 32 108
-9 35 -69 102 -114 127 -9 5 -18 23 -20 39 -2 16 -4 32 -5 36 -3 18 -71 41
-141 49 -120 13 -172 46 -155 97 8 27 48 42 110 42 55 0 85 16 85 46 0 9 11
14 35 14 144 0 231 175 150 301 -53 82 -204 117 -276 64 -63 -46 -77 -50 -115
-36 -19 7 -47 10 -62 6 -18 -4 -44 1 -73 14 -54 25 -100 26 -158 2 -49 -20
-118 -81 -132 -118 -26 -69 15 -145 100 -183 27 -13 52 -29 55 -36 3 -7 -10
-32 -29 -55 -19 -22 -35 -46 -36 -52 -9 -111 -10 -106 24 -143 37 -41 108 -61
153 -44 46 18 61 13 68 -24 9 -47 46 -70 100 -62 166 25 204 19 256 -40 40
-46 48 -94 23 -137 -43 -72 -36 -118 27 -171 18 -14 27 -26 21 -26 -5 0 -26
-16 -47 -35 l-36 -35 17 -27 c10 -15 22 -32 27 -38 120 -151 157 -238 164
-385 9 -206 13 -237 33 -290 25 -65 97 -160 150 -198 26 -18 41 -38 47 -62 8
-30 18 -40 77 -69 61 -31 79 -35 170 -39 84 -4 119 0 192 18 124 31 255 96
255 128 0 16 -17 15 -23 -2 -12 -30 -197 -108 -287 -120 -131 -18 -207 -10
-307 34 -46 19 -75 51 -61 66 3 2 31 -5 64 -17 126 -44 349 -35 478 21 60 25
56 36 -5 15 -186 -67 -401 -60 -551 16 -82 42 -171 164 -196 269 -6 25 -13
107 -16 183 l-4 139 61 28 c34 15 74 30 90 34 15 3 27 11 27 16 0 6 -2 10 -3
10 -14 0 -127 -44 -153 -59 l-32 -19 -7 36 c-8 43 -33 92 -92 180 -23 34 -40
62 -38 62 2 0 32 -8 67 -17 49 -14 99 -17 228 -16 91 1 212 -4 270 -11 132
-16 201 -12 320 21 64 17 139 28 230 34 118 7 215 25 295 55 15 6 10 -4 -18
-37 -55 -64 -55 -63 -81 -121 -30 -67 -50 -144 -72 -278 -27 -169 -74 -300
-139 -387 -30 -40 -70 -80 -88 -89 -19 -11 -27 -19 -19 -22 8 -2 19 1 25 7 14
14 30 15 22 1 -3 -6 -1 -10 4 -10 6 0 11 7 11 16 0 9 17 36 38 60 80 90 133
227 166 429 38 229 81 325 192 432 30 28 54 60 54 70 -1 22 -23 53 -39 53 -8
0 -10 8 -6 21 12 36 -4 86 -45 141 -22 29 -40 64 -40 78 0 27 34 90 49 90 5 0
19 14 31 30 44 62 0 141 -116 206 -49 27 -64 41 -64 58 0 31 31 57 77 65 55
10 93 -3 138 -49 22 -23 48 -40 61 -40 13 0 26 -4 29 -10 3 -5 24 -14 46 -20
56 -15 106 10 127 62 10 25 23 40 39 44 50 13 79 86 53 134 -9 17 -5 20 28 30
51 13 128 81 142 126 21 63 14 132 -17 183 -29 47 -79 87 -120 97 -35 9 -88
-4 -115 -29 -56 -51 -54 -51 -92 -22 -61 47 -144 64 -213 44z m167 -37 c90
-46 120 -145 72 -238 -34 -66 -83 -98 -160 -103 -85 -5 -118 52 -72 126 28 47
63 67 90 53 22 -12 22 -14 5 -80 -6 -24 -6 -25 10 -5 36 45 25 95 -26 108 -45
12 -119 -74 -119 -139 0 -46 47 -84 103 -84 77 1 170 64 196 133 14 37 14 120
0 151 -11 22 -8 28 21 53 49 42 71 52 111 53 72 0 144 -81 154 -175 9 -89 -60
-177 -157 -203 -33 -9 -35 -12 -22 -65 10 -41 -12 -85 -47 -92 -21 -5 -33 -17
-47 -48 -10 -23 -30 -48 -45 -56 -30 -16 -89 -8 -107 14 -7 8 -22 15 -33 15
-11 0 -42 20 -68 45 -45 42 -52 45 -101 45 -67 0 -113 -26 -123 -70 -7 -31 14
-70 37 -70 22 0 120 -73 138 -102 29 -48 25 -73 -19 -121 -21 -23 -43 -52 -50
-65 -17 -33 -4 -85 32 -125 36 -40 39 -46 45 -104 l4 -42 -29 9 c-15 5 -40 12
-54 15 -23 4 -27 11 -31 49 -3 26 -18 62 -37 90 -46 66 -50 104 -17 162 15 27
26 62 26 85 0 47 -23 67 -120 104 -67 26 -70 28 -70 60 0 24 -7 37 -26 49 -21
15 -25 23 -22 59 3 39 6 44 56 70 45 25 51 31 46 52 -4 16 3 39 21 69 l27 46
-26 56 c-39 85 -35 134 15 159 38 20 85 18 136 -5 l42 -19 7 22 c8 28 43 67
69 77 43 18 112 11 165 -18z m-1650 -158 c60 -30 100 -97 100 -168 0 -45 -36
-108 -79 -138 -33 -24 -50 -28 -103 -28 -76 0 -120 23 -145 75 -14 28 -14 41
-5 73 16 52 51 69 86 41 14 -11 26 -30 26 -41 0 -18 -4 -20 -37 -15 -35 6 -36
5 -19 -8 23 -18 31 -18 57 -5 26 14 24 42 -6 74 -48 52 -115 23 -129 -56 -11
-61 39 -130 106 -149 34 -9 37 -12 28 -29 -8 -15 -22 -20 -58 -21 -100 -1
-160 -47 -134 -104 15 -33 66 -55 157 -66 125 -17 145 -28 145 -79 0 -22 10
-35 50 -64 98 -71 111 -132 44 -205 -31 -33 -30 -69 1 -111 26 -35 24 -43 -11
-54 -27 -8 -76 30 -94 73 -11 26 -9 37 15 87 33 69 28 108 -18 161 -61 69
-146 89 -246 56 -50 -16 -53 -16 -79 4 -15 11 -29 33 -32 49 l-5 29 -92 0
c-88 0 -94 1 -120 28 -24 23 -28 36 -28 81 0 45 5 61 33 99 45 63 42 81 -16
111 -27 14 -64 41 -82 62 -29 33 -32 42 -27 81 13 114 168 186 285 133 27 -12
53 -18 69 -14 14 4 42 1 64 -6 38 -13 41 -12 85 19 25 18 57 37 72 41 33 10
109 1 142 -16z m832 -1059 c-1 -33 -12 -86 -23 -118 -26 -73 -17 -88 13 -21
13 31 23 77 26 127 l5 77 43 0 43 0 6 -44 c7 -45 -15 -139 -36 -151 -5 -4 -9
-14 -9 -23 1 -29 47 37 59 84 6 23 8 63 5 88 l-7 46 56 0 c31 0 59 -5 62 -11
10 -16 -14 -95 -37 -119 -25 -27 -15 -40 12 -15 21 19 43 75 43 111 0 23 3 24
58 24 33 0 59 -2 59 -4 0 -18 -44 -100 -69 -129 -18 -19 -27 -38 -22 -41 19
-12 101 110 101 150 0 14 8 16 56 11 31 -3 59 -8 62 -11 3 -3 -11 -37 -31 -76
-20 -38 -32 -70 -26 -70 14 0 48 59 61 108 13 46 18 47 83 31 l43 -11 -33 -46
c-19 -26 -41 -54 -48 -63 -20 -23 -142 -47 -272 -53 -60 -2 -129 -12 -152 -20
-24 -8 -43 -13 -43 -11 0 2 -17 -2 -37 -9 -65 -23 -171 -27 -293 -12 -71 9
-165 12 -246 9 l-131 -4 4 25 c7 33 -13 90 -44 126 -28 33 -26 35 48 45 45 6
48 4 67 -27 22 -36 35 -88 34 -130 0 -16 4 -28 10 -28 19 0 2 116 -22 155
l-22 36 48 -3 c46 -3 50 -5 67 -42 11 -22 20 -56 22 -75 1 -20 6 -36 11 -36
13 0 5 75 -12 109 -8 16 -13 30 -12 31 2 1 31 5 65 8 l63 7 15 -36 c8 -20 15
-56 15 -80 0 -24 5 -44 10 -44 17 0 11 83 -10 127 l-19 43 42 10 c23 6 50 13
59 16 13 4 18 -3 23 -28 9 -49 9 -107 0 -163 -6 -42 -5 -48 6 -37 18 17 26
181 10 210 -10 19 -7 21 47 27 31 4 62 8 67 10 24 8 29 -5 27 -60z m678 -25
c8 -15 5 -22 -18 -39 -16 -11 -41 -23 -56 -27 l-27 -6 38 50 c38 52 46 55 63
22z m-1329 -62 c10 -21 19 -53 19 -71 l0 -34 -82 14 c-83 15 -148 45 -148 66
1 14 68 67 85 67 27 0 65 -43 76 -86 13 -49 28 -52 21 -4 -3 18 -19 46 -37 65
-33 32 -33 33 -12 43 27 12 51 -6 78 -60z"/>
<path d="M1250 2437 c-23 -13 -59 -21 -105 -24 -90 -5 -103 -8 -143 -33 -48
-30 -29 -43 21 -14 32 18 57 24 104 24 61 0 62 -1 54 -23 -5 -12 -11 -48 -14
-78 -8 -77 -23 -106 -85 -164 -54 -50 -89 -101 -77 -113 4 -4 12 2 18 13 6 11
41 52 78 91 70 74 89 113 89 189 0 55 18 85 65 113 33 19 49 22 95 17 41 -4
52 -3 43 6 -20 20 -105 19 -143 -4z"/>
<path d="M1762 2378 c-7 -7 -12 -18 -12 -25 0 -19 -13 -16 -28 7 -7 11 -19 20
-27 20 -23 0 -82 -65 -95 -105 -10 -31 -10 -39 6 -56 23 -26 38 -24 77 11 34
30 54 39 42 20 -9 -15 32 -50 60 -50 14 0 34 -9 46 -21 29 -29 38 -14 9 16
-13 14 -35 25 -50 25 -55 0 -67 53 -25 110 34 46 32 83 -3 48z m-44 -55 c2
-23 -5 -37 -35 -66 -40 -39 -60 -46 -69 -23 -7 19 31 91 58 110 30 21 42 16
46 -21z"/>
<path d="M1400 2324 c-47 -43 -61 -91 -36 -129 20 -30 44 -31 94 -6 20 10 44
16 52 13 13 -4 13 -3 2 11 -13 15 -17 15 -54 -4 -54 -28 -83 -23 -83 15 0 26
3 28 41 31 23 2 56 10 73 19 53 28 35 86 -28 86 -12 0 -39 -16 -61 -36z m103
2 c7 -18 -29 -42 -77 -51 -45 -9 -47 4 -5 39 33 28 74 34 82 12z"/>
<path d="M1698 2055 c-28 -64 -33 -103 -19 -140 6 -14 9 -2 13 41 3 33 12 74
21 90 21 41 30 74 20 74 -4 0 -20 -29 -35 -65z"/>
<path d="M1328 2080 c3 -22 -5 -44 -29 -81 -23 -36 -34 -66 -36 -103 -4 -45 0
-57 31 -106 20 -30 36 -60 36 -67 0 -7 5 -13 10 -13 18 0 10 25 -25 80 -43 69
-46 116 -9 180 33 56 44 93 37 120 -8 31 -20 24 -15 -10z"/>
<path d="M1441 2081 c0 -7 -12 -35 -25 -61 -33 -66 -30 -133 12 -227 41 -92
42 -137 2 -189 -29 -38 -38 -64 -22 -64 4 0 22 24 40 53 41 68 42 112 1 197
-42 90 -47 145 -19 214 12 30 20 63 17 73 -3 10 -5 12 -6 4z"/>
<path d="M1190 2056 c0 -9 -24 -44 -54 -79 -68 -80 -76 -96 -76 -147 0 -37 6
-48 54 -99 88 -91 98 -151 47 -265 -17 -38 -29 -71 -26 -74 17 -17 75 126 75
183 0 62 -13 89 -75 158 -47 51 -55 66 -55 99 0 39 36 106 75 138 25 21 57 88
45 95 -6 3 -10 -1 -10 -9z"/>
<path d="M950 1946 c0 -9 -14 -29 -30 -43 -46 -38 -61 -73 -49 -116 9 -34 41
-68 141 -149 58 -47 76 -94 55 -138 -9 -16 -11 -32 -7 -35 14 -9 30 30 30 74
0 48 -25 80 -121 157 -48 38 -71 64 -77 87 -11 41 2 81 33 101 33 22 50 55 36
69 -8 8 -11 6 -11 -7z"/>
<path d="M1688 1845 c-11 -11 3 -68 25 -105 12 -19 44 -58 72 -85 53 -53 63
-83 45 -131 -8 -19 -7 -25 2 -22 17 6 31 55 23 85 -3 14 -32 53 -64 87 -65 68
-82 95 -90 144 -3 19 -9 31 -13 27z"/>
<path d="M1825 919 c-58 -7 -168 -56 -159 -70 3 -6 19 -1 38 10 82 51 226 62
315 25 19 -8 36 -12 39 -9 3 3 -15 13 -39 24 -51 22 -122 29 -194 20z"/>
<path d="M1193 863 c-49 -9 -19 -18 51 -15 175 9 219 -87 132 -292 -16 -38
-16 -38 7 -32 12 4 55 9 95 13 40 3 75 10 78 14 7 11 -67 11 -124 0 -38 -7
-42 -7 -36 8 22 53 44 138 44 173 0 103 -104 159 -247 131z"/>
<path d="M1925 767 c-54 -28 -157 -35 -209 -13 -49 21 -59 13 -14 -10 66 -36
239 -16 278 32 18 20 -5 17 -55 -9z"/>
<path d="M1065 730 c26 -42 189 -54 265 -19 25 12 40 23 33 26 -6 2 -27 -4
-45 -13 -45 -24 -171 -24 -215 -1 -37 19 -47 21 -38 7z"/>
<path d="M1375 455 c-22 -8 -59 -14 -83 -14 -26 -1 -41 -5 -37 -11 9 -14 48
-12 117 5 48 13 65 14 93 4 27 -10 42 -10 73 0 34 12 47 11 88 -3 50 -17 119
-23 79 -6 -76 30 -136 41 -174 29 -29 -9 -47 -9 -72 0 -37 13 -32 13 -84 -4z"/>
<path d="M1389 386 c30 -36 141 -44 205 -14 38 17 20 29 -19 12 -44 -18 -106
-18 -152 1 -44 18 -48 19 -34 1z"/>
</g>
</svg>
