<?xml version="1.0" standalone="no"?>
<!DOCTYPE svg PUBLIC "-//W3C//DTD SVG 20010904//EN"
 "http://www.w3.org/TR/2001/REC-SVG-20010904/DTD/svg10.dtd">
<svg version="1.0" xmlns="http://www.w3.org/2000/svg"
 width="1350.000000pt" height="1350.000000pt" viewBox="0 0 1350.000000 1350.000000"
 preserveAspectRatio="xMidYMid meet">
<metadata>
Created by potrace 1.10, written by Peter Selinger 2001-2011
</metadata>
<g transform="translate(0.000000,1350.000000) scale(0.100000,-0.100000)"
fill="#695651" stroke="none">
<path d="M4879 13411 c-10 -14 -17 -17 -30 -11 -21 12 -85 1 -100 -16 -7 -8
-31 -14 -59 -14 -38 0 -49 -4 -53 -19 -3 -14 -11 -17 -31 -14 -15 3 -36 -1
-51 -11 -13 -9 -38 -16 -54 -16 -16 0 -33 -5 -36 -11 -4 -5 -18 -15 -32 -20
-16 -6 -23 -15 -19 -24 8 -22 -13 -29 -32 -12 -17 15 -55 13 -102 -7 -8 -3
-44 -10 -80 -16 -105 -15 -184 -32 -197 -42 -7 -6 -14 -5 -18 2 -8 13 -122 13
-205 -1 -36 -6 -79 -11 -97 -10 -18 0 -34 -3 -37 -7 -2 -4 -29 -7 -60 -6 -37
1 -59 -3 -67 -12 -6 -8 -23 -14 -38 -14 -46 0 -71 -11 -71 -31 0 -20 -15 -26
-25 -9 -11 18 -64 11 -75 -10 -7 -13 -21 -20 -40 -20 -30 0 -41 -14 -17 -23 6
-2 9 -8 5 -12 -4 -4 -21 -2 -39 4 -26 9 -35 8 -49 -4 -9 -8 -24 -15 -32 -15
-9 0 -18 -7 -22 -15 -3 -8 -1 -15 4 -15 6 0 10 -5 10 -12 0 -9 -3 -9 -12 0
-15 15 -55 16 -63 1 -4 -6 1 -17 11 -24 16 -12 16 -14 3 -15 -8 0 -20 5 -26
11 -16 16 -64 7 -77 -14 -9 -14 -7 -21 7 -31 11 -9 17 -27 17 -53 0 -21 4 -43
9 -48 12 -13 23 -118 23 -217 0 -45 4 -78 10 -78 5 0 7 -12 3 -29 -4 -17 0
-44 10 -66 12 -30 13 -41 3 -52 -6 -8 -11 -36 -9 -63 1 -28 -2 -51 -9 -55 -6
-4 -10 -23 -9 -44 1 -20 -1 -43 -4 -51 -3 -8 -6 -26 -6 -40 2 -65 -5 -98 -28
-127 -17 -23 -22 -39 -17 -58 4 -17 1 -32 -9 -43 -8 -9 -18 -35 -22 -57 -4
-22 -13 -50 -21 -62 -14 -22 -8 -33 26 -46 9 -3 5 -6 -10 -6 -30 -1 -50 -18
-50 -43 0 -9 -8 -21 -17 -27 -10 -5 -18 -23 -19 -40 -3 -61 -13 -82 -37 -79
-17 2 -23 -3 -25 -22 -2 -14 -11 -31 -19 -37 -9 -7 -17 -29 -17 -49 -1 -22 -8
-40 -16 -43 -31 -13 -70 -44 -70 -56 0 -8 -13 -23 -28 -34 -16 -11 -33 -35
-38 -53 -6 -20 -23 -42 -44 -56 -19 -13 -35 -31 -35 -40 0 -22 -25 -57 -47
-65 -10 -3 -18 -15 -18 -26 0 -11 -9 -25 -19 -31 -12 -6 -17 -17 -14 -28 3
-12 -7 -30 -26 -50 -37 -36 -38 -39 -8 -45 19 -3 20 -4 4 -11 -32 -15 -77 -64
-77 -84 0 -12 -4 -23 -9 -26 -5 -4 -12 -25 -16 -49 -4 -23 -16 -48 -26 -55
-23 -16 -25 -38 -4 -49 19 -11 9 -50 -16 -56 -22 -6 -26 -27 -4 -27 22 0 18
-17 -5 -23 -13 -3 -20 -14 -20 -29 0 -12 -9 -34 -20 -48 -43 -55 -8 -74 43
-24 38 39 97 149 97 183 0 12 7 38 15 58 8 19 15 43 15 53 0 10 7 23 15 30 8
7 15 23 15 36 0 12 4 25 9 28 5 3 28 38 51 78 24 40 67 105 96 145 30 40 54
77 54 82 0 5 33 45 73 88 87 93 177 211 193 253 3 8 10 22 15 30 5 8 12 22 15
30 3 8 10 22 15 30 11 18 11 19 56 134 32 81 34 91 19 101 -22 17 -20 28 3 16
22 -12 31 -5 31 26 0 32 37 103 54 103 7 0 19 7 26 15 8 10 30 15 65 15 35 0
57 5 65 15 7 8 20 15 30 15 10 0 31 7 46 15 16 8 40 15 54 15 14 0 39 4 57 9
17 5 92 12 167 15 88 4 145 12 163 21 15 8 38 15 50 15 12 0 24 4 28 9 3 5 19
12 35 16 17 4 30 10 30 15 0 4 11 11 25 14 26 7 65 39 65 54 -1 4 -17 19 -36
34 l-36 27 -39 -26 c-26 -17 -39 -33 -39 -48 0 -32 -12 -39 -30 -15 -16 21
-17 21 -48 3 -18 -10 -35 -26 -38 -35 -7 -23 -20 -23 -33 -1 -8 15 -13 15 -36
5 -33 -15 -68 -15 -82 -1 -15 15 -33 3 -33 -22 0 -28 -24 -19 -28 11 -4 21 -7
22 -55 16 -29 -3 -63 -6 -77 -6 -22 -1 -23 -2 -7 -11 35 -21 14 -31 -95 -44
-14 -1 -31 -6 -37 -9 -6 -4 -19 -3 -28 3 -15 8 -24 3 -49 -25 -28 -31 -34 -33
-58 -25 -30 12 -31 17 -10 96 19 74 34 281 28 395 -7 150 -12 215 -17 230 -18
62 -37 161 -32 170 3 5 13 10 21 10 8 0 22 4 32 9 49 26 104 51 112 51 5 0 32
14 58 30 27 17 60 30 73 30 13 0 33 7 43 15 11 8 30 15 43 15 13 0 31 4 41 10
39 22 189 50 271 50 47 0 103 5 123 10 20 6 97 15 170 19 73 5 151 14 173 20
22 6 57 11 77 11 20 0 39 4 42 9 3 4 25 11 49 14 23 3 56 13 72 21 17 9 38 16
48 16 9 0 25 4 35 10 9 5 35 16 57 25 22 9 54 23 70 31 58 27 181 54 251 54
66 0 72 2 78 22 7 31 -15 51 -56 50 -18 0 -38 4 -45 9 -8 8 -15 5 -24 -10z
m-1418 -1344 c-1 -12 -15 -9 -19 4 -3 6 1 10 8 8 6 -3 11 -8 11 -12z"/>
<path d="M10438 12835 c-18 -20 -43 -55 -55 -77 -12 -23 -27 -46 -33 -52 -5
-5 -10 -19 -11 -30 0 -12 -11 -41 -24 -66 -13 -25 -29 -55 -34 -67 -6 -13 -17
-23 -25 -23 -26 0 -39 30 -38 89 1 54 -1 60 -36 93 -48 46 -124 61 -142 28 -8
-15 -17 -19 -34 -14 -13 3 -27 1 -30 -5 -4 -6 -15 -11 -24 -11 -10 0 -22 -10
-27 -22 -8 -17 -18 -23 -43 -23 -33 0 -71 -33 -72 -62 0 -7 -7 -13 -15 -13 -8
0 -15 -6 -15 -13 0 -8 -20 -36 -45 -63 -38 -42 -44 -54 -39 -80 4 -21 1 -34
-10 -43 -9 -8 -16 -22 -16 -32 0 -12 -7 -19 -19 -19 -12 0 -23 -9 -27 -22 -3
-13 -15 -31 -26 -41 -19 -19 -17 -55 6 -69 6 -4 7 -10 3 -14 -3 -4 -13 -1 -21
5 -13 11 -19 4 -41 -40 -14 -29 -25 -61 -25 -70 0 -10 -4 -20 -8 -23 -4 -2 -9
-37 -10 -77 -1 -39 -7 -78 -12 -85 -8 -8 -8 -14 0 -19 7 -4 9 -19 5 -36 -5
-20 0 -42 14 -69 39 -75 83 -103 148 -93 32 4 52 20 121 92 46 47 90 99 98
114 8 15 23 36 32 46 9 10 43 57 76 104 32 46 78 107 102 133 24 27 44 52 44
56 0 4 -10 8 -22 10 -12 2 -23 8 -25 14 -5 14 30 24 48 14 10 -6 24 6 48 36
27 36 31 47 21 59 -28 34 -105 7 -126 -43 -8 -19 -24 -42 -35 -50 -17 -12 -20
-22 -16 -48 5 -32 4 -34 -19 -28 -19 5 -24 2 -24 -13 0 -11 -31 -52 -69 -91
-53 -54 -68 -76 -64 -92 3 -11 0 -20 -6 -20 -6 0 -15 -8 -18 -17 -11 -27 -42
-53 -64 -53 -17 0 -20 -4 -15 -24 5 -19 -3 -32 -39 -67 -25 -24 -45 -52 -45
-62 0 -14 -5 -17 -22 -11 -23 6 -56 30 -70 49 -13 18 -8 124 7 162 8 19 15 50
15 68 0 18 7 38 15 45 8 7 15 26 15 42 0 16 6 31 15 34 8 4 15 12 15 19 0 20
97 204 143 270 55 80 166 195 188 195 9 0 22 7 29 15 7 8 21 15 31 15 10 0 21
5 24 10 3 6 22 10 41 10 30 0 37 -5 48 -32 15 -34 11 -99 -7 -137 -9 -19 -8
-25 5 -35 12 -9 14 -16 7 -23 -13 -13 -3 -33 16 -33 7 0 15 -7 19 -15 7 -20
53 -19 64 1 7 13 11 9 16 -19 4 -23 0 -61 -13 -109 -22 -82 -20 -141 9 -203
10 -22 24 -55 31 -73 26 -73 146 -161 259 -191 121 -32 176 -36 310 -20 208
24 273 25 336 8 98 -27 143 -64 197 -162 15 -28 32 -56 38 -64 7 -7 9 -28 6
-48 -4 -23 -1 -40 9 -49 20 -21 18 -34 -11 -59 -33 -29 -45 -105 -20 -130 18
-18 55 -23 55 -8 0 5 8 17 17 27 14 14 17 38 17 143 1 138 -9 171 -71 254 -47
62 -150 144 -191 152 -21 4 -41 10 -47 15 -23 19 -286 15 -365 -6 -111 -29
-238 -10 -366 53 -70 35 -73 37 -104 107 -28 61 -34 87 -40 181 -3 62 -2 115
3 122 4 7 8 34 6 60 -1 26 4 61 10 76 6 16 11 34 11 41 0 7 11 33 24 57 52 98
79 145 92 160 8 8 14 19 14 23 0 5 13 25 29 45 28 35 28 38 13 58 -31 38 -57
38 -94 -2z m-198 -404 c0 -5 -9 -11 -20 -14 -20 -5 -26 3 -13 16 9 10 33 8 33
-2z"/>
<path d="M8919 12720 c-19 -10 -41 -26 -48 -34 -8 -9 -24 -16 -37 -16 -15 0
-24 -6 -24 -15 0 -8 -13 -21 -30 -30 -36 -19 -38 -28 -7 -43 22 -10 22 -11 -5
-11 -21 -1 -29 -7 -34 -26 -3 -14 -1 -32 6 -40 14 -17 5 -35 -19 -35 -25 0
-33 -11 -19 -27 6 -8 13 -34 14 -58 1 -38 15 -75 58 -153 25 -45 90 -104 169
-156 116 -76 135 -99 142 -169 5 -50 3 -56 -11 -50 -14 5 -15 0 -9 -45 7 -50
6 -52 -24 -69 -17 -10 -31 -24 -31 -32 0 -8 -7 -11 -19 -8 -14 3 -17 0 -14
-14 3 -11 0 -19 -6 -19 -6 0 -11 5 -11 10 0 19 -28 10 -33 -10 -3 -12 -14 -20
-29 -21 -17 -1 -18 -3 -5 -6 22 -6 22 -29 0 -37 -11 -5 -22 -1 -30 10 -8 11
-18 14 -30 10 -17 -7 -17 -8 0 -20 9 -7 17 -16 17 -20 0 -10 -38 -7 -45 4 -3
6 -17 10 -31 10 -30 0 -32 -26 -2 -34 18 -4 20 -8 10 -18 -10 -10 -19 -10 -43
5 -41 23 -52 22 -45 -7 7 -29 -19 -44 -33 -18 -8 14 -13 15 -30 5 -21 -13
-101 -8 -133 9 -38 19 -15 79 66 173 28 33 54 62 58 63 16 7 7 31 -12 37 -11
3 -20 13 -20 21 0 13 -2 13 -16 -1 -9 -9 -24 -13 -35 -10 -14 5 -19 1 -19 -12
0 -11 5 -24 12 -31 17 -17 0 -28 -22 -14 -11 6 -21 8 -25 2 -3 -5 -1 -11 5
-15 17 -11 11 -24 -15 -31 -33 -8 -48 -37 -52 -102 -5 -64 15 -114 61 -154 26
-23 37 -26 71 -21 22 3 46 11 54 17 11 8 15 8 18 -1 5 -15 59 -18 68 -4 3 5
20 13 38 17 76 16 198 78 252 128 28 25 53 46 57 46 4 0 14 16 22 35 8 19 21
35 29 35 7 0 23 23 35 51 18 40 22 67 21 131 -1 79 -2 82 -40 123 -22 23 -58
55 -82 71 -23 16 -43 32 -45 37 -2 4 -9 7 -16 7 -24 0 -115 92 -137 138 -12
26 -28 59 -35 74 -18 34 -18 99 1 124 8 10 15 29 15 42 0 12 4 22 9 22 5 0 18
15 29 33 19 32 72 64 144 86 36 12 40 10 92 -28 30 -23 71 -57 90 -77 39 -40
66 -40 66 -1 0 14 -19 41 -52 74 -57 54 -99 79 -154 89 -19 3 -37 10 -40 15
-8 14 -36 10 -75 -11z"/>
<path d="M8128 12414 c-16 -8 -33 -24 -38 -35 -6 -10 -20 -19 -31 -19 -11 0
-22 -7 -25 -15 -7 -17 -34 -21 -34 -5 0 6 -4 10 -9 10 -14 0 -61 -45 -61 -59
0 -6 -11 -16 -24 -20 -17 -7 -25 -20 -30 -50 -4 -28 -12 -42 -27 -46 -15 -5
-19 -13 -16 -28 3 -12 -3 -35 -14 -52 -10 -16 -21 -37 -25 -45 -3 -8 -18 -42
-34 -75 -23 -48 -31 -79 -35 -153 -9 -135 -3 -158 61 -228 l55 -59 64 1 c67 0
116 19 162 61 74 66 83 78 83 104 0 19 9 34 30 49 17 12 30 26 30 32 0 11 22
66 46 111 8 16 14 36 14 45 0 9 7 30 15 46 9 16 15 43 15 60 0 53 7 113 16
127 15 25 3 132 -19 172 -36 65 -117 99 -169 71z m112 -116 c22 -41 23 -49 11
-72 -9 -15 -12 -40 -8 -65 3 -23 1 -44 -5 -47 -5 -4 -8 -17 -5 -30 2 -14 -2
-25 -11 -29 -9 -3 -13 -14 -9 -30 3 -18 -1 -29 -14 -36 -11 -5 -19 -21 -19
-34 0 -13 -4 -27 -10 -30 -15 -9 -12 -25 5 -25 8 0 15 -3 15 -7 -1 -16 -28
-43 -43 -43 -9 0 -26 -21 -39 -47 -13 -27 -26 -50 -29 -53 -4 -3 -15 -21 -25
-40 -32 -59 -65 -91 -81 -78 -15 12 -63 -4 -63 -22 0 -19 -45 -10 -67 14 -13
13 -23 27 -23 32 0 4 -7 15 -16 25 -20 23 -20 124 0 174 9 20 16 46 16 56 0
10 9 35 19 56 11 21 33 67 50 103 36 78 108 171 161 208 21 15 41 35 43 45 5
15 9 17 26 7 17 -8 26 -7 44 5 33 23 49 15 77 -37z"/>
<path d="M7195 12310 c-3 -5 -12 -10 -20 -10 -8 0 -26 -5 -41 -10 -25 -10 -26
-11 -10 -29 16 -18 16 -19 -9 -25 -14 -4 -25 -11 -25 -16 0 -6 -7 -10 -16 -10
-9 0 -35 -16 -58 -35 -24 -19 -48 -35 -54 -35 -6 0 -12 -12 -14 -27 -2 -20 -9
-29 -25 -31 -24 -4 -32 -27 -11 -34 6 -2 8 -10 4 -16 -4 -7 -16 -10 -27 -7
-13 4 -21 1 -26 -12 -4 -10 -14 -23 -22 -30 -13 -9 -13 -14 -4 -24 9 -9 7 -16
-10 -29 -12 -9 -30 -19 -39 -23 -11 -4 -18 -17 -18 -31 0 -16 -7 -27 -20 -31
-11 -3 -20 -13 -20 -20 0 -8 -4 -16 -9 -19 -7 -5 -4 18 15 98 5 19 2 31 -7 38
-10 7 -8 8 8 3 19 -5 23 -1 28 22 4 15 13 46 21 68 8 23 14 52 14 65 0 14 7
38 15 54 18 35 19 63 3 80 -7 8 -23 26 -36 41 -18 21 -28 25 -45 19 -12 -4
-48 -7 -79 -6 -59 1 -70 -6 -43 -28 19 -16 10 -30 -19 -30 -39 0 -106 -38
-106 -60 0 -13 -10 -24 -25 -30 -14 -5 -27 -20 -31 -35 -4 -18 -13 -25 -30
-25 -24 0 -33 -23 -14 -35 6 -4 8 -11 4 -16 -3 -5 -10 -7 -15 -3 -10 6 -51
-33 -69 -66 -5 -10 -10 -31 -10 -45 0 -22 -4 -26 -22 -23 -22 3 -23 7 -20 69
3 52 0 74 -17 105 -30 56 -56 84 -80 84 -29 0 -41 -48 -16 -66 27 -20 46 -81
34 -111 -14 -36 -11 -50 13 -73 12 -11 17 -20 10 -20 -6 0 -23 -17 -36 -37
-23 -33 -24 -39 -11 -59 16 -25 11 -34 -22 -34 -14 0 -23 -6 -23 -16 0 -26
-38 -100 -64 -125 -44 -41 -30 -139 19 -139 8 0 27 21 42 47 15 26 33 57 40
68 7 11 17 31 23 45 14 31 89 142 106 155 6 6 29 33 49 60 21 28 40 52 44 55
3 3 18 21 33 40 71 93 180 205 215 219 17 7 34 19 37 27 3 8 16 14 30 14 14 0
27 4 31 10 3 5 12 7 21 3 11 -4 13 -16 8 -53 -4 -32 -2 -50 6 -55 8 -5 5 -11
-10 -19 -26 -13 -49 -70 -60 -146 -4 -30 -17 -80 -30 -110 -12 -30 -23 -72
-24 -92 -2 -23 -15 -51 -35 -77 -29 -36 -32 -46 -29 -98 3 -54 5 -58 28 -61
22 -2 30 6 64 72 22 42 36 81 33 90 -4 11 1 18 18 22 15 4 35 24 50 50 14 24
30 44 35 44 6 0 10 8 10 18 0 9 21 40 46 67 25 28 60 68 79 90 56 69 98 110
252 248 18 15 38 25 46 21 20 -7 28 -65 12 -84 -7 -8 -16 -35 -20 -60 -4 -25
-12 -48 -18 -51 -5 -4 -11 -25 -13 -48 -1 -22 -10 -51 -18 -63 -9 -12 -16 -36
-16 -53 0 -17 -9 -55 -21 -85 -26 -72 -40 -163 -33 -222 5 -39 11 -48 34 -58
36 -15 60 -3 115 54 22 24 74 71 115 107 41 35 92 81 113 102 21 21 73 69 117
108 74 65 80 73 80 109 0 34 -4 41 -25 46 -26 7 -65 -17 -65 -40 -1 -18 -49
-68 -60 -61 -11 7 -90 -70 -90 -88 0 -8 -11 -19 -25 -25 -31 -14 -32 -27 -2
-37 19 -6 20 -8 4 -12 -10 -3 -25 1 -34 9 -13 11 -18 9 -31 -10 -8 -12 -21
-22 -28 -22 -8 0 -14 -9 -14 -21 0 -16 -4 -19 -20 -14 -16 5 -23 0 -31 -23 -6
-17 -19 -32 -30 -35 -11 -3 -19 -9 -18 -14 4 -22 -3 -33 -21 -33 -16 0 -20 7
-20 34 0 19 6 47 14 63 30 60 46 105 46 126 0 13 7 32 15 43 8 10 15 33 15 49
0 17 7 41 15 55 8 14 14 36 15 51 0 14 4 29 10 35 5 5 12 45 16 89 6 79 6 81
-25 119 -17 21 -31 43 -31 47 0 12 -47 11 -55 -1z"/>
<path d="M4993 12213 c-18 -9 -35 -25 -39 -35 -6 -21 -43 -33 -73 -23 -18 5
-19 3 -10 -30 6 -20 8 -43 5 -50 -3 -8 1 -18 8 -24 10 -8 20 -6 39 9 14 11 30
20 36 20 6 0 11 4 11 10 0 5 12 13 28 16 15 4 36 13 47 20 32 23 58 16 90 -23
65 -81 67 -87 72 -238 2 -77 9 -144 14 -149 15 -16 11 -26 -10 -26 -31 0 -35
-19 -7 -30 l26 -9 -25 -25 c-14 -14 -26 -33 -26 -43 -4 -54 -8 -68 -18 -71 -6
-2 -11 -16 -11 -30 0 -15 -7 -36 -15 -46 -8 -11 -15 -26 -15 -35 0 -8 -7 -22
-15 -31 -21 -23 -31 -139 -16 -168 11 -21 14 -21 34 -7 19 13 58 103 88 202 5
18 14 35 19 38 6 4 10 15 10 26 0 20 56 131 92 182 11 15 21 33 22 41 3 18 42
66 55 66 6 0 11 5 11 11 0 20 73 99 139 152 36 28 70 57 74 64 4 7 15 13 22
13 8 0 15 4 15 10 0 5 11 12 24 16 14 3 27 12 30 20 3 8 14 14 24 14 11 0 25
7 32 15 7 8 25 15 41 15 15 0 30 4 33 9 3 4 18 11 33 14 42 9 83 52 83 88 0
34 -25 49 -43 26 -7 -10 -31 -17 -62 -19 -49 -3 -68 -20 -29 -26 42 -7 50 -14
26 -23 -24 -9 -52 -3 -52 12 0 13 -68 11 -76 -3 -4 -6 -2 -14 4 -16 7 -2 12
-8 12 -14 0 -6 -16 -7 -42 -3 -39 7 -41 6 -29 -9 10 -12 11 -20 4 -27 -8 -8
-13 -7 -17 0 -12 19 -34 12 -40 -14 -5 -18 -15 -26 -41 -31 -25 -4 -46 -20
-75 -54 -22 -26 -40 -54 -40 -62 0 -7 -14 -19 -31 -25 -24 -9 -29 -16 -25 -31
5 -15 1 -21 -23 -25 -17 -4 -32 -14 -36 -26 -3 -11 -17 -36 -31 -56 -13 -20
-23 -44 -22 -53 2 -9 -5 -18 -14 -20 -16 -3 -17 10 -15 155 2 158 2 158 -28
211 -33 60 -127 152 -155 152 -10 0 -22 5 -25 10 -9 14 -35 11 -72 -7z"/>
<path d="M4367 12063 c-15 -15 -19 -16 -26 -4 -8 12 -13 12 -40 0 -36 -16 -40
-34 -10 -42 35 -9 11 -27 -36 -27 -48 0 -67 -19 -62 -62 1 -17 -4 -24 -20 -26
-17 -2 -23 -10 -23 -28 0 -15 -6 -24 -16 -24 -8 0 -21 -15 -29 -34 -8 -19 -19
-37 -25 -41 -5 -3 -10 -14 -10 -24 0 -9 -5 -22 -12 -29 -7 -7 -13 -30 -14 -53
-1 -22 -10 -49 -19 -60 -15 -15 -16 -21 -5 -34 11 -13 9 -20 -13 -43 -27 -28
-36 -75 -17 -87 7 -4 7 -12 0 -25 -7 -13 -5 -37 6 -79 8 -34 12 -66 9 -71 -7
-11 28 -73 58 -103 28 -28 92 -47 156 -47 70 1 175 36 218 74 7 6 18 16 25 22
7 5 24 24 38 40 14 17 33 33 43 37 9 3 17 14 17 23 0 10 6 25 14 33 22 25 66
112 66 131 0 9 7 25 15 36 8 10 15 31 15 45 0 15 7 44 16 64 19 46 15 131 -13
258 -11 51 -79 127 -139 155 -27 13 -57 27 -66 33 -28 15 -82 10 -101 -8z
m138 -76 c17 -9 37 -22 46 -29 25 -21 59 -101 59 -140 0 -25 5 -38 18 -43 16
-6 16 -7 -3 -21 -17 -13 -18 -18 -7 -46 9 -24 9 -35 0 -46 -7 -7 -13 -35 -15
-60 -1 -32 -9 -51 -22 -62 -10 -8 -22 -26 -26 -40 -4 -14 -14 -33 -23 -42 -12
-15 -12 -20 -2 -33 7 -9 11 -16 9 -18 -2 -1 -13 -7 -24 -13 -11 -6 -28 -26
-37 -44 -10 -20 -42 -51 -75 -73 -32 -21 -62 -45 -66 -53 -4 -8 -20 -14 -35
-14 -16 0 -33 -5 -39 -11 -8 -8 -17 -8 -33 1 -17 9 -25 9 -39 -4 -16 -15 -19
-15 -31 -1 -7 8 -21 15 -32 15 -28 0 -57 39 -58 77 0 17 -4 43 -10 58 -6 15
-6 33 -1 43 5 9 14 46 20 82 25 144 32 173 55 209 13 21 30 55 38 77 18 54 41
84 131 173 77 75 80 77 126 75 25 0 60 -8 76 -17z"/>
<path d="M4760 11956 c0 -17 5 -26 16 -26 10 0 14 7 12 22 -5 32 -28 35 -28 4z"/>
<path d="M11952 11225 c-9 -7 -28 -15 -42 -18 -52 -12 -105 -36 -121 -55 -9
-11 -32 -24 -53 -27 -37 -7 -59 -26 -38 -33 7 -2 12 -8 12 -14 0 -5 -8 -7 -18
-4 -23 8 -102 -51 -102 -76 0 -11 -7 -18 -19 -18 -11 0 -30 -14 -42 -31 -18
-25 -19 -33 -8 -39 7 -5 10 -12 6 -17 -5 -4 -12 -1 -17 7 -7 12 -12 12 -28 -3
-10 -9 -26 -17 -35 -17 -9 0 -19 -4 -22 -10 -7 -12 23 -60 39 -60 29 0 99 51
152 110 31 36 64 69 73 74 9 5 31 22 49 38 18 15 37 28 43 28 6 0 25 11 42 24
139 102 351 115 489 29 21 -13 41 -23 44 -23 7 0 85 -61 112 -87 8 -8 29 -25
48 -39 19 -15 34 -31 34 -36 0 -5 15 -28 33 -51 78 -97 129 -180 173 -282 9
-22 21 -43 27 -46 6 -4 6 -15 2 -25 -5 -11 -8 -21 -7 -24 1 -3 8 -25 17 -48
13 -36 13 -50 4 -77 -11 -28 -10 -37 5 -61 15 -22 16 -28 4 -35 -16 -9 -15
-142 2 -147 5 -2 10 -16 10 -30 l0 -27 -19 24 c-21 27 -22 26 -46 -49 -10 -30
-25 -63 -33 -73 -12 -13 -13 -20 -4 -29 8 -8 5 -17 -13 -34 -25 -23 -34 -54
-15 -54 6 0 10 -4 10 -10 0 -5 -9 -10 -19 -10 -17 0 -36 -25 -33 -42 1 -4 -8
-13 -21 -19 -23 -12 -127 -114 -127 -125 0 -12 -45 -43 -64 -44 -11 0 -16 -5
-13 -13 4 -10 -2 -13 -18 -9 -17 3 -25 -2 -30 -17 -5 -16 -12 -20 -26 -16 -12
4 -21 1 -25 -8 -3 -9 -16 -18 -29 -21 -17 -4 -22 -11 -18 -25 4 -16 -3 -20
-58 -26 -34 -4 -77 -14 -95 -21 -18 -8 -44 -14 -57 -14 -47 0 -114 -38 -126
-70 -9 -27 -6 -37 19 -79 17 -27 30 -55 30 -64 0 -9 5 -19 11 -23 6 -3 9 -17
6 -30 -2 -13 0 -47 4 -75 7 -42 5 -58 -9 -81 -14 -24 -15 -32 -3 -50 11 -19
11 -23 -3 -33 -9 -7 -16 -19 -16 -28 0 -19 -46 -89 -66 -100 -8 -4 -14 -14
-14 -20 0 -13 -54 -37 -83 -37 -25 0 -31 -20 -11 -35 18 -13 18 -14 2 -15 -10
0 -18 5 -18 10 0 16 -76 12 -90 -5 -7 -8 -20 -15 -30 -15 -10 0 -23 -7 -30
-15 -7 -8 -19 -15 -27 -15 -11 0 -13 -7 -9 -25 4 -16 1 -34 -9 -48 -8 -12 -15
-38 -15 -58 0 -20 -7 -42 -15 -49 -8 -7 -15 -18 -15 -25 0 -7 -22 -37 -50 -66
-27 -29 -50 -56 -50 -60 0 -4 -18 -14 -41 -23 -33 -14 -39 -20 -34 -37 6 -16
3 -20 -12 -17 -11 1 -32 -5 -47 -16 -20 -13 -31 -15 -39 -7 -18 18 -35 12 -45
-16 -9 -27 -9 -27 -16 -6 -6 18 -14 22 -44 21 -47 -2 -137 17 -182 39 -49 23
-113 65 -123 81 -15 23 -59 35 -139 37 -92 3 -116 16 -204 114 -198 219 -301
296 -399 302 -173 9 -247 8 -303 -1 -37 -7 -86 -15 -110 -19 -24 -5 -48 -13
-54 -19 -7 -7 -20 -12 -29 -12 -9 0 -22 -7 -29 -15 -7 -8 -21 -15 -31 -15 -17
0 -24 -11 -20 -32 0 -5 -6 -8 -14 -8 -29 0 -66 -31 -60 -51 4 -12 -1 -19 -15
-24 -16 -5 -20 -13 -16 -28 3 -12 0 -27 -6 -34 -6 -8 -12 -35 -13 -61 -2 -26
-5 -54 -8 -62 -11 -28 -2 -82 16 -91 9 -6 17 -18 17 -28 0 -29 63 -78 163
-126 282 -137 460 -262 563 -397 24 -32 44 -63 44 -68 0 -6 4 -10 9 -10 5 0
19 -27 31 -60 12 -33 27 -63 32 -66 5 -3 4 -11 -2 -19 -9 -10 -7 -20 5 -38 11
-18 13 -27 5 -32 -6 -4 -9 -14 -6 -22 11 -28 -29 -126 -73 -175 -13 -14 -20
-31 -16 -37 3 -6 -2 -15 -13 -19 -10 -4 -38 -29 -62 -57 -23 -27 -49 -54 -56
-58 -8 -4 -14 -14 -14 -22 0 -7 -10 -17 -22 -21 -32 -9 -58 -34 -58 -54 0 -9
-9 -25 -20 -35 -11 -10 -20 -25 -20 -33 0 -8 -11 -30 -24 -47 -14 -18 -28 -45
-32 -61 -4 -16 -11 -34 -16 -40 -13 -17 -7 -132 9 -184 8 -25 16 -58 18 -73 9
-63 77 -153 246 -329 25 -26 61 -29 74 -8 3 5 -28 44 -68 87 -40 43 -88 98
-107 123 -19 25 -40 49 -47 53 -7 4 -13 18 -13 30 0 13 -4 27 -9 32 -15 16
-41 134 -41 186 0 48 5 61 73 209 13 27 51 73 96 115 120 111 211 205 211 216
0 10 39 70 53 80 11 8 10 208 -1 223 -6 6 -13 26 -17 44 -13 60 -96 202 -119
202 -6 0 -17 13 -24 29 -7 16 -41 54 -76 85 -64 56 -220 166 -236 166 -5 0
-15 6 -22 13 -7 6 -36 23 -63 37 -28 14 -52 27 -55 30 -4 5 -61 33 -188 93
-42 20 -97 136 -74 159 7 7 12 33 12 59 0 29 6 51 15 59 8 7 15 18 15 24 1 27
107 110 156 122 16 4 34 10 39 15 15 11 173 50 205 50 66 -1 193 -15 231 -26
66 -19 125 -59 184 -124 234 -259 268 -282 413 -285 51 -1 66 -5 80 -22 25
-30 120 -85 159 -91 18 -3 36 -10 39 -14 3 -5 18 -9 34 -9 16 0 48 -7 70 -16
43 -17 91 -15 175 8 65 17 115 45 115 62 0 9 7 12 20 9 10 -3 25 1 33 8 7 8
29 28 48 44 50 45 99 110 99 133 0 12 4 23 9 26 5 3 14 36 21 73 17 92 19 93
190 148 73 24 169 98 170 132 0 6 6 18 13 25 46 49 70 316 33 383 -9 17 -16
35 -16 41 0 6 -7 17 -15 24 -8 7 -15 25 -15 39 0 21 8 31 35 44 20 9 50 17 68
17 101 0 348 137 489 271 65 63 158 187 158 212 0 7 7 22 15 33 8 10 15 29 15
40 0 12 7 27 15 34 8 7 15 18 15 24 0 6 6 23 14 37 14 28 37 172 35 224 -6
130 -23 296 -35 322 -8 17 -14 38 -14 46 0 8 -7 20 -15 27 -8 7 -15 20 -15 30
0 10 -7 23 -15 30 -8 7 -15 18 -15 25 0 7 -7 18 -15 25 -9 7 -40 50 -69 94
-60 91 -84 118 -176 196 -36 30 -67 58 -70 61 -9 12 -121 68 -188 95 -57 23
-84 27 -175 29 -69 1 -114 -3 -125 -10z"/>
<path d="M10455 11216 c-27 -6 -56 -15 -63 -19 -7 -5 -19 -4 -26 3 -11 8 -22
6 -48 -10 -18 -11 -41 -20 -50 -20 -9 0 -20 -9 -23 -20 -7 -22 -20 -26 -30
-10 -9 14 -35 -7 -35 -27 0 -10 -6 -12 -20 -8 -11 4 -20 2 -20 -4 0 -6 -6 -11
-12 -11 -7 0 -37 -25 -67 -55 -45 -46 -52 -57 -41 -70 11 -13 8 -15 -14 -15
-18 0 -26 -5 -26 -18 0 -10 -7 -28 -16 -40 -8 -12 -13 -31 -9 -41 5 -18 -29
-91 -44 -91 -3 0 -33 14 -64 30 -32 17 -64 30 -70 30 -7 0 -25 7 -40 15 -29
15 -44 20 -162 53 -88 25 -246 30 -277 8 -11 -8 -27 -12 -34 -9 -15 5 -69 -12
-93 -31 -18 -14 -81 -36 -105 -36 -14 0 -17 -6 -14 -24 4 -20 -2 -27 -38 -46
-48 -23 -60 -35 -44 -45 20 -12 10 -35 -15 -35 -21 0 -25 -5 -25 -28 0 -15 -5
-33 -11 -39 -6 -6 -13 -69 -16 -140 -5 -111 -3 -134 11 -154 9 -13 16 -33 16
-45 0 -20 19 -70 40 -104 6 -8 19 -35 31 -60 24 -52 56 -118 68 -140 33 -61
39 -83 42 -143 3 -57 1 -70 -14 -78 -9 -6 -17 -18 -17 -28 0 -10 -7 -24 -15
-31 -8 -7 -15 -21 -15 -31 0 -10 -9 -21 -21 -24 -13 -4 -32 -31 -51 -71 -16
-35 -34 -66 -39 -70 -5 -3 -9 -20 -9 -39 0 -19 -4 -36 -9 -39 -9 -6 2 -87 18
-128 10 -28 -2 -88 -19 -88 -4 0 -10 -9 -13 -21 -5 -17 -11 -20 -35 -14 -32 7
-120 -28 -129 -51 -2 -7 -27 -15 -54 -19 -27 -4 -53 -13 -57 -22 -5 -8 -17
-16 -28 -17 -13 -2 -18 -10 -17 -25 2 -11 -2 -21 -7 -21 -6 0 -10 5 -10 10 0
18 -17 10 -55 -26 -32 -30 -37 -39 -27 -54 13 -21 6 -30 -20 -30 -27 0 -24
-46 4 -61 l23 -12 -29 -10 c-26 -9 -28 -12 -22 -46 3 -20 6 -52 6 -72 0 -29 4
-38 22 -42 l21 -6 -24 -20 -24 -19 19 -34 c40 -70 102 -141 150 -172 28 -18
57 -39 63 -48 19 -23 18 -102 -2 -165 -6 -18 -3 -23 11 -24 11 0 14 -3 7 -6
-7 -2 -13 -11 -13 -19 0 -17 118 -144 134 -144 6 0 22 -6 36 -13 14 -7 54 -23
90 -36 36 -12 73 -27 82 -32 10 -5 36 -9 58 -9 27 0 43 -5 46 -15 4 -8 38 -24
78 -36 39 -11 80 -25 91 -31 11 -6 40 -22 65 -34 25 -12 56 -34 69 -48 14 -14
33 -26 43 -26 10 0 18 -6 18 -14 0 -7 9 -25 20 -39 11 -14 20 -32 20 -41 0 -9
7 -19 15 -22 10 -4 13 -13 10 -25 -3 -10 2 -30 11 -44 18 -27 15 -33 -21 -49
-5 -3 1 -14 15 -25 25 -20 25 -20 5 -34 -15 -12 -17 -18 -7 -29 9 -12 7 -19
-11 -39 -12 -13 -30 -39 -39 -59 -10 -19 -27 -50 -38 -67 -11 -18 -17 -40 -14
-48 4 -9 0 -15 -9 -15 -21 0 -60 -57 -53 -76 4 -9 -3 -19 -19 -26 -18 -8 -24
-17 -20 -29 3 -9 1 -20 -5 -24 -7 -4 -9 -18 -6 -31 4 -15 1 -26 -10 -32 -11
-6 -15 -16 -10 -27 3 -10 2 -23 -4 -30 -13 -16 -2 -45 18 -45 13 0 12 -3 -3
-20 -15 -16 -17 -30 -11 -82 4 -35 13 -76 21 -93 50 -110 49 -106 108 -197 20
-32 46 -65 56 -75 10 -10 26 -34 37 -53 10 -19 25 -39 32 -43 6 -4 12 -16 12
-26 0 -10 7 -24 15 -31 8 -7 15 -17 15 -23 0 -6 9 -30 21 -53 20 -43 25 -86
31 -264 l3 -95 -45 0 c-36 0 -45 -4 -48 -19 -4 -16 -5 -16 -16 5 -10 20 -22
25 -76 31 -36 4 -84 12 -108 19 -37 10 -45 9 -61 -5 -17 -15 -20 -16 -28 -2
-6 11 -28 16 -78 18 l-70 3 -3 65 c-2 53 -11 82 -47 156 -25 50 -45 94 -45 98
0 12 -64 112 -100 156 -20 25 -40 57 -44 73 -3 15 -14 35 -24 45 -9 9 -15 28
-14 41 2 13 -1 33 -6 45 -29 59 -12 178 38 271 17 31 30 62 30 69 0 7 7 19 15
26 8 7 15 20 15 29 0 9 7 29 15 45 33 62 9 178 -50 252 -77 94 -170 191 -224
231 -9 7 -79 59 -156 116 -148 110 -219 180 -289 289 -43 65 -106 189 -106
207 0 5 -6 22 -14 38 -18 37 -36 89 -46 133 -4 19 -12 46 -18 60 -26 63 -45
188 -44 292 1 88 -2 110 -14 115 -12 5 -13 7 0 17 9 7 16 41 20 95 3 47 10 89
16 95 5 5 10 19 10 29 0 18 22 77 41 107 5 8 12 22 15 30 30 77 90 184 147
259 37 50 45 66 36 77 -16 20 -33 17 -60 -9 -30 -29 -69 -83 -69 -96 0 -5 -11
-18 -25 -29 -14 -11 -25 -28 -25 -39 0 -10 -5 -24 -10 -29 -6 -6 -31 -46 -56
-90 -32 -57 -44 -87 -41 -107 3 -23 -1 -31 -20 -40 -24 -11 -30 -31 -13 -42 6
-4 7 -12 1 -22 -4 -9 -6 -24 -4 -34 4 -13 0 -19 -10 -19 -24 0 -31 -19 -13
-39 15 -16 15 -19 1 -31 -19 -16 -19 -44 0 -60 13 -11 13 -14 -2 -26 -14 -10
-16 -17 -7 -31 8 -13 8 -23 0 -36 -8 -13 -8 -20 3 -27 13 -7 13 -11 1 -25 -18
-22 -14 -74 8 -98 14 -16 14 -18 -1 -30 -15 -11 -15 -15 -2 -41 8 -15 15 -38
15 -50 0 -22 23 -98 47 -154 8 -19 16 -46 18 -62 5 -35 32 -90 44 -90 5 0 12
-15 16 -32 15 -84 29 -118 56 -142 17 -16 29 -36 29 -51 0 -18 7 -28 25 -35
14 -5 25 -16 25 -25 0 -8 20 -36 45 -61 24 -26 46 -50 47 -54 2 -4 71 -57 153
-118 204 -151 334 -267 335 -299 0 -7 4 -13 10 -13 18 0 95 -115 96 -145 1
-16 3 -34 5 -40 3 -12 -12 -68 -20 -75 -27 -22 -62 -84 -58 -101 3 -12 0 -22
-9 -26 -24 -9 -45 -64 -38 -100 4 -20 2 -39 -6 -48 -7 -8 -10 -24 -7 -35 3
-10 -1 -24 -9 -31 -16 -13 -8 -69 13 -86 12 -9 12 -15 2 -31 -10 -17 -10 -23
4 -37 9 -9 17 -22 17 -30 0 -7 8 -28 17 -47 9 -18 19 -38 22 -45 3 -6 35 -53
70 -104 35 -51 68 -107 72 -125 5 -17 20 -47 33 -66 22 -33 27 -46 45 -130 5
-21 14 -44 21 -53 10 -12 9 -16 -4 -21 -9 -3 -25 -4 -36 -1 -10 3 -25 -2 -31
-10 -11 -12 -14 -12 -21 1 -5 9 -20 16 -33 16 -13 0 -26 4 -30 9 -3 6 -91 10
-206 11 -111 0 -205 3 -210 6 -5 3 -9 19 -9 36 0 32 -34 113 -51 124 -5 3 -9
12 -9 20 0 8 -24 47 -53 87 -136 186 -159 237 -155 334 3 80 -7 99 -45 89 -30
-7 -45 -63 -25 -95 9 -15 9 -23 0 -34 -10 -11 -9 -17 2 -27 10 -8 13 -22 9
-40 -4 -21 2 -37 21 -63 14 -18 26 -38 26 -44 0 -6 16 -31 35 -56 19 -25 35
-48 35 -51 0 -3 12 -18 26 -33 15 -15 44 -65 66 -110 21 -45 43 -85 48 -88 12
-8 13 -42 1 -49 -5 -3 -30 1 -57 8 -42 13 -244 33 -394 41 -25 1 -53 3 -62 4
-13 1 -18 10 -18 31 0 16 -7 46 -17 67 -44 102 -106 217 -145 271 -24 33 -50
70 -58 82 -8 12 -30 42 -47 66 -18 23 -33 51 -33 61 0 11 -5 24 -12 31 -6 6
-15 33 -20 59 -21 113 -25 161 -16 213 5 30 13 78 17 105 5 28 16 76 25 108 9
32 16 68 16 80 0 13 6 29 13 36 15 15 15 291 0 325 -6 11 -20 53 -32 91 -35
110 -69 173 -103 190 -17 8 -34 12 -39 9 -14 -8 -11 -42 4 -51 44 -26 108
-262 99 -364 -1 -22 4 -28 25 -34 l28 -7 -22 -16 c-12 -9 -22 -26 -23 -37 0
-58 -6 -104 -12 -111 -5 -4 -8 -18 -8 -31 0 -13 -9 -36 -20 -52 -12 -15 -21
-38 -22 -52 0 -13 -5 -34 -11 -46 -7 -16 -7 -26 3 -38 10 -12 9 -16 -3 -21 -9
-3 -16 -18 -16 -37 0 -18 -1 -63 -3 -100 -2 -38 0 -71 5 -74 4 -2 7 -29 7 -58
0 -43 4 -56 19 -65 12 -6 17 -17 14 -28 -3 -12 6 -30 21 -47 15 -16 24 -35 21
-45 -3 -10 5 -26 20 -40 14 -13 25 -29 25 -36 0 -6 18 -30 39 -52 21 -22 42
-49 45 -60 4 -11 13 -23 21 -26 8 -3 15 -15 15 -26 0 -11 7 -23 15 -26 8 -4
15 -17 15 -30 0 -13 14 -46 30 -72 16 -27 30 -56 30 -64 0 -9 8 -26 19 -39 10
-13 16 -29 14 -35 -2 -7 -51 -10 -142 -8 -90 1 -159 -3 -197 -12 -33 -7 -62
-14 -66 -14 -9 0 -48 74 -48 92 0 7 -13 40 -29 73 -16 33 -39 80 -51 105 -24
52 -27 56 -98 168 -30 46 -72 118 -94 160 -21 42 -43 81 -49 87 -5 5 -9 18 -9
30 0 12 -5 26 -12 33 -33 33 -63 261 -44 336 7 25 15 48 19 52 4 4 7 17 7 29
0 11 4 25 10 31 5 5 28 46 50 89 22 44 51 100 64 125 50 93 57 139 56 333 -2
181 -6 212 -45 302 -7 17 -21 50 -30 75 -10 25 -24 59 -31 77 -8 17 -14 36
-14 42 0 6 -4 11 -9 11 -5 0 -13 10 -16 22 -4 11 -27 48 -51 81 -24 32 -44 65
-44 72 0 7 -7 18 -15 25 -8 7 -15 21 -15 31 0 11 -4 27 -9 37 -43 80 -49 104
-55 203 -8 125 -8 141 3 297 5 68 14 129 20 135 6 6 11 27 11 46 1 20 7 54 15
76 8 22 15 47 15 55 0 8 6 27 14 41 19 36 27 91 17 108 -15 23 -61 5 -61 -24
0 -13 -9 -43 -21 -65 -16 -30 -19 -50 -15 -75 5 -22 3 -35 -4 -35 -12 0 -34
-48 -31 -67 1 -6 -7 -26 -18 -44 -11 -18 -18 -36 -15 -41 3 -5 0 -32 -7 -62
-8 -35 -8 -59 -2 -71 7 -11 6 -29 -3 -56 -11 -30 -11 -44 -2 -64 8 -18 8 -31
0 -49 -10 -23 -7 -83 6 -116 3 -8 7 -26 8 -40 9 -87 16 -118 35 -156 11 -24
25 -46 30 -50 5 -3 9 -18 9 -35 0 -16 4 -29 9 -29 4 0 31 -36 60 -80 28 -44
56 -80 61 -80 6 0 10 -9 10 -20 0 -11 4 -28 8 -38 43 -87 52 -109 52 -122 0
-9 5 -21 11 -27 17 -17 31 -82 33 -153 1 -36 5 -71 9 -77 4 -7 4 -21 -2 -30
-5 -11 -6 -36 0 -63 5 -30 4 -61 -3 -93 -10 -40 -10 -50 2 -57 12 -7 12 -12
-3 -28 -9 -10 -17 -25 -17 -33 0 -8 -6 -21 -12 -27 -10 -10 -10 -17 0 -32 10
-17 10 -20 -3 -20 -8 0 -15 -5 -15 -10 0 -6 -10 -15 -23 -21 -28 -13 -53 -69
-31 -69 24 0 16 -14 -17 -29 -22 -10 -28 -16 -20 -24 17 -17 13 -27 -14 -37
-21 -8 -24 -14 -19 -40 5 -22 2 -36 -11 -50 -9 -10 -14 -24 -10 -30 4 -6 1
-17 -5 -25 -6 -8 -9 -23 -5 -34 3 -10 1 -22 -5 -26 -15 -9 -12 -81 4 -94 8 -6
14 -32 15 -61 0 -28 7 -64 16 -80 8 -16 15 -38 15 -50 0 -11 5 -20 10 -20 6 0
10 -6 10 -14 0 -16 81 -174 112 -218 10 -14 18 -28 18 -31 0 -3 19 -34 43 -69
56 -85 67 -105 67 -123 0 -8 9 -20 20 -27 11 -7 20 -24 20 -38 0 -14 7 -34 15
-44 8 -11 15 -27 15 -37 0 -9 7 -22 15 -29 8 -7 15 -20 15 -30 0 -10 7 -23 15
-30 24 -20 7 -30 -50 -30 -30 0 -65 -4 -79 -10 -28 -10 -149 -22 -241 -22 -33
-1 -65 -5 -71 -9 -6 -5 -47 -12 -90 -15 -43 -4 -92 -13 -108 -21 -18 -9 -41
-12 -61 -9 -24 5 -45 0 -73 -14 -22 -12 -64 -23 -94 -25 -84 -7 -263 -46 -300
-66 -36 -19 -101 -37 -113 -33 -7 3 -30 38 -50 78 -20 41 -47 84 -59 97 -23
26 -126 176 -126 185 0 3 -5 10 -10 17 -33 39 -71 107 -76 137 -3 19 -13 46
-22 60 -9 14 -15 33 -13 43 1 10 -2 24 -9 31 -16 21 -20 224 -3 237 7 6 13 26
13 43 0 18 7 41 15 52 8 10 15 25 15 32 1 34 42 105 135 232 80 110 87 121
113 175 28 60 44 106 49 142 3 18 11 38 19 44 14 12 20 80 7 93 -4 3 -8 27
-10 52 -3 66 -27 87 -77 68 -20 -8 -21 -33 -2 -40 10 -4 13 -23 12 -74 -2 -50
1 -71 11 -74 24 -9 14 -29 -12 -24 -21 5 -25 1 -29 -26 -3 -17 -8 -48 -11 -69
-3 -21 -14 -43 -25 -50 -11 -6 -20 -22 -20 -34 0 -13 -6 -23 -14 -23 -18 0
-27 -25 -14 -38 17 -17 -1 -35 -19 -20 -14 11 -15 10 -9 -10 6 -16 3 -22 -8
-22 -9 0 -18 -11 -22 -24 -4 -17 -11 -23 -21 -19 -13 5 -15 1 -9 -20 6 -26 -6
-37 -19 -17 -12 19 -26 -2 -20 -29 4 -21 -1 -33 -30 -61 -19 -19 -35 -39 -35
-46 0 -6 -7 -17 -15 -24 -8 -6 -14 -24 -13 -38 1 -43 -13 -106 -28 -122 -7 -9
-11 -26 -7 -39 3 -12 0 -33 -7 -46 -9 -17 -10 -31 -2 -53 5 -16 8 -41 5 -55
-3 -15 0 -34 7 -42 6 -8 9 -23 5 -34 -3 -11 1 -34 9 -50 9 -17 16 -39 16 -49
0 -11 7 -22 15 -26 8 -3 15 -17 15 -31 0 -30 60 -131 165 -275 45 -62 62 -88
72 -110 4 -8 19 -33 35 -54 51 -71 30 -96 -80 -96 -31 0 -74 -5 -96 -11 -48
-13 -237 -17 -335 -7 -70 7 -75 9 -110 49 -55 64 -101 141 -101 171 0 15 -4
30 -10 33 -5 3 -10 26 -10 51 0 31 -5 46 -15 50 -18 7 -47 -14 -39 -28 4 -5 1
-21 -6 -34 -13 -24 -6 -48 32 -114 4 -8 11 -22 14 -30 12 -33 38 -76 58 -98
17 -20 18 -24 6 -32 -8 -5 -23 -7 -33 -4 -9 3 -100 7 -202 9 -186 3 -215 8
-215 41 0 8 -5 14 -10 14 -6 0 -14 10 -19 23 -5 13 -20 36 -33 53 -51 64 -68
95 -79 141 -7 26 -18 62 -25 79 -8 18 -15 65 -16 105 -2 82 10 113 68 185 48
60 62 93 43 105 -27 17 -54 5 -74 -35 -11 -22 -32 -51 -47 -66 -16 -15 -28
-37 -28 -49 0 -21 -26 -70 -44 -82 -5 -4 -6 -24 -1 -45 4 -22 7 -56 6 -76 -1
-22 3 -38 9 -38 7 0 10 -11 8 -24 -1 -12 5 -38 14 -57 9 -19 19 -41 22 -49 24
-61 94 -155 149 -197 39 -30 23 -36 -97 -38 -119 -2 -356 -43 -380 -66 -21
-19 -62 -9 -91 24 -41 43 -137 166 -158 199 -29 46 -50 120 -51 178 -1 73 35
137 131 238 40 42 73 82 73 89 0 7 10 23 22 37 70 76 71 78 71 209 0 134 -12
185 -67 288 -59 110 -222 282 -326 344 -209 125 -242 168 -238 307 l3 83 -38
-1 c-47 -2 -55 -9 -34 -31 10 -12 13 -23 7 -33 -11 -21 -15 -100 -5 -129 4
-13 23 -46 42 -72 32 -45 72 -75 226 -173 74 -46 135 -103 206 -190 88 -108
101 -128 101 -162 0 -24 7 -38 27 -52 22 -17 25 -23 16 -33 -10 -10 -10 -16 3
-30 13 -14 13 -21 3 -37 -10 -16 -10 -26 -1 -47 16 -34 15 -67 -2 -90 -8 -11
-12 -25 -9 -32 3 -7 -7 -29 -21 -47 -14 -19 -26 -42 -26 -51 0 -8 -8 -18 -17
-22 -27 -9 -111 -103 -128 -141 -8 -19 -24 -36 -35 -39 -11 -3 -20 -13 -20
-23 0 -10 -7 -23 -15 -30 -17 -15 -20 -50 -4 -50 8 0 8 -4 -1 -15 -6 -8 -9
-23 -5 -35 4 -12 2 -20 -6 -20 -19 0 -4 -89 24 -148 47 -97 77 -139 180 -245
37 -39 36 -67 -2 -67 -15 0 -59 -12 -97 -26 -38 -14 -79 -28 -92 -31 -12 -3
-25 -9 -28 -14 -15 -25 -74 15 -216 146 -98 91 -182 235 -181 308 1 56 24 160
39 178 8 8 14 25 14 38 0 12 7 24 15 27 8 4 15 12 15 20 0 7 14 29 30 47 17
19 30 41 30 50 0 8 7 20 15 27 8 7 15 19 15 27 0 8 7 28 16 45 18 35 22 204 5
235 -5 10 -15 38 -22 63 -15 52 -56 146 -72 167 -79 100 -225 244 -284 280
-44 28 -71 41 -168 83 -46 20 -134 40 -195 46 -151 12 -322 4 -367 -18 -13 -6
-26 -9 -29 -5 -4 3 -19 0 -35 -9 -16 -8 -39 -12 -52 -9 -15 4 -28 1 -36 -9 -8
-9 -24 -16 -38 -16 -13 0 -27 -8 -31 -17 -8 -21 -21 -24 -121 -30 -109 -7
-167 14 -247 89 -43 41 -64 68 -64 84 0 12 -4 25 -9 28 -4 3 -10 39 -13 80 -4
56 -10 81 -27 102 -44 55 -56 59 -185 56 -66 -1 -124 -6 -130 -11 -6 -5 -28
-12 -48 -16 -21 -4 -38 -12 -38 -17 0 -11 -160 -5 -288 10 -115 14 -192 53
-271 137 -33 36 -64 78 -67 93 -4 15 -12 34 -19 42 -7 8 -15 31 -18 50 -3 19
-10 55 -17 80 -11 40 -10 85 4 230 1 14 5 32 9 40 4 8 13 42 22 74 8 33 20 66
27 75 7 9 21 32 31 51 10 19 39 58 65 85 68 73 142 173 142 194 0 9 4 21 9 26
9 10 14 49 12 91 -3 58 -143 150 -341 224 -19 7 -42 19 -50 25 -8 7 -21 14
-28 17 -43 13 -242 224 -242 256 0 5 -7 15 -15 22 -8 7 -15 21 -15 31 0 28
-49 38 -67 14 -15 -22 -17 -55 -3 -55 5 0 19 -19 31 -42 12 -24 30 -52 40 -63
11 -11 45 -48 76 -83 72 -80 198 -172 236 -172 4 0 29 -9 55 -21 26 -11 63
-27 82 -35 75 -33 103 -51 141 -92 43 -47 46 -57 24 -66 -17 -6 -20 -42 -5
-51 6 -3 10 -11 10 -17 0 -7 -5 -6 -15 2 -19 16 -35 5 -35 -25 0 -12 -7 -26
-16 -29 -9 -4 -14 -13 -10 -21 3 -9 0 -15 -9 -15 -8 0 -15 -9 -15 -20 0 -13
-5 -18 -15 -14 -9 4 -15 0 -15 -8 0 -8 -10 -20 -23 -27 -32 -17 -71 -68 -119
-157 -33 -62 -41 -87 -44 -141 -1 -35 -8 -70 -13 -77 -6 -7 -8 -16 -4 -19 3
-4 0 -19 -7 -33 -13 -23 -12 -27 3 -35 21 -12 22 -52 2 -69 -19 -16 -19 -34
-1 -49 8 -7 14 -34 15 -68 0 -31 7 -64 14 -72 7 -9 22 -36 32 -61 32 -76 153
-194 245 -237 42 -20 132 -41 205 -48 39 -3 95 -10 126 -16 44 -7 70 -6 120 7
35 9 70 21 77 27 15 12 218 23 255 13 22 -5 24 -12 30 -88 5 -57 11 -85 22
-90 9 -6 13 -18 9 -36 -5 -23 3 -35 48 -80 29 -29 78 -67 109 -86 59 -35 149
-62 175 -52 9 4 22 2 29 -4 15 -13 146 11 190 34 17 9 37 16 45 16 8 0 24 7
34 15 11 8 32 15 46 15 14 0 30 4 36 9 13 13 142 30 182 24 18 -3 38 0 46 6
10 8 16 9 21 2 3 -6 39 -10 83 -9 77 1 193 -22 242 -48 14 -7 50 -24 80 -38
67 -30 248 -202 306 -291 37 -56 84 -186 83 -230 0 -11 0 -47 1 -80 1 -84 -8
-120 -38 -152 -24 -25 -52 -68 -52 -80 0 -2 9 -1 20 2 11 3 20 3 20 -1 0 -13
-43 -44 -62 -44 -11 0 -18 -7 -18 -19 0 -10 -6 -21 -14 -24 -7 -3 -16 -20 -19
-39 -3 -18 -11 -58 -18 -88 -13 -63 -14 -211 -1 -219 5 -3 19 -27 30 -54 43
-98 190 -255 305 -326 37 -23 53 -59 20 -47 -15 6 -78 -18 -93 -35 -3 -3 -22
-16 -44 -28 -47 -29 -149 -129 -200 -195 -35 -46 -37 -53 -31 -95 7 -48 57
-121 138 -202 24 -24 52 -60 61 -79 14 -31 32 -56 111 -152 7 -9 18 -26 25
-37 6 -12 17 -21 25 -21 8 0 15 -8 15 -18 0 -11 9 -27 20 -37 11 -10 20 -24
20 -31 0 -7 6 -19 12 -26 24 -25 58 -77 58 -88 0 -5 4 -10 9 -10 5 0 12 -8 15
-17 4 -10 20 -33 36 -52 17 -18 30 -37 30 -42 0 -5 20 -42 45 -82 25 -41 45
-81 45 -88 0 -8 7 -23 15 -33 8 -11 15 -27 15 -36 0 -8 12 -29 27 -46 18 -19
29 -43 30 -65 1 -18 15 -68 32 -109 17 -41 31 -83 31 -93 0 -10 6 -20 13 -22
6 -3 13 -24 14 -48 1 -24 8 -61 17 -82 9 -20 16 -59 16 -86 0 -26 5 -51 10
-54 6 -4 8 -15 5 -24 -3 -10 1 -24 10 -31 10 -9 12 -17 5 -30 -5 -9 -7 -20 -5
-22 3 -3 6 -49 7 -102 1 -67 6 -102 15 -111 16 -16 17 -35 2 -35 -8 0 -9 -20
-4 -67 7 -62 16 -516 14 -710 0 -44 4 -84 9 -87 6 -3 13 -37 17 -76 4 -39 11
-72 15 -75 4 -3 11 -31 15 -62 4 -32 13 -69 20 -83 7 -14 16 -42 20 -61 4 -20
24 -71 46 -114 21 -44 39 -85 39 -92 0 -7 4 -13 9 -13 5 0 12 -12 15 -26 4
-15 33 -65 64 -111 31 -46 66 -99 77 -117 37 -60 46 -67 79 -61 28 5 29 5 14
-8 -10 -8 -18 -17 -18 -21 0 -30 239 -284 337 -359 34 -26 68 -53 75 -60 19
-17 45 -32 106 -62 l52 -26 0 -62 c1 -35 7 -73 15 -87 8 -14 14 -37 15 -52 0
-15 5 -30 10 -33 6 -3 10 -19 10 -35 0 -30 42 -80 67 -80 6 0 18 -6 25 -12 8
-7 29 -21 48 -32 121 -65 144 -76 152 -76 6 0 26 -7 46 -16 21 -8 51 -21 67
-28 91 -40 187 -70 255 -80 19 -3 78 -15 130 -27 136 -30 227 -37 468 -34 202
3 332 16 447 46 22 6 67 14 100 19 81 10 172 30 218 46 20 8 46 14 56 14 10 0
24 7 31 15 7 8 29 15 50 15 21 0 43 7 50 15 7 8 27 15 44 15 17 1 42 7 56 15
14 8 35 14 48 15 12 0 25 7 28 15 4 9 19 15 39 15 18 0 38 7 45 15 7 8 21 15
31 15 10 0 35 11 55 25 20 13 51 27 69 31 19 3 36 12 39 20 3 8 14 14 25 14
11 0 23 4 26 10 3 5 30 21 58 36 29 14 66 34 82 44 17 11 39 24 50 29 11 5 38
28 60 50 21 23 44 41 50 41 6 0 22 11 34 24 18 19 23 37 24 90 1 42 6 67 14
71 16 5 18 111 3 120 -22 14 -6 40 75 120 47 46 85 88 85 94 0 6 19 32 43 60
47 55 58 69 122 159 25 34 45 65 45 68 0 3 11 20 24 37 13 18 41 66 63 107 22
41 50 91 62 110 22 37 23 39 53 110 10 25 23 53 28 62 6 10 10 24 10 32 0 7 9
34 21 60 11 25 18 50 15 55 -3 5 1 14 9 21 8 7 15 22 15 34 0 11 7 34 15 50 8
15 15 43 15 61 0 20 6 35 15 39 9 3 15 18 15 39 0 18 5 38 11 44 5 5 12 29 14
53 3 23 11 56 20 73 8 16 15 42 15 56 0 14 6 46 14 71 36 111 46 155 46 199 0
26 7 56 15 68 8 12 15 36 14 55 0 18 5 56 11 83 18 79 29 189 20 198 -4 5 1
18 12 29 13 13 18 29 15 44 -2 14 2 54 9 90 8 36 11 70 8 75 -3 6 -1 15 4 22
5 7 13 36 17 65 4 28 11 52 16 52 5 0 9 17 9 38 0 20 0 48 0 61 0 14 7 35 15
47 8 13 15 36 15 51 0 15 7 41 15 57 8 15 15 39 15 53 0 13 6 36 14 51 7 15
16 52 20 82 6 52 29 133 45 155 4 5 13 28 20 50 12 35 77 175 101 215 5 8 29
51 55 94 26 44 61 98 78 121 18 24 39 53 47 65 8 12 25 34 38 48 12 15 35 45
49 67 33 49 132 148 233 234 41 35 82 72 90 83 13 18 37 43 63 66 29 26 81
108 97 154 22 63 18 91 -23 154 -39 60 -104 127 -115 120 -6 -3 -22 -1 -36 5
-33 15 -39 72 -13 110 15 22 18 40 14 105 -4 75 -19 149 -38 186 -5 10 -9 23
-9 29 0 22 -49 117 -64 122 -41 16 -61 -27 -32 -69 24 -33 56 -140 56 -184 0
-27 5 -43 15 -46 19 -8 19 -21 0 -40 -10 -11 -14 -35 -14 -79 1 -78 -4 -88
-36 -73 -14 6 -25 14 -25 18 0 4 -27 11 -61 14 -33 4 -73 12 -87 18 -15 6 -43
10 -62 9 -30 0 -58 6 -120 27 -8 3 -37 7 -65 9 -27 2 -51 6 -53 8 -2 2 -5 75
-6 162 -3 149 -18 253 -38 253 -5 0 -8 5 -8 11 0 18 -109 195 -135 219 -14 13
-25 27 -25 31 0 4 -20 37 -45 73 -25 37 -45 74 -45 84 0 10 -4 22 -8 27 -13
14 -50 135 -53 170 -2 17 2 39 8 50 6 11 13 40 17 64 6 42 26 97 47 131 5 8
17 31 27 50 9 19 23 40 30 45 15 12 33 42 63 105 12 25 28 53 36 62 12 13 16
49 17 161 1 124 -1 146 -16 161 -10 10 -18 23 -18 30 0 38 -217 206 -267 206
-9 0 -24 6 -32 14 -19 16 -90 36 -150 43 -24 3 -52 14 -62 24 -10 10 -28 19
-38 19 -11 0 -22 4 -25 9 -3 5 -20 12 -38 15 -73 14 -198 93 -198 125 0 9 -7
25 -15 35 -12 16 -14 40 -9 117 5 96 5 97 -22 122 -15 14 -38 31 -53 38 -48
24 -111 80 -111 98 0 10 -6 24 -14 30 -24 20 -40 150 -25 203 6 21 3 30 -14
42 l-22 15 21 0 c23 1 37 22 28 44 -5 15 82 101 118 117 13 5 31 14 41 20 9 5
25 15 35 20 21 12 23 13 95 36 31 10 57 21 57 25 0 4 11 10 24 13 13 3 42 25
66 48 46 46 44 34 18 167 -11 56 -10 67 5 93 9 16 17 38 17 49 0 10 20 48 45
85 25 36 45 68 45 71 0 3 14 22 30 43 17 21 30 42 30 48 0 5 7 15 16 23 31 25
2 147 -66 280 -24 46 -51 100 -61 119 -34 67 -69 149 -69 162 0 7 -6 31 -14
53 -10 29 -11 54 -5 90 4 28 11 70 15 95 10 63 60 155 108 196 56 48 64 54 72
54 4 0 25 9 48 19 105 49 221 64 311 40 22 -5 58 -15 80 -20 22 -5 54 -16 72
-24 17 -8 36 -15 42 -15 6 0 19 -4 29 -9 9 -6 53 -26 97 -46 44 -20 88 -40 97
-45 29 -16 34 -12 52 53 42 144 119 254 226 323 72 46 109 64 128 64 10 0 23
5 28 10 16 16 171 31 246 24 47 -5 72 -3 82 5 11 9 20 9 35 2 11 -6 29 -11 40
-11 25 0 185 -52 250 -82 25 -11 60 -31 78 -44 17 -13 35 -24 39 -24 27 0 184
-153 229 -225 43 -67 105 -215 105 -251 0 -15 5 -42 12 -60 9 -25 9 -39 0 -58
-6 -14 -7 -28 -3 -31 5 -2 12 -21 16 -41 5 -27 2 -41 -11 -55 -13 -14 -14 -22
-6 -32 8 -10 8 -17 1 -24 -6 -6 -11 -27 -11 -47 0 -21 -6 -39 -14 -44 -9 -5
-15 -27 -17 -60 -1 -29 -6 -52 -10 -52 -4 0 -13 -13 -18 -30 -6 -16 -15 -30
-20 -30 -5 0 -9 -13 -9 -29 0 -21 -6 -32 -20 -36 -13 -4 -20 -15 -20 -31 0
-13 -3 -24 -7 -24 -5 0 -19 -16 -32 -35 -13 -19 -32 -35 -42 -35 -10 0 -25
-13 -34 -30 -9 -16 -22 -30 -29 -30 -8 0 -20 -10 -29 -23 -8 -13 -31 -34 -51
-47 -27 -18 -36 -31 -33 -46 3 -18 -5 -22 -74 -38 -43 -10 -88 -26 -100 -37
-12 -11 -30 -17 -39 -14 -10 3 -23 -1 -30 -10 -9 -10 -16 -12 -25 -5 -10 8
-35 8 -150 0 -19 -1 -18 -2 3 -10 12 -5 22 -14 22 -20 0 -13 -47 -13 -55 1 -4
6 -31 9 -63 7 -58 -2 -182 34 -182 53 0 5 -6 9 -13 9 -18 0 -127 78 -127 91 0
6 -10 31 -21 57 -17 36 -20 58 -16 99 4 33 1 55 -5 60 -7 4 -3 9 10 14 16 6
22 17 22 37 0 15 7 37 15 48 8 10 15 26 15 35 0 20 69 129 81 129 5 0 9 6 9
13 0 8 9 22 20 32 11 10 20 24 20 31 0 7 -9 16 -20 19 -35 11 -22 26 18 19 34
-5 41 -2 86 40 30 28 65 50 90 57 23 6 55 15 73 20 25 8 39 5 75 -13 43 -22
54 -31 96 -79 l24 -27 -23 -93 c-12 -52 -28 -101 -36 -110 -7 -8 -13 -19 -13
-23 0 -4 -11 -22 -25 -40 -38 -50 -30 -96 15 -96 10 0 99 150 119 200 8 19 16
65 18 101 4 58 1 72 -20 106 -14 22 -39 51 -56 64 -90 71 -90 71 -158 75 -64
4 -122 -8 -153 -32 -8 -6 -27 -14 -42 -18 -30 -7 -36 -24 -16 -44 9 -9 7 -12
-9 -12 -12 0 -25 5 -28 10 -9 15 -25 2 -25 -21 0 -11 -10 -23 -22 -28 -31 -12
-53 -39 -69 -83 -8 -24 -20 -38 -33 -40 -16 -2 -20 -9 -18 -26 3 -17 -2 -25
-17 -29 -14 -3 -21 -13 -21 -28 0 -12 -7 -28 -15 -35 -8 -7 -15 -29 -15 -49 0
-20 -7 -54 -15 -76 -16 -45 -20 -186 -6 -213 6 -9 19 -37 31 -62 23 -49 109
-121 190 -160 25 -12 52 -25 61 -30 37 -19 175 -31 225 -19 27 6 63 11 81 10
18 0 54 6 80 14 26 8 58 15 70 15 12 0 34 6 50 14 15 8 54 26 86 41 68 33 174
110 238 174 52 53 159 192 181 236 42 84 73 178 83 255 3 24 10 49 15 55 5 6
7 69 6 140 -3 122 -16 201 -44 268 -7 16 -12 32 -12 37 0 5 -27 54 -61 110
-53 88 -176 230 -199 230 -4 0 -18 9 -31 20 -13 11 -28 23 -34 28 -5 4 -23 15
-40 23 -16 9 -55 29 -85 45 -30 17 -89 40 -130 53 -41 12 -86 27 -99 32 -13 5
-71 12 -130 14 -58 3 -126 7 -151 9 -25 2 -67 -1 -95 -8z m-2875 -5369 c19 1
52 5 73 8 21 4 43 3 50 -3 6 -5 44 -8 83 -7 39 2 77 -1 85 -6 10 -6 13 -25 11
-70 -1 -34 4 -96 12 -138 8 -42 13 -104 10 -138 -2 -46 0 -64 12 -73 13 -11
13 -15 -1 -30 -8 -9 -22 -51 -30 -92 -8 -41 -25 -97 -39 -125 -15 -28 -26 -55
-26 -61 0 -5 -7 -15 -15 -22 -8 -7 -15 -20 -15 -30 0 -10 -7 -23 -15 -30 -8
-7 -15 -19 -15 -27 0 -8 -13 -32 -28 -52 -32 -41 -62 -97 -62 -118 0 -25 48
-14 83 20 19 17 48 54 63 82 16 27 34 59 41 70 7 11 17 32 24 48 6 15 15 27
20 27 5 0 9 13 9 28 0 15 5 33 11 39 7 7 20 36 29 65 33 98 33 445 -1 571 -9
36 -10 50 -1 59 18 18 112 19 149 2 18 -8 43 -12 56 -9 17 5 26 2 31 -10 8
-21 26 -10 26 16 0 26 27 24 35 -2 6 -17 12 -20 33 -15 49 12 90 10 107 -4 13
-11 21 -11 35 -3 14 10 23 6 49 -19 25 -24 29 -34 20 -45 -9 -10 -8 -18 5 -32
17 -18 17 -20 -4 -31 -13 -7 -19 -17 -16 -28 3 -9 2 -23 -3 -31 -6 -9 -5 -21
2 -33 9 -13 9 -21 1 -26 -17 -11 -36 -51 -29 -62 3 -6 -1 -20 -9 -32 -9 -12
-16 -37 -16 -54 0 -21 -6 -34 -17 -38 -12 -5 -14 -9 -5 -18 19 -19 14 -32 -18
-51 -20 -12 -30 -26 -30 -43 0 -15 -6 -24 -15 -24 -9 0 -36 -20 -61 -44 -34
-32 -45 -49 -42 -67 6 -44 40 -35 105 28 88 86 103 108 163 248 13 31 31 103
41 170 5 33 14 68 19 77 15 27 12 45 -11 61 -13 9 -16 17 -10 22 6 3 11 22 11
42 0 30 3 34 18 28 9 -4 31 -11 47 -15 17 -4 39 -11 49 -15 13 -6 23 -3 33 11
11 15 16 16 22 6 5 -8 17 -11 33 -7 15 4 29 2 32 -4 10 -15 62 -14 86 1 16 10
24 10 40 0 11 -7 52 -12 95 -12 71 0 75 -1 75 -22 0 -13 -7 -32 -15 -42 -8
-11 -15 -32 -15 -47 0 -16 -12 -45 -26 -66 -14 -21 -23 -46 -20 -56 6 -22 -29
-84 -55 -98 -14 -7 -17 -17 -13 -33 4 -18 -2 -28 -28 -48 -19 -14 -42 -43 -53
-64 -11 -22 -26 -43 -32 -47 -7 -4 -13 -14 -13 -22 0 -19 -59 -85 -76 -85 -8
0 -14 -8 -14 -19 0 -10 -16 -31 -35 -45 -37 -29 -44 -56 -20 -76 12 -10 20 -9
42 5 42 27 163 154 163 170 0 8 4 15 9 15 16 0 71 89 65 104 -4 10 2 16 18 18
15 2 24 11 26 26 2 12 8 22 13 22 5 0 14 10 19 23 6 12 14 29 19 37 17 30 41
91 81 200 7 19 16 59 19 88 4 28 11 56 17 62 15 15 74 24 74 11 0 -6 -14 -11
-32 -11 -21 0 -29 -3 -22 -10 13 -13 123 -19 176 -10 27 5 48 4 56 -2 18 -15
86 -30 162 -35 86 -5 93 -8 81 -31 -7 -13 -7 -22 1 -30 9 -9 8 -16 -3 -29 -8
-10 -25 -52 -38 -93 -13 -41 -30 -82 -37 -91 -8 -9 -12 -23 -9 -31 3 -8 -1
-21 -10 -28 -8 -7 -15 -18 -15 -25 0 -6 -8 -19 -19 -29 -11 -10 -16 -25 -14
-39 3 -14 -3 -29 -16 -41 -12 -11 -21 -30 -21 -43 0 -12 -9 -32 -21 -42 -12
-10 -25 -23 -30 -28 -29 -26 -49 -59 -49 -80 0 -32 24 -39 48 -15 11 11 26 24
34 28 21 14 71 84 96 136 13 26 27 50 33 53 5 4 9 17 9 30 0 13 4 25 8 27 5 2
21 30 36 62 27 57 28 60 10 73 -17 13 -17 13 6 11 23 -3 25 1 28 42 2 26 10
48 18 53 10 6 14 27 14 72 0 54 3 66 20 75 11 6 26 8 32 4 13 -8 23 -10 150
-24 48 -5 96 -14 107 -20 11 -5 31 -10 44 -10 14 0 38 -7 53 -15 16 -8 37 -15
48 -15 25 0 88 -39 80 -51 -3 -5 -14 -9 -25 -9 -21 0 -25 -20 -8 -37 7 -7 1
-12 -20 -16 -22 -5 -31 -12 -31 -27 0 -11 -4 -20 -9 -20 -5 0 -12 -8 -16 -18
-3 -11 -17 -24 -30 -30 -31 -14 -32 -27 -2 -37 22 -7 22 -7 -4 -14 -41 -10
-114 -106 -103 -135 4 -10 -2 -17 -20 -22 -14 -3 -26 -12 -26 -19 0 -7 -5 -15
-11 -17 -7 -2 -19 -28 -28 -58 -16 -53 -18 -55 -56 -60 -22 -3 -55 -13 -73
-23 -19 -10 -40 -16 -49 -13 -8 3 -27 -1 -43 -9 -16 -8 -40 -15 -54 -15 -14 0
-27 -4 -31 -9 -3 -5 -36 -13 -73 -16 -37 -4 -80 -13 -97 -20 -29 -13 -78 -23
-140 -31 -47 -5 -89 -16 -101 -26 -6 -4 -19 -6 -28 -2 -9 3 -22 2 -29 -4 -6
-5 -39 -7 -72 -4 -104 8 -216 2 -236 -14 -9 -7 -46 -8 -114 -3 -66 5 -104 4
-112 -3 -9 -7 -22 -7 -43 2 -34 14 -127 15 -144 2 -6 -5 -38 -12 -71 -16 -137
-14 -301 -38 -317 -47 -10 -5 -26 -9 -37 -9 -10 0 -24 -7 -31 -15 -7 -8 -29
-15 -49 -15 -20 0 -47 -7 -60 -16 -12 -9 -39 -18 -59 -20 -66 -7 -117 -16
-127 -24 -5 -4 -26 -10 -45 -14 -62 -11 -174 -49 -192 -63 -11 -10 -18 -11
-23 -4 -8 14 -58 14 -71 2 -5 -6 -56 -13 -114 -16 -58 -4 -112 -9 -120 -12 -8
-3 -60 -7 -115 -8 -55 -2 -100 -4 -100 -5 0 -2 -186 1 -220 4 -16 2 -38 6 -48
11 -10 4 -29 3 -44 -4 -15 -7 -30 -8 -37 -3 -17 14 -106 25 -106 13 0 -5 -14
-2 -31 6 -18 9 -59 19 -93 24 -34 4 -83 12 -111 18 -27 5 -102 12 -166 14 -63
2 -122 7 -129 12 -22 14 -210 17 -210 4 0 -7 -14 -9 -42 -4 -42 6 -104 9 -143
7 -11 -1 -51 1 -90 4 -39 3 -96 1 -130 -6 -33 -6 -71 -13 -85 -16 -14 -2 -76
-7 -138 -9 -63 -3 -118 -7 -123 -10 -5 -3 -18 -1 -29 5 -14 8 -25 7 -40 -2
-16 -10 -24 -10 -40 0 -13 8 -61 12 -135 12 -117 0 -136 7 -97 36 14 10 17 27
16 101 -2 128 -17 214 -50 290 -8 17 -14 37 -14 45 0 7 -7 22 -15 32 -8 11
-15 25 -15 32 0 38 -153 218 -212 250 -19 10 -18 11 9 42 29 34 67 41 104 21
16 -8 26 -5 51 16 22 18 34 23 41 16 13 -13 134 -15 141 -2 3 5 46 8 94 6 92
-3 132 -17 132 -46 0 -9 7 -22 15 -29 18 -15 68 -87 78 -112 3 -10 11 -18 17
-18 5 0 10 -13 10 -28 0 -15 5 -33 11 -39 11 -11 21 -45 43 -143 10 -44 17
-55 37 -60 23 -6 23 -6 4 -17 -19 -11 -19 -12 -2 -31 11 -12 14 -23 8 -26 -5
-3 -10 -33 -10 -65 0 -45 4 -61 16 -65 14 -6 14 -8 -1 -24 -9 -10 -16 -35 -16
-55 0 -20 -5 -37 -11 -37 -6 0 -9 -12 -7 -27 2 -22 9 -29 30 -31 22 -3 32 4
49 30 19 31 20 42 15 173 -3 77 -10 158 -15 180 -6 22 -15 63 -21 90 -6 28
-18 64 -26 82 -8 17 -14 35 -14 40 0 15 -33 74 -83 150 -32 47 -55 73 -70 75
-14 2 -23 11 -25 26 -3 19 1 22 35 24 121 5 135 3 145 -16 10 -19 11 -19 24
-2 11 15 21 17 66 11 29 -4 56 -12 60 -18 5 -8 14 -7 32 1 33 15 130 -13 122
-35 -3 -7 8 -33 24 -57 17 -24 30 -50 30 -56 0 -7 14 -42 30 -77 17 -34 30
-71 30 -82 0 -10 7 -35 15 -54 8 -20 15 -50 15 -67 0 -17 6 -33 13 -35 13 -6
15 -162 3 -200 -5 -15 1 -28 24 -50 30 -29 32 -29 46 -11 10 14 12 40 9 100
-3 45 -5 97 -4 116 0 37 -27 171 -42 205 -4 11 -13 38 -19 60 -6 22 -20 54
-30 70 -11 17 -22 37 -26 45 -3 8 -10 22 -15 30 -5 8 -13 25 -19 38 -5 12 -14
22 -20 22 -5 0 -10 7 -10 15 0 18 122 25 165 9 21 -9 46 -9 85 -2 30 5 84 11
120 13 74 3 150 19 178 36 25 16 82 -13 82 -41 0 -20 2 -27 34 -90 10 -19 27
-61 38 -95 11 -33 26 -66 32 -74 6 -8 11 -39 11 -70 l0 -56 48 -3 c36 -2 47 0
47 12 0 8 -4 17 -9 20 -4 3 -12 33 -15 68 -4 34 -14 71 -22 82 -8 11 -14 26
-14 33 0 17 -57 137 -93 196 -33 54 -29 66 24 72 50 5 179 34 200 45 10 6 38
10 63 10 25 0 48 5 52 11 3 6 15 9 25 6 10 -3 30 3 43 14 28 22 65 25 87 7 8
-7 23 -38 33 -68 11 -30 23 -59 27 -64 5 -6 9 -23 9 -40 0 -16 8 -38 18 -49
12 -15 14 -21 5 -24 -17 -6 -17 -55 -1 -71 9 -9 10 -17 2 -30 -15 -25 -11
-207 5 -226 11 -13 10 -19 -7 -33 -17 -15 -19 -25 -13 -63 5 -34 3 -54 -10
-80 -9 -20 -20 -57 -24 -83 -4 -26 -11 -50 -16 -53 -5 -3 -9 -23 -9 -44 0 -21
-5 -40 -11 -42 -15 -5 -1 -55 18 -62 19 -8 53 11 53 28 0 8 7 19 16 27 9 7 13
21 10 33 -3 11 -1 26 5 32 6 7 11 28 11 46 0 18 4 38 8 43 13 18 20 80 12 110
-6 22 -4 37 7 54 24 38 28 327 5 446 -18 101 -39 160 -66 191 -28 32 -22 44
20 44 21 0 47 7 58 15 25 19 53 19 60 0 8 -19 28 -19 43 -1 6 7 39 16 73 20
33 3 67 11 74 17 11 9 18 8 29 -1 12 -10 25 -10 59 -1 25 6 64 11 88 11 24 0
49 5 55 11 7 7 20 8 34 3 13 -4 39 -6 57 -5 36 3 52 -19 32 -44 -8 -10 -11
-33 -8 -65 3 -28 1 -53 -4 -56 -5 -3 -5 -11 0 -17 8 -12 7 -164 -2 -264 -3
-28 -14 -67 -25 -86 -17 -31 -18 -37 -5 -48 13 -10 13 -14 -1 -29 -8 -9 -15
-22 -15 -29 0 -6 -9 -24 -20 -39 -23 -31 -54 -147 -46 -168 6 -16 -9 -45 -57
-106 -16 -21 -25 -43 -21 -49 4 -7 -1 -18 -11 -25 -16 -12 -17 -17 -5 -39 22
-41 56 -30 91 30 16 28 31 57 35 65 3 8 12 30 20 48 8 18 14 42 14 53 0 12 6
35 13 52 19 44 37 95 48 137 6 19 15 45 21 57 6 12 8 31 5 42 -3 11 4 38 15
60 17 34 19 63 21 242 0 112 -1 230 -4 262 l-5 58 46 -8 c25 -4 61 -7 80 -6z
m2794 -329 c31 -34 56 -68 56 -75 0 -7 11 -18 25 -23 24 -9 35 -30 16 -30 -5
0 -11 -14 -15 -32 -7 -34 -51 -88 -72 -88 -6 0 -14 -7 -18 -15 -3 -8 -16 -15
-30 -15 -16 0 -27 -7 -31 -20 -3 -11 -18 -23 -33 -26 -15 -3 -45 -13 -67 -23
-22 -10 -71 -29 -110 -42 -38 -13 -84 -31 -102 -41 -33 -18 -51 -10 -36 16 4
8 33 41 63 74 30 34 60 67 65 74 6 7 25 32 43 54 17 23 32 45 32 49 0 4 11 19
25 33 27 30 65 99 65 120 0 18 41 72 56 72 7 0 37 -28 68 -62z m-6085 -119
c81 -86 171 -212 171 -239 0 -9 4 -20 9 -25 15 -17 51 -130 51 -161 0 -17 5
-35 10 -40 17 -17 29 -232 14 -255 -9 -15 -51 -10 -65 7 -9 11 -23 14 -46 11
-18 -3 -35 -3 -37 1 -2 4 -28 7 -58 6 -29 -1 -57 2 -63 6 -16 12 -131 39 -193
46 -32 3 -73 12 -92 19 -19 8 -75 21 -125 31 -49 9 -99 22 -110 29 -11 7 -36
16 -55 19 -45 8 -173 127 -196 182 l-16 38 33 30 c77 66 109 97 109 104 0 4
15 13 33 21 17 8 48 26 67 41 19 15 42 30 50 33 8 4 33 18 55 32 22 13 48 24
58 25 18 0 115 -67 194 -135 86 -74 163 -219 163 -306 0 -21 5 -39 13 -42 9
-3 9 -7 1 -18 -7 -8 -12 -33 -12 -56 -1 -41 1 -43 28 -43 45 0 52 24 41 136
-10 95 -32 175 -58 205 -7 8 -13 19 -13 23 0 8 -2 10 -62 80 -55 63 -74 80
-155 136 -37 25 -68 50 -70 56 -2 7 21 13 65 16 66 5 116 25 135 55 18 30 51
12 126 -68z m3585 -258 c3 -4 3 -11 0 -14 -8 -8 -34 3 -34 14 0 11 27 12 34 0z
m2376 -18 c0 -21 -36 -57 -66 -67 -12 -3 -36 -22 -55 -41 -19 -18 -47 -38 -62
-44 -15 -6 -27 -17 -27 -25 0 -8 -19 -30 -42 -49 -35 -29 -40 -38 -30 -50 11
-12 8 -17 -18 -25 -16 -6 -30 -18 -30 -26 0 -13 -12 -30 -67 -93 -13 -14 -23
-35 -23 -45 0 -11 -16 -34 -35 -52 -19 -19 -35 -38 -35 -43 0 -6 -9 -18 -20
-28 -13 -12 -18 -25 -14 -41 4 -16 0 -25 -14 -33 -26 -14 -63 -77 -56 -95 3
-9 -3 -17 -15 -21 -15 -4 -22 -18 -27 -53 -3 -26 -12 -57 -20 -69 -8 -12 -14
-29 -14 -37 0 -9 -9 -20 -20 -26 -15 -8 -19 -17 -14 -35 4 -16 2 -25 -6 -25
-8 0 -10 -9 -6 -24 4 -15 0 -28 -9 -36 -10 -9 -12 -17 -5 -30 7 -12 1 -32 -20
-74 -17 -32 -30 -59 -30 -61 0 -1 12 -6 26 -9 29 -8 27 -30 -4 -34 -34 -5 -48
-30 -33 -55 11 -17 11 -22 -3 -32 -21 -16 -40 -103 -41 -186 0 -49 -5 -72 -17
-86 -11 -12 -17 -34 -17 -59 1 -21 -6 -79 -15 -127 -10 -48 -16 -98 -14 -110
2 -12 -5 -29 -16 -38 -16 -13 -17 -18 -5 -37 11 -17 11 -24 1 -34 -18 -18 -15
-69 6 -84 16 -11 15 -13 -12 -23 -20 -8 -26 -16 -22 -27 4 -9 1 -31 -6 -50 -9
-26 -9 -36 1 -48 8 -10 9 -16 3 -16 -19 0 -40 -54 -28 -73 8 -13 8 -20 -2 -26
-8 -4 -13 -17 -11 -27 2 -18 -1 -31 -22 -82 -5 -13 -9 -31 -9 -41 0 -10 -6
-24 -14 -30 -10 -8 -13 -23 -9 -46 4 -27 2 -36 -11 -41 -12 -5 -16 -14 -12
-30 3 -12 2 -25 -3 -28 -5 -3 -12 -29 -16 -56 -4 -28 -15 -68 -26 -90 -22 -44
-24 -66 -8 -76 7 -4 2 -11 -13 -18 -19 -9 -24 -21 -26 -64 -2 -39 -8 -54 -23
-62 -10 -6 -19 -19 -19 -29 0 -10 -7 -24 -15 -31 -10 -8 -12 -17 -6 -28 6 -11
2 -27 -15 -51 -13 -20 -24 -48 -24 -62 0 -15 -7 -32 -15 -39 -8 -7 -15 -20
-15 -30 0 -10 -7 -23 -15 -30 -8 -7 -15 -22 -15 -35 0 -12 -11 -34 -25 -49
-14 -15 -31 -42 -39 -59 -7 -18 -23 -42 -35 -54 -11 -12 -21 -27 -21 -33 0 -7
-20 -35 -45 -63 -25 -29 -45 -57 -45 -63 0 -6 -19 -32 -42 -57 -49 -52 -60
-67 -88 -119 -11 -20 -29 -39 -40 -43 -11 -3 -20 -15 -20 -26 0 -10 -6 -19
-13 -19 -15 0 -77 -64 -77 -79 0 -6 -9 -11 -20 -11 -10 0 -23 -6 -27 -12 -4
-7 -26 -22 -48 -33 -21 -11 -51 -30 -65 -41 -14 -12 -41 -29 -60 -37 -19 -9
-45 -24 -58 -34 -20 -17 -22 -21 -9 -31 12 -10 18 -10 30 3 10 9 34 15 62 15
40 0 54 6 108 50 76 62 89 64 81 10 -5 -29 -2 -47 11 -66 14 -22 15 -28 4 -35
-8 -5 -19 -9 -26 -9 -17 0 -34 -35 -27 -54 7 -17 -43 -83 -69 -92 -10 -3 -29
-16 -42 -29 -14 -12 -43 -25 -65 -29 -23 -3 -43 -13 -46 -20 -3 -8 -22 -22
-42 -31 -86 -39 -124 -62 -113 -69 26 -16 10 -28 -29 -21 -36 6 -44 4 -65 -19
-18 -20 -34 -26 -65 -26 -34 0 -42 -4 -50 -25 -11 -28 -21 -31 -49 -13 -16 10
-26 7 -58 -14 -21 -14 -60 -28 -87 -32 -27 -3 -65 -15 -83 -26 -19 -11 -42
-20 -51 -20 -9 0 -32 -9 -50 -20 -18 -11 -49 -20 -70 -20 -20 0 -75 -9 -122
-20 -47 -11 -99 -20 -116 -20 -16 0 -35 -5 -41 -11 -6 -6 -45 -14 -85 -17 -40
-2 -77 -8 -83 -12 -5 -5 -39 -9 -75 -9 -36 0 -99 -5 -140 -10 -41 -5 -79 -6
-85 -3 -5 3 -67 5 -137 4 -69 -1 -129 2 -132 7 -3 4 -17 6 -31 3 -15 -2 -25 0
-25 7 0 6 -9 11 -21 11 -11 0 -30 5 -41 11 -12 6 -48 15 -82 20 -97 14 -147
25 -201 44 -27 10 -54 20 -60 21 -5 2 -17 8 -25 13 -51 29 -81 41 -103 41 -14
0 -27 6 -30 14 -3 7 -20 16 -38 20 -18 3 -47 17 -65 31 -18 14 -42 25 -53 25
-11 0 -25 9 -31 20 -6 11 -17 20 -25 20 -21 0 -45 29 -45 56 0 13 -4 32 -9 42
-26 51 -34 73 -28 78 3 4 0 19 -9 35 -13 27 -13 29 3 29 10 0 49 -16 87 -35
38 -19 82 -37 98 -40 15 -4 30 -11 33 -16 4 -5 19 -9 35 -9 16 0 91 -20 166
-45 74 -25 148 -45 162 -45 15 0 48 -6 73 -14 25 -8 85 -17 135 -21 49 -4 96
-11 104 -15 24 -12 464 -20 595 -10 164 12 306 33 331 47 12 7 39 13 60 13 44
2 146 30 155 44 4 5 38 10 76 12 38 2 83 10 99 19 16 8 39 15 51 15 12 0 24 4
27 9 3 4 20 11 38 15 18 3 48 13 65 21 18 9 47 22 65 30 170 72 228 110 212
136 -16 26 -104 -1 -104 -32 0 -6 -9 -8 -19 -4 -11 3 -28 2 -38 -3 -55 -29
-112 -52 -126 -52 -9 0 -18 -4 -22 -9 -3 -6 -27 -13 -53 -17 -26 -3 -51 -10
-57 -14 -16 -12 -120 -40 -149 -40 -14 0 -29 -7 -34 -16 -6 -11 -17 -15 -30
-11 -20 4 -84 -6 -122 -20 -8 -4 -28 -7 -45 -9 -78 -8 -123 -17 -152 -30 -17
-8 -51 -14 -76 -14 -39 0 -49 -4 -67 -30 -12 -17 -28 -30 -36 -30 -21 0 -17
21 6 27 28 7 19 28 -11 27 -74 -5 -178 -23 -197 -35 -21 -13 -25 -12 -40 8
-12 16 -21 20 -32 13 -17 -11 -243 -4 -340 10 -36 6 -100 12 -143 13 -43 2
-83 9 -89 15 -7 7 -21 12 -32 12 -41 0 -201 44 -213 58 -7 8 -21 12 -32 9 -11
-3 -28 1 -38 9 -25 18 -73 17 -88 -2 -10 -14 -13 -13 -28 9 -9 15 -50 41 -94
62 -43 20 -91 43 -106 51 -16 7 -37 14 -47 14 -9 0 -23 7 -30 15 -7 8 -18 15
-25 15 -7 0 -18 7 -25 15 -7 8 -21 15 -32 15 -11 0 -32 9 -46 20 -222 170
-271 213 -277 242 -6 25 -10 29 -31 24 -20 -5 -24 -3 -24 15 0 11 -22 46 -50
78 -27 32 -50 65 -50 75 0 11 -12 22 -31 29 -21 8 -29 17 -26 29 3 9 -6 27
-20 40 -14 13 -40 51 -59 85 -19 33 -41 66 -49 73 -7 6 -17 25 -20 41 -4 17
-13 33 -20 35 -7 3 -16 20 -19 39 -4 18 -13 38 -21 45 -9 8 -13 21 -9 36 4 17
1 26 -10 30 -9 3 -16 17 -16 31 0 13 -11 34 -24 46 -19 18 -22 27 -14 41 11
20 3 81 -16 111 -7 11 -14 40 -14 64 -1 24 -7 50 -14 58 -6 8 -11 32 -10 53 1
21 -3 42 -8 45 -6 3 -7 17 -4 30 3 12 1 26 -6 30 -8 5 -7 12 5 25 20 22 5 70
-22 70 -16 1 -16 2 -3 13 9 7 21 28 27 49 8 29 8 39 -4 50 -11 11 -11 21 -3
42 13 36 13 89 -2 120 -9 22 -8 29 8 47 17 19 17 22 3 30 -14 7 -16 24 -14 94
2 47 -1 88 -7 91 -5 3 -2 14 8 25 15 17 15 19 0 25 -11 4 -14 13 -10 30 4 13
1 30 -5 38 -8 10 -8 16 3 25 11 9 12 20 4 49 -5 20 -11 69 -13 107 -5 111 -17
205 -26 211 -17 10 17 45 66 70 28 13 57 28 65 33 8 5 35 19 60 31 47 22 61
29 95 48 61 34 126 62 145 62 42 0 115 24 139 46 17 16 42 24 87 29 79 8 169
51 169 80 0 18 -6 20 -63 18 -37 -2 -73 -9 -85 -18 -12 -8 -33 -15 -47 -15
-14 -1 -36 -7 -50 -15 -14 -8 -36 -15 -50 -15 -14 0 -34 -7 -44 -15 -11 -8
-30 -15 -43 -15 -13 0 -31 -4 -41 -9 -54 -29 -104 -51 -115 -51 -16 0 -186
-87 -208 -106 -8 -8 -19 -14 -23 -14 -5 0 -21 -11 -38 -25 -41 -35 -59 -33
-51 6 3 16 1 40 -5 52 -13 27 -27 95 -24 119 1 10 -7 22 -18 28 -17 9 -18 14
-7 31 9 14 9 22 1 27 -18 11 -43 67 -50 110 -5 32 -12 42 -30 46 -21 6 -22 9
-11 26 10 17 9 22 -1 29 -7 4 -22 25 -34 47 -11 21 -27 44 -36 50 -8 6 -15 24
-14 40 0 21 -11 42 -38 72 -21 24 -40 56 -44 72 -4 22 -11 30 -26 30 -15 0
-20 7 -20 25 0 15 -11 36 -27 51 -14 13 -35 41 -44 62 -24 48 -38 70 -71 110
-16 18 -28 36 -28 41 0 4 -27 36 -60 70 -33 35 -60 67 -60 71 0 4 -9 10 -21
13 -12 3 -18 10 -14 16 8 13 42 14 49 2 4 -5 32 -17 64 -26 31 -9 77 -23 102
-32 58 -19 141 -34 152 -27 4 3 15 -2 24 -10 8 -9 32 -16 53 -16 20 0 62 -7
93 -15 30 -8 90 -16 133 -18 43 -3 80 -9 84 -15 3 -6 17 -10 31 -9 71 2 309
-14 339 -23 24 -7 38 -6 48 1 7 7 27 9 45 5 40 -8 343 12 386 25 23 7 37 7 45
0 14 -11 384 -10 402 1 6 4 17 3 25 -2 9 -5 20 -5 27 2 10 8 21 8 39 -1 14 -6
55 -11 92 -11 37 -1 99 -5 137 -11 39 -5 99 -12 133 -15 35 -2 83 -9 105 -15
23 -6 83 -15 132 -19 50 -5 111 -14 137 -20 57 -15 554 -8 673 9 149 22 188
31 207 48 16 14 21 15 28 3 9 -14 43 -7 155 32 17 6 46 13 65 15 19 3 40 9 45
13 6 5 28 11 50 15 22 4 52 14 67 21 15 8 38 14 51 14 14 0 38 7 53 15 16 8
39 15 51 15 12 0 24 4 27 9 5 8 164 26 176 20 3 -1 15 3 27 9 26 14 232 35
323 33 78 -2 60 -3 195 4 217 9 277 13 282 19 3 3 13 1 23 -4 17 -9 239 21
307 41 18 6 54 14 80 19 113 20 170 33 195 46 14 8 39 14 55 14 16 0 33 4 39
9 5 5 32 14 59 20 77 15 137 32 172 47 17 8 40 14 51 14 11 0 27 6 34 13 7 6
40 21 72 32 33 11 74 29 90 41 38 28 46 29 46 7z"/>
<path d="M6207 5113 c-13 -12 -7 -65 11 -95 16 -28 16 -30 0 -42 -11 -8 -18
-26 -18 -48 0 -19 -5 -39 -11 -45 -6 -6 -8 -16 -5 -22 10 -15 79 -14 94 1 8 8
12 53 12 135 l0 123 -38 0 c-21 0 -42 -3 -45 -7z"/>
<path d="M8407 4143 c-6 -5 -143 -13 -234 -14 -23 0 -45 -4 -48 -9 -3 -5 -27
-12 -53 -16 -26 -3 -57 -12 -69 -20 -12 -8 -38 -14 -57 -14 -22 0 -45 -9 -64
-25 -17 -14 -40 -25 -52 -25 -22 0 -70 -23 -102 -48 -9 -8 -21 -11 -27 -8 -11
7 -55 -17 -83 -46 -10 -9 -35 -20 -55 -24 -36 -7 -83 -46 -83 -69 0 -7 6 -17
13 -22 30 -24 47 -21 94 13 26 19 68 44 93 57 25 12 51 28 58 35 7 6 22 12 33
12 10 0 19 4 19 9 0 5 33 19 73 32 39 13 81 29 92 36 11 7 31 13 46 13 15 0
40 7 55 15 16 8 48 15 70 15 23 0 60 7 84 15 55 19 423 25 525 7 39 -6 97 -15
130 -20 33 -5 80 -16 105 -25 46 -15 194 -89 241 -120 14 -10 34 -15 43 -11
60 23 -47 105 -229 175 -33 13 -64 27 -69 31 -6 4 -25 8 -43 8 -19 0 -48 6
-66 13 -18 8 -61 15 -97 16 -35 1 -68 5 -72 7 -11 7 -265 14 -271 7z"/>
<path d="M5500 3890 c-47 -3 -90 -8 -95 -12 -6 -3 -42 -9 -80 -12 -68 -6 -87
-17 -82 -45 4 -25 34 -37 65 -25 16 6 38 7 50 3 16 -6 25 -3 36 12 12 18 18
19 52 10 47 -13 151 -14 158 -2 3 5 20 6 38 2 18 -4 61 -4 97 0 36 4 77 2 93
-3 16 -6 41 -8 55 -5 15 3 34 1 42 -4 9 -4 37 -11 63 -14 26 -3 50 -10 53 -16
4 -5 14 -9 24 -9 9 0 32 -11 50 -24 25 -18 41 -23 62 -19 29 5 40 -9 18 -23
-7 -4 0 -12 18 -20 15 -8 33 -22 38 -32 29 -52 51 -81 66 -85 10 -3 20 -20 24
-38 4 -19 13 -44 21 -56 22 -34 29 -330 9 -370 -8 -17 -17 -53 -18 -79 -2 -27
-11 -67 -21 -88 -10 -21 -15 -48 -12 -59 2 -11 -4 -31 -14 -46 -10 -14 -21
-47 -25 -73 -3 -26 -10 -50 -16 -53 -5 -4 -9 -19 -9 -35 0 -16 -4 -31 -9 -34
-12 -8 -44 -77 -67 -146 -10 -30 -27 -67 -38 -82 -33 -47 -17 -60 66 -53 40 4
91 13 113 20 22 8 67 17 100 20 33 4 65 10 70 13 6 4 44 8 85 9 41 2 82 6 90
9 16 7 145 14 240 14 60 0 69 4 88 38 15 27 5 33 -49 33 -170 0 -203 -2 -215
-12 -8 -6 -26 -9 -41 -6 -35 7 -200 -10 -274 -29 -30 -8 -69 -14 -86 -14 -17
0 -36 -7 -43 -15 -19 -23 -60 -19 -60 4 0 11 4 22 9 26 6 3 21 31 36 63 14 31
30 65 35 74 6 10 10 26 10 36 0 10 7 27 15 38 8 10 15 30 15 43 0 14 6 32 14
40 14 17 34 97 43 171 3 25 9 50 13 55 5 6 11 33 15 60 4 28 13 75 22 105 24
92 7 301 -32 389 -36 81 -51 104 -67 108 -9 3 -18 12 -21 22 -5 19 -138 131
-157 131 -6 0 -24 6 -38 14 -54 27 -103 46 -123 46 -11 0 -34 7 -52 16 -25 14
-65 17 -207 18 -96 1 -213 -1 -260 -4z"/>
<path d="M8843 3547 c-4 -7 -23 -24 -40 -37 -18 -13 -33 -30 -33 -38 0 -9 -7
-11 -20 -7 -13 4 -23 0 -32 -14 -7 -12 -20 -21 -28 -21 -9 0 -20 -4 -25 -9 -6
-4 -44 -18 -85 -31 -41 -12 -83 -26 -92 -31 -10 -5 -29 -9 -42 -9 -14 0 -27
-4 -30 -9 -8 -12 -173 -22 -369 -22 -197 -1 -247 11 -415 97 -58 30 -106 54
-108 54 -2 0 -4 -12 -4 -27 0 -22 10 -34 47 -58 73 -45 153 -82 242 -110 69
-21 359 -31 491 -16 114 12 273 49 337 77 17 8 37 14 45 14 7 0 22 7 32 15 11
8 28 15 38 15 10 0 21 7 24 15 4 9 31 27 61 41 88 42 118 88 66 100 -16 4 -33
11 -40 16 -7 6 -14 4 -20 -5z"/>
<path d="M6078 3323 c-25 -3 -38 -9 -38 -19 0 -8 -10 -14 -25 -14 -14 0 -30
-9 -37 -20 -7 -11 -21 -20 -32 -20 -11 0 -27 -6 -35 -14 -26 -23 -206 -63
-336 -76 -66 -6 -131 -13 -145 -15 -14 -2 -61 1 -105 6 -44 6 -98 11 -120 13
-66 5 -125 17 -131 27 -3 5 -13 9 -22 9 -8 0 -62 23 -118 50 -56 28 -113 50
-127 50 -36 0 -41 -26 -9 -48 41 -29 206 -105 252 -117 14 -3 34 -10 45 -15
40 -17 243 -40 355 -40 173 0 331 29 475 85 22 9 48 18 57 21 9 3 50 23 90 44
54 27 74 43 76 60 3 20 -14 43 -28 38 -3 -1 -22 -3 -42 -5z"/>
<path d="M6340 2080 c0 -15 -60 -36 -125 -44 -33 -4 -73 -14 -90 -21 -72 -33
-273 -65 -365 -60 -30 2 -66 4 -80 4 -28 1 -56 -22 -46 -37 13 -21 118 -44
180 -39 72 6 245 32 266 40 8 4 29 12 45 18 17 7 39 13 50 14 11 1 47 10 80
19 33 10 81 25 107 32 70 21 115 16 191 -22 16 -8 36 -14 44 -14 9 0 21 -6 27
-14 8 -11 35 -15 96 -16 120 -1 132 0 146 13 33 30 42 34 84 41 24 4 50 12 58
19 19 15 118 15 134 -1 7 -7 21 -12 32 -12 12 0 54 -13 93 -30 40 -16 90 -32
110 -36 21 -4 43 -10 48 -14 6 -4 28 -10 50 -12 22 -3 79 -13 127 -24 80 -17
89 -17 104 -3 14 15 13 18 -16 43 -31 26 -39 27 -160 30 -14 1 -30 4 -36 8 -6
4 -29 12 -52 18 -23 5 -61 15 -84 21 -24 5 -47 14 -53 20 -5 5 -16 9 -25 9 -8
1 -33 9 -55 20 -22 11 -50 19 -62 20 -12 0 -24 4 -28 9 -3 5 -39 9 -80 9 -59
-1 -78 -5 -91 -19 -10 -11 -31 -19 -49 -19 -18 0 -38 -6 -44 -14 -16 -19 -63
-29 -146 -30 -66 -1 -102 9 -168 45 -9 5 -38 12 -62 16 -25 3 -48 10 -51 14
-7 12 -104 11 -104 -1z"/>
<path d="M6227 1793 c-4 -3 -7 -17 -7 -30 0 -29 76 -79 170 -112 36 -13 74
-27 85 -31 11 -5 47 -16 80 -25 100 -27 424 -11 500 25 65 30 116 50 127 50
21 1 93 54 96 72 5 26 -95 39 -120 16 -35 -33 -97 -68 -121 -68 -15 0 -46 -9
-70 -19 -23 -11 -51 -19 -62 -20 -60 -2 -256 1 -290 4 -22 3 -56 6 -75 8 -19
2 -49 11 -67 20 -18 9 -39 17 -47 17 -19 0 -141 64 -162 84 -17 17 -27 20 -37
9z"/>
<path d="M5835 11050 c-3 -6 1 -13 9 -16 9 -3 16 -15 16 -26 0 -19 -1 -19 -26
1 -15 12 -41 21 -58 21 -37 0 -64 -14 -47 -24 35 -22 -21 -36 -60 -16 -24 13
-49 1 -25 -12 9 -5 16 -13 16 -18 0 -14 -34 -12 -47 1 -7 7 -20 8 -30 5 -17
-7 -17 -8 0 -20 9 -7 17 -16 17 -20 0 -10 -29 -7 -50 6 -26 17 -40 0 -15 -18
17 -13 18 -16 5 -24 -8 -5 -25 -7 -36 -4 -12 3 -25 1 -28 -5 -4 -6 -33 -11
-64 -11 -43 0 -53 -3 -44 -12 7 -7 12 -15 12 -19 0 -11 -31 -20 -43 -12 -18
11 -106 13 -112 2 -4 -5 -28 -9 -55 -9 -27 0 -52 -5 -55 -10 -5 -8 -11 -7 -20
0 -8 7 -40 13 -72 16 -32 2 -80 8 -108 13 -39 7 -55 6 -72 -5 -12 -8 -47 -14
-77 -14 -45 0 -57 -4 -66 -20 -8 -15 -17 -19 -34 -14 -31 7 -43 -13 -20 -32
18 -15 18 -15 -6 -10 -14 3 -48 -1 -75 -8 -48 -12 -50 -14 -53 -49 -2 -20 -8
-37 -13 -37 -6 0 -8 9 -4 19 10 33 -14 34 -45 2 -17 -16 -30 -34 -30 -40 0 -6
-11 -13 -25 -17 -46 -11 -24 -83 25 -84 9 0 45 25 80 55 36 30 68 55 73 55 4
0 25 11 46 25 22 13 51 27 65 31 14 3 30 12 37 20 6 8 23 14 38 14 14 0 51 9
80 20 32 11 60 16 68 11 18 -10 114 -2 130 11 8 6 13 3 17 -10 6 -17 15 -19
89 -17 45 2 117 6 160 10 74 7 77 7 77 -14 0 -16 -5 -20 -22 -18 -20 2 -23 -2
-20 -25 2 -20 -2 -28 -12 -28 -20 0 -39 -36 -31 -59 3 -10 -1 -24 -10 -31 -8
-7 -13 -21 -10 -30 3 -9 -1 -23 -10 -30 -11 -9 -12 -16 -4 -26 7 -9 7 -19 -1
-33 -16 -31 -28 -292 -14 -305 9 -8 5 -17 -12 -33 -18 -17 -24 -33 -24 -67 0
-27 -9 -63 -25 -94 -14 -28 -25 -59 -25 -70 0 -12 -9 -23 -20 -27 -25 -8 -26
-42 -2 -48 10 -3 6 -5 -10 -6 -34 -1 -37 -23 -5 -44 21 -15 21 -16 2 -18 -11
0 -30 0 -42 1 -14 1 -23 -4 -23 -13 0 -8 -13 -20 -30 -26 -24 -8 -30 -16 -30
-38 0 -39 -15 -60 -32 -46 -19 15 -82 -13 -74 -33 6 -17 -38 -65 -96 -104 -20
-13 -39 -33 -42 -43 -3 -14 -10 -16 -30 -11 -29 7 -36 -10 -10 -24 22 -12 9
-32 -21 -32 -28 0 -66 -36 -59 -55 3 -7 -9 -28 -26 -46 -61 -66 -62 -67 -51
-74 18 -11 12 -35 -9 -35 -12 0 -20 -7 -20 -17 0 -9 -10 -27 -22 -40 -17 -18
-19 -26 -10 -35 7 -7 12 -19 12 -28 0 -9 5 -21 12 -28 9 -9 17 -7 35 10 13 12
23 27 23 33 0 26 65 129 136 215 38 47 271 280 279 280 20 0 142 127 176 181
19 31 40 64 47 75 6 10 17 30 22 44 6 14 15 33 20 42 6 10 10 28 10 42 0 13 7
29 15 36 8 7 15 29 15 49 0 20 7 46 14 57 11 16 15 51 14 140 0 146 9 275 22
288 6 6 10 20 10 33 0 25 68 176 81 181 5 2 9 8 9 13 0 23 48 71 90 91 25 11
93 45 152 74 60 30 116 54 126 54 10 0 21 3 25 6 3 4 41 7 84 9 83 2 225 -24
280 -52 18 -8 39 -13 47 -10 17 7 22 57 7 57 -5 0 -16 6 -23 13 -23 22 -138
52 -156 40 -13 -7 -23 -5 -44 10 -23 17 -30 18 -43 7 -13 -11 -18 -10 -33 4
-21 18 -117 23 -127 6z"/>
<path d="M7943 10727 c-19 -19 -33 -43 -33 -58 0 -15 -10 -31 -28 -43 -24 -16
-29 -26 -29 -64 0 -35 -5 -48 -23 -62 -16 -12 -21 -23 -15 -38 5 -16 2 -22 -9
-22 -19 0 -20 10 -4 45 9 19 9 28 0 37 -7 7 -12 24 -12 39 0 36 -69 105 -113
112 -17 3 -44 9 -59 12 -37 10 -98 -19 -98 -45 0 -14 -7 -20 -22 -20 -13 0
-36 -14 -52 -30 -16 -17 -36 -30 -45 -30 -17 0 -58 -54 -54 -70 2 -5 -8 -17
-21 -26 -15 -9 -23 -21 -19 -30 3 -8 -8 -28 -26 -46 -17 -17 -31 -40 -31 -50
0 -10 -4 -18 -9 -18 -5 0 -19 -14 -31 -30 -17 -23 -19 -34 -11 -44 8 -10 7
-17 -4 -26 -9 -7 -14 -19 -11 -27 3 -8 -2 -25 -10 -39 -14 -21 -15 -33 -5 -81
14 -71 42 -112 102 -152 54 -35 72 -37 113 -16 15 8 33 15 38 15 20 0 125 77
179 131 31 30 66 74 79 97 13 23 28 42 33 42 18 0 36 -35 37 -69 0 -82 90
-188 178 -211 26 -7 79 -13 117 -14 86 -2 144 -31 193 -97 18 -24 36 -48 40
-54 4 -5 11 -18 15 -28 12 -32 42 -16 45 24 2 29 -4 45 -37 87 -82 103 -220
184 -246 143 -3 -6 -17 -4 -32 4 -24 13 -29 12 -44 -1 -19 -17 -39 -11 -39 11
0 8 -17 19 -38 24 -60 17 -88 65 -96 166 -2 17 -6 38 -11 49 -5 11 -3 21 5 26
7 4 10 15 7 24 -7 18 5 45 41 89 12 16 19 33 16 39 -3 5 11 24 33 42 21 19 48
53 60 78 12 24 34 55 48 68 14 13 25 29 25 36 0 6 7 17 15 24 21 18 19 66 -5
90 -29 29 -60 24 -97 -13z m-248 -136 c17 -11 41 -28 54 -39 l24 -20 -21 -6
c-19 -6 -22 -15 -22 -58 0 -32 6 -58 15 -68 14 -15 14 -18 0 -30 -8 -7 -15
-16 -15 -21 0 -4 -14 -23 -31 -41 -17 -18 -43 -57 -56 -86 -19 -39 -33 -57
-54 -64 -23 -8 -28 -14 -23 -30 5 -17 3 -19 -15 -13 -16 5 -23 1 -31 -20 -5
-14 -21 -30 -35 -35 -14 -5 -25 -14 -25 -19 0 -17 -43 -52 -57 -47 -7 3 -27 0
-44 -6 -26 -9 -38 -8 -66 8 -43 23 -68 66 -53 93 5 11 10 32 10 48 0 15 14 56
32 91 26 54 29 67 19 83 -10 17 -9 19 11 14 20 -4 27 3 48 47 34 71 131 165
211 205 76 38 85 39 124 14z m201 -28 c-11 -11 -17 4 -9 23 7 18 8 18 11 1 2
-10 1 -21 -2 -24z m-158 -292 c11 -7 11 -9 -1 -14 -16 -6 -27 0 -27 15 0 10
11 10 28 -1z"/>
<path d="M6501 10602 c-6 -2 -11 -12 -11 -23 0 -22 -4 -23 -31 -8 -12 6 -28 8
-36 5 -14 -6 -14 -9 2 -26 18 -19 17 -20 -9 -20 -14 0 -34 -4 -44 -9 -9 -5
-32 -16 -49 -23 -35 -14 -43 -32 -17 -42 23 -9 6 -27 -19 -21 -12 3 -31 -1
-42 -9 -20 -15 -20 -15 0 -30 19 -15 19 -15 1 -16 -17 0 -106 -79 -106 -94 0
-3 9 -6 20 -6 11 0 20 -4 20 -10 0 -9 -13 -12 -37 -9 -3 0 -19 -26 -34 -58
-25 -52 -28 -69 -28 -163 0 -57 4 -109 8 -115 5 -5 11 -23 15 -39 16 -66 79
-112 183 -136 44 -10 60 -9 102 5 27 9 55 23 61 31 7 7 19 14 27 14 7 0 16 7
19 15 4 8 17 15 29 15 13 0 26 4 29 9 9 14 145 81 166 81 9 0 23 -7 30 -15 20
-24 49 -18 56 12 9 35 -8 59 -40 55 -20 -2 -26 2 -26 18 0 15 -7 20 -24 20
-34 0 -41 -16 -14 -34 l22 -16 -27 0 c-15 0 -36 6 -48 13 -17 10 -22 9 -34 -6
-9 -13 -28 -19 -59 -20 -40 -2 -47 -5 -55 -29 -8 -22 -16 -28 -40 -28 -27 0
-31 -4 -31 -27 0 -21 -3 -24 -12 -15 -16 16 -48 15 -48 -1 0 -7 5 -18 12 -25
9 -9 8 -12 -5 -12 -10 0 -20 -7 -23 -15 -9 -23 -24 -18 -21 7 2 17 -7 25 -47
39 -27 10 -52 18 -55 17 -27 -3 -44 6 -60 33 -23 37 -36 108 -22 122 5 5 8 22
5 36 -3 14 2 42 10 62 l15 37 46 -10 c87 -19 278 3 390 44 27 10 41 22 43 36
3 18 6 20 21 10 15 -9 25 -5 61 28 23 21 48 43 56 47 8 4 14 17 14 28 0 11 7
27 15 36 14 14 14 17 0 33 -11 12 -13 20 -6 25 18 11 12 34 -24 90 -22 35 -44
57 -60 61 -14 3 -25 13 -25 21 0 12 -17 14 -99 11 -55 -1 -105 -4 -110 -6z
m187 -31 c11 -7 10 -10 -3 -15 -20 -7 -38 1 -30 15 7 11 16 11 33 0z m30 -57
c7 -2 22 -24 32 -48 23 -51 18 -106 -10 -106 -30 0 -81 -31 -90 -56 -7 -16
-17 -24 -34 -24 -13 0 -26 -7 -30 -15 -3 -8 -14 -15 -26 -15 -11 0 -25 -9 -32
-19 -12 -19 -12 -19 -25 -1 -11 16 -17 18 -33 8 -14 -9 -22 -9 -33 0 -7 7 -17
9 -20 5 -12 -11 -8 -23 8 -23 8 0 15 -4 15 -10 0 -5 -7 -10 -15 -10 -8 0 -15
3 -15 8 0 4 -40 7 -90 7 -66 1 -91 -3 -95 -13 -3 -7 -10 -10 -15 -7 -10 6 25
76 42 83 4 2 8 10 8 18 0 8 4 14 8 14 5 0 21 18 38 40 16 22 36 42 44 45 8 3
33 21 55 41 40 36 100 70 144 83 23 7 144 4 169 -5z"/>
<path d="M3093 10477 c-16 -4 -54 -10 -87 -13 -32 -3 -76 -12 -98 -20 -22 -8
-49 -14 -60 -14 -10 0 -21 -7 -24 -15 -4 -8 -12 -15 -19 -15 -7 0 -20 -11 -28
-23 -9 -13 -29 -30 -46 -37 -17 -7 -31 -19 -31 -26 0 -8 -9 -14 -20 -14 -11 0
-20 -7 -20 -15 0 -8 -7 -15 -15 -15 -9 0 -18 -6 -21 -14 -3 -8 -19 -20 -35
-26 -16 -7 -34 -21 -40 -32 -16 -29 -93 -58 -156 -58 -48 0 -63 5 -121 44 -90
60 -156 74 -241 52 -34 -9 -71 -16 -81 -16 -10 0 -31 -8 -47 -17 -29 -16 -31
-16 -153 45 -68 34 -128 62 -134 62 -6 0 -24 7 -39 15 -15 8 -45 17 -65 21
-20 4 -46 11 -56 17 -11 5 -88 9 -172 9 -169 -1 -222 -12 -357 -78 -16 -8 -33
-14 -39 -14 -5 0 -16 -7 -24 -15 -9 -8 -24 -15 -33 -15 -10 0 -24 -7 -31 -15
-7 -8 -20 -15 -30 -15 -10 0 -23 -7 -30 -15 -7 -8 -18 -15 -24 -15 -10 0 -29
-16 -81 -69 -5 -5 -30 -27 -55 -49 -89 -79 -107 -97 -114 -117 -4 -11 -24 -32
-46 -47 -22 -15 -40 -35 -40 -44 0 -9 -8 -23 -17 -30 -15 -11 -16 -16 -6 -33
10 -15 9 -22 -1 -31 -8 -6 -12 -19 -9 -29 2 -9 -3 -23 -11 -30 -19 -16 -21
-52 -5 -68 9 -9 6 -19 -10 -41 -25 -35 -27 -70 -6 -78 12 -5 13 -9 4 -21 -9
-10 -9 -19 1 -37 7 -13 10 -29 6 -34 -10 -16 20 -34 51 -30 32 3 31 -1 18 135
-5 53 -4 92 3 110 6 15 13 49 17 74 4 30 21 69 47 109 43 67 271 300 293 300
7 0 15 7 19 15 3 8 14 15 24 15 11 0 25 7 32 15 7 8 19 15 26 15 8 0 22 4 32
10 9 5 28 14 42 20 14 5 32 14 40 18 48 27 69 36 100 43 19 4 53 12 75 18 22
6 94 11 161 11 131 0 247 -25 324 -71 8 -5 22 -12 30 -15 8 -4 56 -26 106 -50
88 -43 164 -58 178 -35 11 17 106 41 167 41 55 0 68 -4 122 -40 76 -51 175
-78 222 -62 17 7 38 12 46 12 24 0 92 40 131 77 20 19 59 52 86 72 28 20 74
55 104 78 109 85 231 107 503 89 153 -10 348 -83 435 -163 14 -13 28 -23 32
-23 31 0 218 -221 218 -257 0 -6 6 -16 14 -22 8 -7 17 -34 21 -61 4 -28 10
-52 15 -55 4 -2 8 -34 9 -71 1 -45 6 -71 17 -81 10 -10 13 -24 9 -37 -4 -12
-8 -46 -10 -76 -1 -30 -3 -58 -5 -62 -3 -10 -8 -47 -13 -108 -2 -26 -17 -70
-35 -103 -18 -31 -32 -64 -32 -71 0 -8 -9 -25 -20 -38 -57 -68 -70 -87 -65
-100 4 -10 -8 -21 -35 -33 -23 -11 -48 -31 -56 -47 -8 -15 -25 -30 -38 -34
-24 -6 -66 -46 -66 -64 0 -6 -13 -10 -29 -10 -24 0 -28 -3 -24 -20 5 -18 2
-19 -27 -14 -27 6 -31 4 -28 -12 2 -13 -3 -19 -17 -20 -20 -1 -67 -11 -95 -21
-8 -2 -51 -7 -95 -9 -44 -2 -111 -6 -150 -8 -66 -4 -88 -1 -186 25 -27 7 -44
7 -53 0 -8 -7 -22 -4 -44 9 -18 11 -39 20 -47 20 -14 0 -87 35 -114 55 -41 30
-181 175 -181 188 0 8 -13 38 -29 68 -36 68 -62 237 -41 264 4 6 10 26 13 45
12 79 40 135 99 193 32 31 64 57 70 57 6 0 21 9 32 19 18 17 28 18 75 10 94
-15 137 -43 216 -138 34 -42 35 -46 33 -113 -3 -64 -5 -69 -28 -74 -14 -3 -39
-12 -57 -20 -45 -20 -66 -18 -128 16 -55 30 -105 39 -105 20 0 -5 15 -24 33
-42 35 -35 115 -68 164 -68 52 0 126 32 160 69 30 32 33 42 33 97 0 53 -18
116 -39 134 -3 3 -24 25 -46 50 -36 42 -107 100 -121 100 -3 0 -20 6 -37 14
-55 24 -138 27 -186 5 -24 -10 -51 -19 -61 -19 -10 0 -22 -10 -26 -22 -7 -23
-42 -57 -59 -58 -5 0 -25 -21 -44 -45 -25 -34 -32 -51 -27 -70 5 -18 0 -34
-15 -55 -19 -24 -21 -37 -16 -86 4 -40 2 -63 -8 -78 -11 -16 -12 -31 -6 -53 5
-17 7 -34 3 -37 -3 -3 2 -21 10 -38 95 -199 102 -210 166 -276 37 -37 78 -77
92 -87 52 -41 134 -87 167 -92 18 -3 36 -10 39 -14 3 -5 22 -9 42 -9 20 0 61
-3 90 -6 41 -5 52 -11 52 -25 0 -10 -4 -21 -10 -24 -5 -3 -10 -17 -10 -31 0
-37 -27 -84 -45 -78 -9 4 -15 0 -15 -10 0 -8 -19 -25 -42 -37 -40 -20 -60 -21
-258 -23 -181 -1 -224 -5 -275 -21 -33 -10 -67 -25 -76 -32 -8 -7 -22 -13 -29
-13 -7 0 -28 -11 -46 -25 -18 -14 -37 -25 -43 -25 -16 0 -68 -83 -63 -103 2
-10 -1 -24 -7 -30 -6 -7 -6 -18 -1 -26 5 -10 1 -20 -13 -32 -18 -14 -20 -20
-9 -30 6 -7 12 -31 12 -53 0 -43 35 -98 102 -159 43 -40 217 -127 252 -127 8
0 18 -4 21 -10 3 -5 16 -10 28 -10 12 -1 40 -7 62 -15 36 -13 136 -25 445 -54
110 -11 201 -26 235 -40 76 -31 160 -78 190 -108 35 -34 83 -43 92 -17 9 28
-115 127 -189 149 -12 4 -27 11 -33 15 -5 4 -26 11 -45 15 -19 4 -39 11 -45
15 -5 4 -37 11 -70 14 -33 4 -80 11 -105 16 -25 6 -112 15 -195 20 -162 11
-284 27 -300 40 -5 4 -26 11 -45 15 -19 4 -41 11 -50 15 -8 4 -31 14 -50 23
-139 62 -181 97 -222 187 -19 42 -20 46 -4 90 9 25 16 55 16 67 0 32 78 106
151 141 82 40 244 66 320 52 66 -13 226 -13 234 -1 3 5 19 12 35 16 41 9 130
91 130 120 0 12 7 28 16 36 11 9 14 22 9 45 -3 18 -2 35 3 38 4 2 42 5 83 5
41 1 90 1 109 1 42 1 201 30 215 40 6 4 23 10 40 14 82 20 305 215 383 335 45
70 72 121 72 138 0 7 7 34 16 59 37 109 55 331 34 404 -6 19 -12 61 -15 93 -2
38 -10 66 -22 79 -10 11 -17 30 -15 43 5 38 -82 171 -169 257 -50 49 -173 143
-224 171 -49 27 -123 57 -139 57 -8 0 -18 5 -21 10 -3 6 -14 10 -23 10 -9 0
-30 7 -47 16 -26 14 -121 25 -307 36 -27 2 -60 0 -75 -5z"/>
<path d="M7753 9529 c-10 -10 -10 -16 -1 -27 10 -11 9 -17 -5 -27 -9 -7 -17
-18 -17 -26 0 -28 -31 -102 -55 -134 -14 -17 -25 -41 -25 -53 0 -12 -6 -25
-13 -29 -12 -7 -23 -28 -70 -130 -5 -12 -7 -33 -3 -47 5 -19 2 -26 -8 -26 -23
0 -40 -28 -27 -44 8 -10 8 -21 1 -40 -14 -37 -13 -89 2 -104 9 -9 8 -16 -6
-31 -15 -17 -15 -20 -1 -34 9 -10 11 -18 5 -22 -12 -7 -14 -65 -2 -65 4 0 8
-32 8 -71 1 -75 9 -89 50 -89 21 0 39 24 29 40 -3 4 -5 46 -6 94 -1 47 -4 88
-8 90 -7 4 -5 65 4 161 5 61 29 158 46 185 22 37 49 95 49 106 0 6 7 17 15 24
8 7 15 21 15 31 0 9 6 24 14 32 8 8 18 31 21 51 4 20 11 39 16 42 5 3 9 14 9
26 0 11 8 36 17 55 12 26 14 40 6 52 -13 20 -44 26 -60 10z"/>
<path d="M5956 9495 c-3 -8 0 -28 6 -43 16 -37 20 -113 6 -129 -5 -7 -8 -19
-5 -27 9 -23 -15 -150 -30 -159 -7 -4 -13 -16 -13 -27 0 -29 -11 -50 -26 -50
-8 0 -14 -7 -14 -15 0 -8 -10 -20 -22 -26 -21 -11 -21 -12 -2 -26 19 -14 19
-14 -1 -28 -11 -8 -23 -18 -27 -22 -64 -67 -78 -86 -78 -102 0 -10 -7 -24 -15
-31 -17 -14 -21 -60 -5 -60 18 0 11 -18 -10 -25 -12 -4 -20 -15 -20 -29 0 -13
-7 -29 -15 -36 -9 -7 -15 -20 -13 -29 1 -9 -1 -22 -6 -29 -5 -8 -3 -24 4 -38
10 -18 10 -26 1 -38 -18 -22 -21 -107 -5 -133 11 -18 12 -27 2 -42 -9 -15 -8
-24 5 -45 9 -14 17 -32 17 -41 0 -8 14 -34 30 -57 17 -22 30 -48 30 -56 0 -8
13 -31 28 -51 16 -20 39 -53 51 -73 12 -21 27 -38 32 -38 5 0 9 -7 9 -16 0 -9
11 -27 25 -40 13 -12 27 -35 31 -51 4 -15 10 -30 14 -33 14 -10 40 -74 40 -97
0 -28 35 -65 58 -61 14 3 17 14 15 63 -2 53 -5 63 -32 85 -21 18 -29 32 -25
45 3 13 -11 43 -38 83 -24 35 -47 71 -53 80 -5 9 -22 34 -37 55 -16 22 -28 46
-28 53 0 7 -3 14 -7 16 -15 6 -64 85 -74 119 -5 19 -12 75 -14 124 -4 81 -7
90 -25 93 -27 4 -25 20 3 24 19 3 22 9 23 49 1 26 10 64 19 85 50 113 87 184
119 229 20 27 36 53 36 58 0 4 16 30 35 57 19 27 35 52 35 54 0 3 5 17 12 33
29 70 56 267 38 278 -5 3 -10 25 -10 49 0 32 -6 48 -23 64 -27 26 -43 28 -51
7z"/>
<path d="M6465 9380 c-4 -6 -5 -33 -4 -60 2 -29 -2 -55 -9 -62 -7 -7 -12 -17
-12 -24 0 -18 -41 -107 -57 -122 -7 -8 -11 -22 -8 -32 4 -12 -2 -24 -16 -33
-11 -9 -18 -20 -14 -27 4 -6 -5 -23 -19 -37 -32 -32 -33 -51 -3 -63 22 -9 22
-9 -4 -9 -14 -1 -33 -7 -43 -14 -16 -12 -16 -14 -2 -26 17 -14 22 -61 7 -61
-13 0 -50 -79 -40 -86 6 -3 7 -21 3 -40 -5 -28 -3 -34 12 -34 16 0 16 -1 2
-12 -24 -20 -28 -56 -11 -96 9 -20 15 -50 14 -66 -1 -16 3 -32 9 -36 5 -3 13
-28 16 -56 4 -27 15 -60 24 -74 9 -14 15 -30 13 -36 -2 -7 9 -34 25 -60 15
-27 34 -64 41 -82 8 -18 22 -37 32 -43 15 -8 17 -13 8 -28 -9 -14 -8 -23 6
-44 9 -15 21 -27 26 -27 5 0 9 -8 9 -19 0 -10 7 -24 15 -31 8 -7 15 -20 15
-29 0 -10 9 -36 20 -59 11 -22 20 -50 20 -61 0 -11 5 -23 11 -27 6 -3 8 -17 4
-31 -4 -17 -1 -29 11 -37 14 -11 14 -16 3 -33 -11 -18 -10 -24 1 -38 16 -19
15 -183 -1 -199 -5 -6 -9 -16 -9 -24 0 -8 -9 -25 -20 -39 -11 -14 -20 -36 -20
-49 0 -14 -13 -34 -35 -51 -19 -15 -35 -33 -35 -40 0 -7 -9 -17 -20 -23 -11
-6 -20 -21 -20 -34 0 -13 -7 -27 -15 -30 -9 -3 -21 -19 -26 -36 -6 -16 -17
-30 -25 -30 -15 0 -34 -30 -34 -56 0 -10 -7 -25 -16 -35 -12 -14 -13 -22 -4
-38 19 -36 52 -26 90 30 19 28 50 71 68 95 17 24 32 48 32 53 0 4 10 16 21 27
12 10 25 28 30 39 5 11 18 34 29 50 11 17 22 36 25 43 3 6 7 18 10 25 3 6 17
32 32 57 25 43 26 50 24 189 -1 79 -5 149 -10 155 -5 6 -12 29 -17 50 -4 22
-13 51 -20 65 -8 14 -14 34 -14 43 0 9 -6 29 -14 45 -8 15 -22 46 -32 68 -9
22 -47 104 -85 182 -38 78 -78 170 -88 205 -41 138 -65 298 -48 326 4 6 5 23
1 37 -4 16 0 34 10 50 9 13 16 36 16 51 0 14 6 38 13 52 25 48 44 96 67 162
13 36 33 81 44 100 45 72 57 230 20 244 -21 8 -22 8 -29 -4z"/>
<path d="M5357 9283 c-4 -3 -7 -21 -7 -40 0 -32 -18 -71 -47 -101 -7 -7 -13
-20 -13 -27 0 -8 -11 -22 -25 -31 -14 -9 -25 -24 -25 -34 0 -10 -12 -29 -28
-42 -29 -25 -79 -98 -74 -111 1 -4 -9 -12 -22 -17 -14 -5 -33 -22 -43 -37 -20
-31 -84 -93 -95 -93 -5 0 -8 -7 -8 -16 0 -9 -24 -40 -52 -70 -29 -29 -61 -70
-72 -91 -10 -21 -22 -46 -27 -55 -5 -10 -9 -25 -9 -35 0 -9 -9 -27 -21 -39
-11 -12 -23 -35 -26 -50 -5 -25 -7 -176 -4 -280 2 -51 71 -141 254 -330 97
-99 195 -208 217 -242 23 -34 46 -62 51 -62 5 0 9 -8 9 -19 0 -10 11 -54 25
-97 14 -43 28 -106 32 -139 3 -33 10 -65 15 -72 6 -8 5 -25 -3 -47 -11 -31
-11 -38 6 -56 16 -17 17 -24 7 -40 -15 -24 -16 -60 -2 -60 6 0 10 -11 10 -25
0 -18 -5 -25 -20 -25 -25 0 -36 -25 -20 -45 10 -12 9 -16 -4 -21 -14 -6 -56
-76 -56 -94 0 -4 10 -6 21 -6 12 1 24 -5 27 -13 3 -10 -2 -13 -22 -9 -36 7
-62 -27 -71 -95 -4 -28 -12 -58 -19 -66 -8 -11 -8 -15 2 -18 20 -7 13 -26 -8
-20 -15 4 -20 0 -20 -14 0 -10 -9 -23 -20 -29 -14 -8 -19 -17 -15 -30 3 -11
-1 -30 -10 -44 -10 -14 -14 -33 -10 -45 4 -14 0 -21 -13 -25 -25 -8 -40 -85
-20 -98 29 -18 45 -1 92 101 9 19 16 40 16 47 0 7 6 19 13 26 6 7 23 40 36 73
24 61 62 148 87 198 8 16 14 33 14 39 0 10 16 49 45 113 19 40 34 138 31 200
-7 142 -19 271 -26 280 -4 6 -10 27 -14 47 -4 20 -13 50 -21 65 -8 15 -15 33
-15 39 0 6 -11 21 -24 33 -14 13 -22 29 -20 35 3 7 -9 30 -26 51 -16 21 -30
41 -30 46 0 4 -60 68 -133 141 -221 220 -251 260 -287 372 -16 50 -17 213 -2
228 7 7 12 19 12 28 0 18 24 66 61 125 15 22 29 50 33 62 4 12 18 31 32 42 13
10 24 27 24 38 0 11 14 26 36 38 20 11 47 36 60 57 13 20 41 53 63 73 61 56
191 239 191 268 0 15 9 31 24 40 40 27 41 157 0 157 -6 0 -14 -3 -17 -7z"/>
<path d="M4268 8813 c-19 -5 -24 -28 -8 -38 5 -3 7 -12 3 -21 -3 -8 2 -23 11
-33 15 -17 14 -19 -10 -29 -19 -9 -24 -17 -19 -31 4 -14 -1 -23 -16 -32 -13
-6 -32 -20 -43 -30 -11 -11 -23 -19 -28 -19 -15 0 -207 -198 -224 -232 -9 -18
-24 -38 -33 -45 -13 -10 -14 -15 -4 -32 9 -14 9 -22 2 -27 -6 -3 -8 -17 -4
-31 3 -14 1 -31 -5 -38 -8 -10 -7 -16 5 -23 15 -8 15 -12 4 -30 -10 -17 -10
-23 0 -36 11 -13 11 -19 1 -31 -10 -12 -8 -25 14 -68 14 -30 26 -58 26 -64 0
-5 9 -18 20 -28 11 -10 20 -23 20 -29 1 -23 132 -148 274 -261 21 -16 43 -35
50 -40 6 -6 27 -22 46 -35 38 -27 44 -31 80 -61 14 -12 36 -29 50 -38 93 -60
259 -244 301 -334 11 -23 27 -53 35 -67 8 -14 12 -34 10 -45 -3 -10 2 -27 11
-37 13 -14 13 -21 4 -32 -7 -8 -10 -19 -7 -24 9 -15 -17 -136 -31 -145 -7 -4
-13 -19 -13 -33 0 -16 -12 -36 -32 -55 l-33 -29 19 -35 c11 -19 22 -35 26 -35
17 0 72 68 96 118 25 54 26 56 8 70 -18 14 -18 14 3 9 30 -7 33 6 32 131 -1
68 -6 113 -15 130 -8 15 -14 35 -14 44 0 10 -13 40 -30 66 -16 27 -30 54 -30
61 0 6 -5 11 -10 11 -6 0 -13 8 -17 18 -9 25 -115 132 -213 215 -47 40 -87 75
-90 78 -3 3 -39 29 -80 58 -41 28 -97 70 -124 94 -27 23 -58 50 -70 60 -47 40
-176 171 -176 179 0 5 -11 25 -23 46 -57 89 -62 280 -11 367 26 45 174 192
235 233 48 33 99 123 99 174 0 37 -31 100 -48 97 -4 -1 -15 -3 -24 -6z"/>
<path d="M7582 8298 c-5 -8 -9 -57 -7 -116 2 -78 6 -107 19 -121 9 -10 16 -29
16 -42 0 -14 7 -34 15 -45 8 -10 15 -31 15 -45 0 -15 7 -32 15 -39 8 -7 15
-18 15 -24 0 -6 14 -29 30 -50 17 -22 30 -43 30 -48 0 -21 79 -112 177 -203
202 -189 313 -314 313 -353 0 -10 11 -24 25 -30 25 -12 33 -36 15 -47 -18 -11
-11 -35 10 -35 23 0 26 -20 8 -39 -11 -10 -9 -15 5 -25 15 -12 16 -14 2 -20
-9 -3 -15 -18 -15 -39 0 -18 -7 -42 -15 -53 -8 -10 -15 -25 -15 -33 0 -8 -8
-23 -17 -33 -13 -14 -14 -21 -5 -30 10 -10 8 -16 -8 -28 -18 -13 -19 -20 -11
-43 18 -46 47 -32 87 43 10 19 24 42 30 50 6 8 14 29 17 45 2 17 11 45 18 63
11 26 11 36 1 52 -7 12 -8 21 -2 25 15 9 12 49 -5 81 -8 16 -15 36 -15 44 0
56 -170 282 -238 319 -12 6 -22 18 -22 26 0 8 -4 15 -10 15 -5 0 -59 48 -120
108 -89 86 -124 128 -176 213 -35 59 -64 113 -64 120 0 8 -7 23 -15 33 -8 11
-15 27 -15 37 0 9 -7 30 -15 45 -10 20 -15 59 -15 121 0 81 -2 94 -19 103 -25
13 -26 13 -39 -2z"/>
<path d="M9440 7355 c0 -9 5 -15 11 -13 6 2 11 8 11 13 0 5 -5 11 -11 13 -6 2
-11 -4 -11 -13z"/>
<path d="M6197 6684 c-4 -4 -7 -16 -7 -27 0 -11 -8 -29 -17 -40 -23 -25 -23
-155 1 -211 9 -21 16 -46 16 -55 0 -9 16 -40 35 -70 19 -29 35 -55 35 -57 0
-3 42 -53 93 -113 118 -137 167 -196 194 -236 12 -18 29 -35 38 -39 25 -9 53
-7 60 4 6 9 -91 145 -138 195 -11 11 -45 52 -76 90 -31 39 -59 72 -62 75 -9 8
-74 103 -82 120 -4 8 -16 30 -27 48 -20 33 -37 87 -47 149 -3 18 2 51 12 76 9
25 15 55 13 68 -3 23 -27 37 -41 23z"/>
</g>
</svg>
